<?xml version="1.0" standalone="no"?>
<!DOCTYPE svg PUBLIC "-//W3C//DTD SVG 1.1//EN" "http://www.w3.org/Graphics/SVG/1.1/DTD/svg11.dtd" >
<svg xmlns="http://www.w3.org/2000/svg" xmlns:xlink="http://www.w3.org/1999/xlink" version="1.1">
<metadata>
Created by FontForge 20170731 at Thu Jan 20 23:16:28 2022
 By Aleksey,,,
Copyright 2011-2016 Severin Meyer
</metadata>
<defs>
<font id="Xolonium-Bold" horiz-adv-x="1392" >
  <font-face 
    font-family="Xolonium"
    font-weight="700"
    font-stretch="normal"
    units-per-em="2048"
    panose-1="2 0 8 3 0 0 0 0 0 0"
    ascent="1618"
    descent="-430"
    x-height="1004"
    cap-height="1352"
    bbox="-338 -430 3133 1823"
    underline-thickness="163"
    underline-position="-296"
    unicode-range="U+0020-1F680"
  />
<missing-glyph 
d="M195 0v1352h1003v-1352h-1003zM420 143h553v1065h-553v-1065z" />
    <glyph glyph-name=".notdef" 
d="M195 0v1352h1003v-1352h-1003zM420 143h553v1065h-553v-1065z" />
    <glyph glyph-name=".null" horiz-adv-x="0" 
 />
    <glyph glyph-name="nonmarkingreturn" horiz-adv-x="682" 
 />
    <glyph glyph-name="space" unicode=" " horiz-adv-x="655" 
 />
    <glyph glyph-name="exclam" unicode="!" horiz-adv-x="716" 
d="M154 0v307h409v-307h-409zM154 461v891h409v-891h-409z" />
    <glyph glyph-name="quotedbl" unicode="&#x22;" horiz-adv-x="1146" 
d="M143 778v574h328v-574h-328zM676 778v574h328v-574h-328z" />
    <glyph glyph-name="numbersign" unicode="#" horiz-adv-x="1658" 
d="M82 307v205h266v328h-266v204h266v308h328v-308h307v308h328v-308h266v-204h-266v-328h266v-205h-266v-307h-328v307h-307v-307h-328v307h-266zM676 512h307v328h-307v-328z" />
    <glyph glyph-name="dollar" unicode="$" horiz-adv-x="1515" 
d="M102 0v246h830q72 0 72 57v223q0 58 -72 58h-481q-349 0 -349 278v211q0 279 349 279h174v245h266v-245h420v-246h-727q-72 0 -72 -57v-162q0 -58 72 -58h481q348 0 348 -278v-272q0 -279 -348 -279h-174v-246h-266v246h-523z" />
    <glyph glyph-name="percent" unicode="%" horiz-adv-x="2273" 
d="M82 745v435q0 172 215 172h348q215 0 215 -172v-435q0 -172 -215 -172h-348q-215 0 -215 172zM369 770q0 -33 41 -33h122q41 0 41 33v385q0 33 -41 33h-122q-41 0 -41 -33v-385zM604 0l742 1352h323l-741 -1352h-324zM1413 172v434q0 172 215 172h348q215 0 215 -172
v-434q0 -172 -215 -172h-348q-215 0 -215 172zM1700 197q0 -33 41 -33h123q41 0 41 33v385q0 32 -41 32h-123q-41 0 -41 -32v-385z" />
    <glyph glyph-name="ampersand" unicode="&#x26;" horiz-adv-x="1720" 
d="M123 246v260q0 185 174 231q-113 60 -113 207v162q0 246 308 246h727v-215h-615q-51 0 -51 -41v-236q0 -41 51 -41h1055v-215h-287v-604h-942q-307 0 -307 246zM492 256q0 -41 51 -41h461v389h-461q-51 0 -51 -41v-307z" />
    <glyph glyph-name="quotesingle" unicode="'" horiz-adv-x="614" 
d="M143 778v574h328v-574h-328z" />
    <glyph glyph-name="parenleft" unicode="(" horiz-adv-x="860" 
d="M143 461q0 246 82 476.5t236 414.5h317q-138 -185 -212 -415t-74 -476t74 -476t212 -415h-317q-154 184 -236 414.5t-82 476.5z" />
    <glyph glyph-name="parenright" unicode=")" horiz-adv-x="860" 
d="M82 -430q138 185 212.5 415.5t74.5 475.5t-74.5 475.5t-212.5 415.5h317q154 -184 236 -414.5t82 -476.5t-82 -476.5t-236 -414.5h-317z" />
    <glyph glyph-name="asterisk" unicode="*" horiz-adv-x="1126" 
d="M61 889l86 260l273 -88v291h287v-291l272 88l86 -260l-281 -90l172 -238l-221 -162l-172 238l-172 -238l-221 162l172 238z" />
    <glyph glyph-name="plus" unicode="+" horiz-adv-x="1515" 
d="M174 461v246h410v399h348v-399h409v-246h-409v-400h-348v400h-410z" />
    <glyph glyph-name="comma" unicode="," horiz-adv-x="696" 
d="M51 -266l144 573h368l-235 -573h-277z" />
    <glyph glyph-name="hyphen" unicode="-" horiz-adv-x="942" 
d="M82 461v246h778v-246h-778z" />
    <glyph glyph-name="period" unicode="." horiz-adv-x="696" 
d="M154 0v307h389v-307h-389z" />
    <glyph glyph-name="slash" unicode="/" horiz-adv-x="1085" 
d="M41 0l649 1352h354l-649 -1352h-354z" />
    <glyph glyph-name="zero" unicode="0" horiz-adv-x="1515" 
d="M123 279v794q0 279 348 279h573q349 0 349 -279v-794q0 -279 -349 -279h-573q-348 0 -348 279zM532 303q0 -57 72 -57h307q72 0 72 57v746q0 57 -72 57h-307q-72 0 -72 -57v-746z" />
    <glyph glyph-name="one" unicode="1" horiz-adv-x="1515" 
d="M297 1106v246h778v-1352h-409v1106h-369z" />
    <glyph glyph-name="two" unicode="2" horiz-adv-x="1515" 
d="M123 0v551q0 278 348 278h440q72 0 72 58v162q0 57 -72 57h-686v246h819q349 0 349 -279v-211q0 -278 -349 -278h-440q-72 0 -72 -58v-280h861v-246h-1270z" />
    <glyph glyph-name="three" unicode="3" horiz-adv-x="1515" 
d="M164 0v246h747q72 0 72 57v223q0 58 -72 58h-563v245h563q72 0 72 58v162q0 57 -72 57h-747v246h880q349 0 349 -279v-112q0 -179 -146 -244q146 -65 146 -244v-194q0 -279 -349 -279h-880z" />
    <glyph glyph-name="four" unicode="4" horiz-adv-x="1515" 
d="M123 246v246l768 860h502v-1352h-410v246h-860zM580 492h403v454z" />
    <glyph glyph-name="five" unicode="5" horiz-adv-x="1515" 
d="M123 0v246h788q72 0 72 57v223q0 58 -72 58h-788v768h1188v-246h-779v-277h512q349 0 349 -278v-272q0 -279 -349 -279h-921z" />
    <glyph glyph-name="six" unicode="6" horiz-adv-x="1515" 
d="M123 279v745q0 328 409 328h758v-246h-614q-144 0 -144 -115v-162h512q349 0 349 -278v-272q0 -279 -349 -279h-573q-348 0 -348 279zM532 303q0 -57 72 -57h307q72 0 72 57v223q0 58 -72 58h-379v-281z" />
    <glyph glyph-name="seven" unicode="7" horiz-adv-x="1515" 
d="M123 1106v246h1270v-246l-605 -1106h-448l604 1106h-821z" />
    <glyph glyph-name="eight" unicode="8" horiz-adv-x="1515" 
d="M123 279v194q0 179 145 244q-145 65 -145 244v112q0 279 348 279h573q349 0 349 -279v-112q0 -179 -146 -244q146 -65 146 -244v-194q0 -279 -349 -279h-573q-348 0 -348 279zM532 303q0 -57 72 -57h307q72 0 72 57v223q0 58 -72 58h-307q-72 0 -72 -58v-223zM532 887
q0 -58 72 -58h307q72 0 72 58v162q0 57 -72 57h-307q-72 0 -72 -57v-162z" />
    <glyph glyph-name="nine" unicode="9" horiz-adv-x="1515" 
d="M123 862v211q0 279 348 279h573q349 0 349 -279v-745q0 -328 -410 -328h-778v246h635q143 0 143 114v224h-512q-348 0 -348 278zM532 887q0 -58 72 -58h379v220q0 57 -72 57h-307q-72 0 -72 -57v-162z" />
    <glyph glyph-name="colon" unicode=":" horiz-adv-x="696" 
d="M154 0v307h389v-307h-389zM154 696v308h389v-308h-389z" />
    <glyph glyph-name="semicolon" unicode=";" horiz-adv-x="696" 
d="M20 -266l144 573h368l-235 -573h-277zM154 696v308h389v-308h-389z" />
    <glyph glyph-name="less" unicode="&#x3c;" horiz-adv-x="1515" 
d="M195 481v205l1126 461v-283l-684 -280l684 -281v-283z" />
    <glyph glyph-name="equal" unicode="=" horiz-adv-x="1515" 
d="M174 717v246h1167v-246h-1167zM174 205v246h1167v-246h-1167z" />
    <glyph glyph-name="greater" unicode="&#x3e;" horiz-adv-x="1515" 
d="M195 20v283l684 281l-684 280v283l1126 -461v-205z" />
    <glyph glyph-name="question" unicode="?" horiz-adv-x="1495" 
d="M82 1106v246h962q349 0 349 -279v-211q0 -278 -349 -278h-204v-123h-410v368h481q72 0 72 58v162q0 57 -72 57h-829zM430 0v307h410v-307h-410z" />
    <glyph glyph-name="at" unicode="@" horiz-adv-x="2273" 
d="M123 -63v1202q0 213 266 213h1495q266 0 266 -213v-1026h-1228q-308 0 -308 245v359q0 246 308 246h716v-635h185v778q0 41 -51 41h-1270q-51 0 -51 -41v-1137q0 -41 51 -41h1526v-204h-1639q-266 0 -266 213zM983 369q0 -41 51 -41h236v420h-236q-51 0 -51 -41v-338z
" />
    <glyph glyph-name="A" unicode="A" horiz-adv-x="1699" 
d="M10 0l584 1352h512l584 -1352h-402l-123 287h-630l-123 -287h-402zM641 532h418l-209 482z" />
    <glyph glyph-name="B" unicode="B" horiz-adv-x="1638" 
d="M143 0v1352h1004q348 0 348 -279v-119q0 -172 -133 -237q154 -62 154 -248v-190q0 -279 -349 -279h-1024zM553 246h481q72 0 72 57v223q0 58 -72 58h-481v-338zM553 829h461q71 0 71 58v162q0 57 -71 57h-461v-277z" />
    <glyph glyph-name="C" unicode="C" horiz-adv-x="1556" 
d="M143 279v794q0 279 349 279h962v-246h-829q-72 0 -72 -57v-746q0 -57 72 -57h829v-246h-962q-349 0 -349 279z" />
    <glyph glyph-name="D" unicode="D" horiz-adv-x="1679" 
d="M143 0v1352h717q696 0 696 -557v-238q0 -557 -696 -557h-717zM553 246h225q369 0 369 295v270q0 295 -369 295h-225v-860z" />
    <glyph glyph-name="E" unicode="E" horiz-adv-x="1556" 
d="M143 0v1352h1311v-246h-901v-277h799v-245h-799v-338h901v-246h-1311z" />
    <glyph glyph-name="F" unicode="F" horiz-adv-x="1495" 
d="M143 0v1352h1291v-246h-881v-297h778v-246h-778v-563h-410z" />
    <glyph glyph-name="G" unicode="G" horiz-adv-x="1679" 
d="M143 279v794q0 279 349 279h962v-246h-829q-72 0 -72 -57v-746q0 -57 72 -57h501v348h-266v246h676v-840h-1044q-349 0 -349 279z" />
    <glyph glyph-name="H" unicode="H" horiz-adv-x="1699" 
d="M143 0v1352h410v-523h594v523h409v-1352h-409v584h-594v-584h-410z" />
    <glyph glyph-name="I" unicode="I" horiz-adv-x="696" 
d="M143 0v1352h410v-1352h-410z" />
    <glyph glyph-name="J" unicode="J" horiz-adv-x="1536" 
d="M82 328v276h410v-244q0 -114 143 -114h276q72 0 72 57v1049h410v-1073q0 -279 -349 -279h-552q-410 0 -410 328z" />
    <glyph glyph-name="K" unicode="K" horiz-adv-x="1638" 
d="M143 0v1352h410v-523l543 523h501l-579 -559l600 -793h-459l-407 539l-199 -193v-346h-410z" />
    <glyph glyph-name="L" unicode="L" horiz-adv-x="1433" 
d="M143 0v1352h410v-1106h840v-246h-1250z" />
    <glyph glyph-name="M" unicode="M" horiz-adv-x="2129" 
d="M143 0v1352h502l420 -944l420 944h502v-1352h-410v713l-317 -713h-390l-317 713v-713h-410z" />
    <glyph glyph-name="N" unicode="N" horiz-adv-x="1720" 
d="M143 0v1352h441l583 -811v811h410v-1352h-440l-584 811v-811h-410z" />
    <glyph glyph-name="O" unicode="O" horiz-adv-x="1699" 
d="M143 279v794q0 279 349 279h716q348 0 348 -279v-794q0 -279 -348 -279h-716q-349 0 -349 279zM553 303q0 -57 72 -57h450q72 0 72 57v746q0 57 -72 57h-450q-72 0 -72 -57v-746z" />
    <glyph glyph-name="P" unicode="P" horiz-adv-x="1597" 
d="M143 0v1352h1004q348 0 348 -279v-313q0 -279 -348 -279h-594v-481h-410zM553 727h461q71 0 71 57v265q0 57 -71 57h-461v-379z" />
    <glyph glyph-name="Q" unicode="Q" horiz-adv-x="1699" 
d="M143 279v794q0 279 349 279h716q348 0 348 -279v-794q0 -279 -348 -279h-55l143 -328h-415l-144 328h-245q-349 0 -349 279zM553 303q0 -57 72 -57h450q72 0 72 57v746q0 57 -72 57h-450q-72 0 -72 -57v-746z" />
    <glyph glyph-name="R" unicode="R" horiz-adv-x="1617" 
d="M143 0v1352h1004q348 0 348 -279v-282q0 -125 -69 -193.5t-207 -85.5l337 -512h-442l-338 512h-223v-512h-410zM553 758h461q71 0 71 57v234q0 57 -71 57h-461v-348z" />
    <glyph glyph-name="S" unicode="S" horiz-adv-x="1597" 
d="M123 0v246h870q72 0 72 57v223q0 58 -72 58h-522q-348 0 -348 278v211q0 279 348 279h901v-246h-768q-72 0 -72 -57v-162q0 -58 72 -58h522q349 0 349 -278v-272q0 -279 -349 -279h-1003z" />
    <glyph glyph-name="T" unicode="T" horiz-adv-x="1597" 
d="M41 1106v246h1515v-246h-552v-1106h-410v1106h-553z" />
    <glyph glyph-name="U" unicode="U" horiz-adv-x="1699" 
d="M143 279v1073h410v-1049q0 -57 72 -57h450q72 0 72 57v1049h409v-1073q0 -279 -348 -279h-716q-349 0 -349 279z" />
    <glyph glyph-name="V" unicode="V" horiz-adv-x="1699" 
d="M10 1352h416l424 -983l424 983h416l-584 -1352h-512z" />
    <glyph glyph-name="W" unicode="W" horiz-adv-x="2457" 
d="M31 1352h399l268 -953l316 953h430l315 -953l269 953h399l-379 -1352h-522l-297 895l-297 -895h-522z" />
    <glyph glyph-name="X" unicode="X" horiz-adv-x="1638" 
d="M20 0l570 688l-549 664h457l321 -387l322 387h456l-548 -664l569 -688h-457l-342 412l-342 -412h-457z" />
    <glyph glyph-name="Y" unicode="Y" horiz-adv-x="1658" 
d="M10 1352h443l376 -523l377 523h443l-615 -850v-502h-409v502z" />
    <glyph glyph-name="Z" unicode="Z" horiz-adv-x="1536" 
d="M82 0v246l850 860h-830v246h1332v-246l-850 -860h870v-246h-1372z" />
    <glyph glyph-name="bracketleft" unicode="[" horiz-adv-x="942" 
d="M164 -430v1782h676v-205h-328v-1372h328v-205h-676z" />
    <glyph glyph-name="backslash" unicode="\" horiz-adv-x="1085" 
d="M41 1352h354l649 -1352h-354z" />
    <glyph glyph-name="bracketright" unicode="]" horiz-adv-x="942" 
d="M102 -225h328v1372h-328v205h676v-1782h-676v205z" />
    <glyph glyph-name="asciicircum" unicode="^" horiz-adv-x="1269" 
d="M61 573l410 779h328l409 -779h-325l-248 474l-248 -474h-326z" />
    <glyph glyph-name="underscore" unicode="_" horiz-adv-x="1310" 
d="M0 -215h1311v-215h-1311v215z" />
    <glyph glyph-name="grave" unicode="`" horiz-adv-x="1024" 
d="M154 1454h327l226 -328h-267z" />
    <glyph glyph-name="a" unicode="a" horiz-adv-x="1331" 
d="M102 246v133q0 246 308 246h430v123q0 40 -52 40h-604v216h717q307 0 307 -246v-758h-798q-308 0 -308 246zM471 256q0 -41 51 -41h318v195h-318q-51 0 -51 -41v-113z" />
    <glyph glyph-name="b" unicode="b" 
d="M123 0v1352h369v-348h471q307 0 307 -246v-512q0 -246 -307 -246h-840zM492 215h358q51 0 51 41v492q0 40 -51 40h-358v-573z" />
    <glyph glyph-name="c" unicode="c" horiz-adv-x="1249" 
d="M123 246v512q0 246 307 246h737v-216h-624q-51 0 -51 -40v-492q0 -41 51 -41h624v-215h-737q-307 0 -307 246z" />
    <glyph glyph-name="d" unicode="d" 
d="M123 246v512q0 246 307 246h471v348h369v-1352h-840q-307 0 -307 246zM492 256q0 -41 51 -41h358v573h-358q-51 0 -51 -40v-492z" />
    <glyph glyph-name="e" unicode="e" horiz-adv-x="1351" 
d="M123 246v512q0 246 307 246h492q307 0 307 -246v-348h-737v-154q0 -41 51 -41h645v-215h-758q-307 0 -307 246zM492 625h368v123q0 40 -51 40h-266q-51 0 -51 -40v-123z" />
    <glyph glyph-name="f" unicode="f" horiz-adv-x="901" 
d="M123 0v1106q0 246 307 246h410v-215h-297q-51 0 -51 -41v-92h348v-216h-348v-788h-369z" />
    <glyph glyph-name="g" unicode="g" 
d="M123 246v512q0 246 307 246h840v-1188q0 -246 -307 -246h-799v215h655q82 0 82 65v150h-471q-307 0 -307 246zM492 256q0 -41 51 -41h358v573h-358q-51 0 -51 -40v-492z" />
    <glyph glyph-name="h" unicode="h" 
d="M123 0v1352h369v-348h471q307 0 307 -246v-758h-369v748q0 40 -51 40h-358v-788h-369z" />
    <glyph glyph-name="i" unicode="i" horiz-adv-x="614" 
d="M123 0v1004h369v-1004h-369zM123 1147v205h369v-205h-369z" />
    <glyph glyph-name="j" unicode="j" horiz-adv-x="614" 
d="M-102 -215h143q82 0 82 65v1154h369v-1188q0 -246 -308 -246h-286v215zM123 1147v205h369v-205h-369z" />
    <glyph glyph-name="k" unicode="k" horiz-adv-x="1351" 
d="M123 0v1352h369v-717l378 369h441l-432 -420l452 -584h-399l-281 362l-159 -155v-207h-369z" />
    <glyph glyph-name="l" unicode="l" horiz-adv-x="614" 
d="M123 0v1352h369v-1352h-369z" />
    <glyph glyph-name="m" unicode="m" horiz-adv-x="1966" 
d="M123 0v1004h1413q307 0 307 -246v-758h-368v748q0 40 -52 40h-256v-788h-368v748q0 40 -51 40h-256v-788h-369z" />
    <glyph glyph-name="n" unicode="n" 
d="M123 0v1004h840q307 0 307 -246v-758h-369v748q0 40 -51 40h-358v-788h-369z" />
    <glyph glyph-name="o" unicode="o" 
d="M123 246v512q0 246 307 246h533q307 0 307 -246v-512q0 -246 -307 -246h-533q-307 0 -307 246zM492 256q0 -41 51 -41h307q51 0 51 41v492q0 40 -51 40h-307q-51 0 -51 -40v-492z" />
    <glyph glyph-name="p" unicode="p" 
d="M123 -430v1434h840q307 0 307 -246v-512q0 -246 -307 -246h-471v-430h-369zM492 215h358q51 0 51 41v492q0 40 -51 40h-358v-573z" />
    <glyph glyph-name="q" unicode="q" 
d="M123 246v512q0 246 307 246h840v-1434h-369v430h-471q-307 0 -307 246zM492 256q0 -41 51 -41h358v573h-358q-51 0 -51 -40v-492z" />
    <glyph glyph-name="r" unicode="r" horiz-adv-x="901" 
d="M123 0v758q0 246 307 246h410v-216h-297q-51 0 -51 -40v-748h-369z" />
    <glyph glyph-name="s" unicode="s" horiz-adv-x="1249" 
d="M102 0v215h625q51 0 51 41v113q0 41 -51 41h-317q-308 0 -308 245v103q0 246 308 246h655v-216h-543q-51 0 -51 -40v-82q0 -41 51 -41h318q307 0 307 -246v-133q0 -246 -307 -246h-738z" />
    <glyph glyph-name="t" unicode="t" horiz-adv-x="921" 
d="M123 246v1106h369v-348h348v-216h-348v-532q0 -41 51 -41h297v-215h-410q-307 0 -307 246z" />
    <glyph glyph-name="u" unicode="u" 
d="M123 246v758h369v-748q0 -41 51 -41h358v789h369v-1004h-840q-307 0 -307 246z" />
    <glyph glyph-name="v" unicode="v" 
d="M20 1004h365l311 -680l312 680h364l-459 -1004h-434z" />
    <glyph glyph-name="w" unicode="w" horiz-adv-x="1904" 
d="M20 1004h349l206 -656l207 656h340l207 -656l207 656h348l-317 -1004h-420l-195 616l-194 -616h-420z" />
    <glyph glyph-name="x" unicode="x" horiz-adv-x="1331" 
d="M20 0l441 508l-430 496h411l224 -259l223 259h411l-430 -496l441 -508h-412l-233 270l-234 -270h-412z" />
    <glyph glyph-name="y" unicode="y" 
d="M20 1004h365l311 -680l312 680h364l-655 -1434h-365l162 354z" />
    <glyph glyph-name="z" unicode="z" horiz-adv-x="1269" 
d="M82 0v215l620 573h-600v216h1065v-216l-620 -573h641v-215h-1106z" />
    <glyph glyph-name="braceleft" unicode="{" horiz-adv-x="1208" 
d="M102 348v225l328 199v334q0 246 307 246h369v-205h-277q-51 0 -51 -41v-440l-340 -205l340 -205v-440q0 -41 51 -41h277v-205h-369q-307 0 -307 246v334z" />
    <glyph glyph-name="bar" unicode="|" horiz-adv-x="655" 
d="M164 -430v1782h328v-1782h-328z" />
    <glyph glyph-name="braceright" unicode="}" horiz-adv-x="1208" 
d="M102 -225h277q51 0 51 41v440l340 205l-340 205v440q0 41 -51 41h-277v205h369q307 0 307 -246v-334l328 -199v-225l-328 -198v-334q0 -246 -307 -246h-369v205z" />
    <glyph glyph-name="asciitilde" unicode="~" horiz-adv-x="1515" 
d="M174 373v286l174 105q33 20 53 30.5t53.5 20.5t67.5 10t67.5 -10t53.5 -20.5t53 -30.5l236 -141q32 -19 61 -19q30 0 62 19l286 172v-287l-174 -105q-33 -20 -53 -30.5t-53.5 -20.5t-67.5 -10t-67.5 10t-53.5 20.5t-53 30.5l-235 142q-30 18 -62 18q-31 0 -61 -18z" />
    <glyph glyph-name="uni00A0" unicode="&#xa0;" horiz-adv-x="655" 
 />
    <glyph glyph-name="exclamdown" unicode="&#xa1;" horiz-adv-x="716" 
d="M154 -369v912h409v-912h-409zM154 696v308h409v-308h-409z" />
    <glyph glyph-name="cent" unicode="&#xa2;" horiz-adv-x="1515" 
d="M215 246v512q0 246 307 246h164v245h266v-245h308v-216h-625q-51 0 -51 -40v-492q0 -41 51 -41h625v-215h-308v-246h-266v246h-164q-307 0 -307 246z" />
    <glyph glyph-name="sterling" unicode="&#xa3;" horiz-adv-x="1515" 
d="M61 0v246h205v358h-205v205h205v264q0 279 348 279h717v-246h-583q-72 0 -72 -57v-240h450v-205h-450v-358h737v-246h-1352z" />
    <glyph glyph-name="currency" unicode="&#xa4;" horiz-adv-x="1515" 
d="M184 287l318 317l205 -205l-318 -317zM184 1024l205 205l318 -318l-205 -204zM809 399l205 205l317 -317l-205 -205zM809 911l317 318l205 -205l-317 -317z" />
    <glyph glyph-name="yen" unicode="&#xa5;" horiz-adv-x="1515" 
d="M0 1352h426l332 -510l332 510h426l-453 -697h227v-184h-327v-123h327v-184h-327v-164h-410v164h-328v184h328v123h-328v184h228z" />
    <glyph glyph-name="brokenbar" unicode="&#xa6;" horiz-adv-x="655" 
d="M164 317h328v-747h-328v747zM164 604v748h328v-748h-328z" />
    <glyph glyph-name="section" unicode="&#xa7;" horiz-adv-x="1515" 
d="M143 379v266q0 141 103 203v258q0 246 307 246h717v-215h-604q-52 0 -52 -41v-164q0 -41 52 -41h399q307 0 307 -246v-266q0 -141 -102 -203v-258q0 -246 -307 -246h-717v215h604q51 0 51 41v164q0 41 -51 41h-399q-308 0 -308 246zM512 389q0 -41 51 -41h389q52 0 52 41
v246q0 41 -52 41h-389q-51 0 -51 -41v-246z" />
    <glyph glyph-name="dieresis" unicode="&#xa8;" horiz-adv-x="1024" 
d="M133 1167v246h287v-246h-287zM604 1167v246h287v-246h-287z" />
    <glyph glyph-name="copyright" unicode="&#xa9;" horiz-adv-x="1966" 
d="M123 172v1008q0 172 215 172h1290q215 0 215 -172v-1008q0 -172 -215 -172h-1290q-215 0 -215 172zM410 197q0 -33 41 -33h1065q40 0 40 33v958q0 33 -40 33h-1065q-41 0 -41 -33v-958zM573 459v434q0 172 215 172h584v-164h-471q-41 0 -41 -33v-385q0 -32 41 -32h471
v-164h-584q-215 0 -215 172z" />
    <glyph glyph-name="ordfeminine" unicode="&#xaa;" horiz-adv-x="921" 
d="M82 848v86q0 172 215 172h256v49q0 33 -41 33h-379v164h492q215 0 215 -172v-504h-543q-215 0 -215 172zM369 872q0 -32 41 -32h143v102h-143q-41 0 -41 -33v-37z" />
    <glyph glyph-name="guillemotleft" unicode="&#xab;" horiz-adv-x="1536" 
d="M61 532l400 431h358l-379 -431l379 -430h-358zM696 532l400 431h358l-379 -431l379 -430h-358z" />
    <glyph glyph-name="logicalnot" unicode="&#xac;" horiz-adv-x="1515" 
d="M164 594v246h1167v-676h-266v430h-901z" />
    <glyph glyph-name="uni00AD" unicode="&#xad;" horiz-adv-x="942" 
d="M82 461v246h778v-246h-778z" />
    <glyph glyph-name="registered" unicode="&#xae;" horiz-adv-x="1966" 
d="M123 172v1008q0 172 215 172h1290q215 0 215 -172v-1008q0 -172 -215 -172h-1290q-215 0 -215 172zM410 197q0 -33 41 -33h1065q40 0 40 33v958q0 33 -40 33h-1065q-41 0 -41 -33v-958zM573 287v778h605q215 0 215 -172v-158q0 -149 -158 -168l188 -280h-305l-184 276
h-74v-276h-287zM860 727h205q41 0 41 33v108q0 33 -41 33h-205v-174z" />
    <glyph glyph-name="macron" unicode="&#xaf;" horiz-adv-x="1024" 
d="M154 1188v194h716v-194h-716z" />
    <glyph glyph-name="degree" unicode="&#xb0;" horiz-adv-x="1024" 
d="M102 868v312q0 172 215 172h390q215 0 215 -172v-312q0 -172 -215 -172h-390q-215 0 -215 172zM389 893q0 -33 41 -33h164q41 0 41 33v262q0 33 -41 33h-164q-41 0 -41 -33v-262z" />
    <glyph glyph-name="plusminus" unicode="&#xb1;" horiz-adv-x="1515" 
d="M174 0v246h1167v-246h-1167zM174 676v246h410v348h348v-348h409v-246h-409v-348h-348v348h-410z" />
    <glyph glyph-name="uni00B2" unicode="&#xb2;" horiz-adv-x="942" 
d="M82 573v310q0 172 215 172h235q41 0 41 32v68q0 33 -41 33h-399v164h512q215 0 215 -172v-117q0 -172 -215 -172h-235q-41 0 -41 -33v-121h491v-164h-778z" />
    <glyph glyph-name="uni00B3" unicode="&#xb3;" horiz-adv-x="942" 
d="M102 573v164h430q41 0 41 33v88q0 33 -41 33h-327v164h327q41 0 41 32v68q0 33 -41 33h-430v164h543q215 0 215 -172v-52q0 -119 -102 -155q102 -36 102 -156v-72q0 -172 -215 -172h-543z" />
    <glyph glyph-name="acute" unicode="&#xb4;" horiz-adv-x="1024" 
d="M317 1126l226 328h327l-286 -328h-267z" />
    <glyph glyph-name="mu" unicode="&#xb5;" 
d="M123 -430v1434h369v-789h358q51 0 51 41v748h369v-758q0 -246 -307 -246h-471v-430h-369z" />
    <glyph glyph-name="paragraph" unicode="&#xb6;" horiz-adv-x="1372" 
d="M143 647v426q0 279 349 279h266v-983h-266q-349 0 -349 278zM881 -430v1782h327v-1782h-327z" />
    <glyph glyph-name="periodcentered" unicode="&#xb7;" horiz-adv-x="696" 
d="M154 430v307h389v-307h-389z" />
    <glyph glyph-name="cedilla" unicode="&#xb8;" horiz-adv-x="1024" 
d="M256 -225h184q82 0 82 65v160h266v-174q0 -205 -256 -205h-276v154z" />
    <glyph glyph-name="uni00B9" unicode="&#xb9;" horiz-adv-x="942" 
d="M174 1188v164h512v-779h-287v615h-225z" />
    <glyph glyph-name="ordmasculine" unicode="&#xba;" horiz-adv-x="942" 
d="M82 848v332q0 172 215 172h348q215 0 215 -172v-332q0 -172 -215 -172h-348q-215 0 -215 172zM369 872q0 -32 41 -32h122q41 0 41 32v283q0 33 -41 33h-122q-41 0 -41 -33v-283z" />
    <glyph glyph-name="guillemotright" unicode="&#xbb;" horiz-adv-x="1536" 
d="M82 102l379 430l-379 431h358l400 -431l-400 -430h-358zM717 102l379 430l-379 431h358l400 -431l-400 -430h-358z" />
    <glyph glyph-name="onequarter" unicode="&#xbc;" horiz-adv-x="2007" 
d="M82 1188v164h512v-779h-287v615h-225zM461 0l741 1352h324l-742 -1352h-323zM1147 133v164l420 481h358v-778h-287v133h-491zM1450 297h188v215z" />
    <glyph glyph-name="onehalf" unicode="&#xbd;" horiz-adv-x="2129" 
d="M82 1188v164h512v-779h-287v615h-225zM461 0l741 1352h324l-742 -1352h-323zM1270 0v309q0 172 215 172h235q41 0 41 33v68q0 32 -41 32h-399v164h512q215 0 215 -172v-117q0 -172 -215 -172h-236q-41 0 -41 -32v-121h492v-164h-778z" />
    <glyph glyph-name="threequarters" unicode="&#xbe;" horiz-adv-x="2150" 
d="M102 573v164h430q41 0 41 33v88q0 33 -41 33h-327v164h327q41 0 41 32v68q0 33 -41 33h-430v164h543q215 0 215 -172v-52q0 -119 -102 -155q102 -36 102 -156v-72q0 -172 -215 -172h-543zM604 0l742 1352h323l-741 -1352h-324zM1290 133v164l420 481h358v-778h-286v133
h-492zM1593 297h189v215z" />
    <glyph glyph-name="questiondown" unicode="&#xbf;" horiz-adv-x="1433" 
d="M102 -90v211q0 278 349 278h204v144h410v-389h-481q-72 0 -72 -58v-162q0 -57 72 -57h829v-246h-962q-349 0 -349 279zM655 696v308h410v-308h-410z" />
    <glyph glyph-name="Agrave" unicode="&#xc0;" horiz-adv-x="1699" 
d="M10 0l584 1352h512l584 -1352h-402l-123 287h-630l-123 -287h-402zM492 1802h327l225 -327h-266zM641 532h418l-209 482z" />
    <glyph glyph-name="Aacute" unicode="&#xc1;" horiz-adv-x="1699" 
d="M10 0l584 1352h512l584 -1352h-402l-123 287h-630l-123 -287h-402zM641 532h418l-209 482zM655 1475l226 327h327l-286 -327h-267z" />
    <glyph glyph-name="Acircumflex" unicode="&#xc2;" horiz-adv-x="1699" 
d="M10 0l584 1352h512l584 -1352h-402l-123 287h-630l-123 -287h-402zM461 1475l256 327h266l256 -327h-260l-129 153l-129 -153h-260zM641 532h418l-209 482z" />
    <glyph glyph-name="Atilde" unicode="&#xc3;" horiz-adv-x="1699" 
d="M10 0l584 1352h512l584 -1352h-402l-123 287h-630l-123 -287h-402zM461 1608l133 133q61 61 143 61q83 0 144 -61l41 -41q25 -25 41 -25t41 25l102 102l133 -133l-133 -133q-61 -61 -143 -61q-83 0 -144 61l-41 41q-25 25 -41 25t-41 -25l-102 -102zM641 532h418
l-209 482z" />
    <glyph glyph-name="Adieresis" unicode="&#xc4;" horiz-adv-x="1699" 
d="M10 0l584 1352h512l584 -1352h-402l-123 287h-630l-123 -287h-402zM471 1516v245h287v-245h-287zM641 532h418l-209 482zM942 1516v245h287v-245h-287z" />
    <glyph glyph-name="Aring" unicode="&#xc5;" horiz-adv-x="1699" 
d="M10 0l584 1352h512l584 -1352h-402l-123 287h-630l-123 -287h-402zM543 1550v125q0 148 184 148h246q184 0 184 -148v-125q0 -147 -184 -147h-246q-184 0 -184 147zM641 532h418l-209 482zM748 1550q0 -24 30 -24h144q30 0 30 24v125q0 25 -30 25h-144q-30 0 -30 -25
v-125z" />
    <glyph glyph-name="AE" unicode="&#xc6;" horiz-adv-x="2355" 
d="M10 0l584 1352h1659v-246h-819v-277h716v-245h-716v-338h819v-246h-1229v287h-489l-123 -287h-402zM641 532h383v574h-135z" />
    <glyph glyph-name="Ccedilla" unicode="&#xc7;" horiz-adv-x="1556" 
d="M143 279v794q0 279 349 279h962v-246h-829q-72 0 -72 -57v-746q0 -57 72 -57h829v-246h-307v-174q0 -205 -256 -205h-277v154h185q82 0 82 65v160h-389q-349 0 -349 279z" />
    <glyph glyph-name="Egrave" unicode="&#xc8;" horiz-adv-x="1556" 
d="M143 0v1352h1311v-246h-901v-277h799v-245h-799v-338h901v-246h-1311zM440 1802h328l225 -327h-266z" />
    <glyph glyph-name="Eacute" unicode="&#xc9;" horiz-adv-x="1556" 
d="M143 0v1352h1311v-246h-901v-277h799v-245h-799v-338h901v-246h-1311zM604 1475l225 327h328l-287 -327h-266z" />
    <glyph glyph-name="Ecircumflex" unicode="&#xca;" horiz-adv-x="1556" 
d="M143 0v1352h1311v-246h-901v-277h799v-245h-799v-338h901v-246h-1311zM410 1475l256 327h266l256 -327h-260l-129 153l-129 -153h-260z" />
    <glyph glyph-name="Edieresis" unicode="&#xcb;" horiz-adv-x="1556" 
d="M143 0v1352h1311v-246h-901v-277h799v-245h-799v-338h901v-246h-1311zM420 1516v245h287v-245h-287zM891 1516v245h287v-245h-287z" />
    <glyph glyph-name="Igrave" unicode="&#xcc;" horiz-adv-x="696" 
d="M20 1802h328l225 -327h-266zM143 0v1352h410v-1352h-410z" />
    <glyph glyph-name="Iacute" unicode="&#xcd;" horiz-adv-x="696" 
d="M123 1475l225 327h328l-287 -327h-266zM143 0v1352h410v-1352h-410z" />
    <glyph glyph-name="Icircumflex" unicode="&#xce;" horiz-adv-x="696" 
d="M-41 1475l256 327h266l256 -327h-260l-129 153l-129 -153h-260zM143 0v1352h410v-1352h-410z" />
    <glyph glyph-name="Idieresis" unicode="&#xcf;" horiz-adv-x="696" 
d="M-31 1516v245h287v-245h-287zM143 0v1352h410v-1352h-410zM440 1516v245h287v-245h-287z" />
    <glyph glyph-name="Eth" unicode="&#xd0;" horiz-adv-x="1720" 
d="M20 604v205h164v543h717q696 0 696 -557v-238q0 -557 -696 -557h-717v604h-164zM594 246h225q369 0 369 295v270q0 295 -369 295h-225v-297h307v-205h-307v-358z" />
    <glyph glyph-name="Ntilde" unicode="&#xd1;" horiz-adv-x="1720" 
d="M143 0v1352h441l583 -811v811h410v-1352h-440l-584 811v-811h-410zM471 1608l133 133q61 61 144 61q82 0 143 -61l41 -41q25 -25 41 -25t41 25l102 102l133 -133l-133 -133q-61 -61 -143 -61q-83 0 -144 61l-41 41q-25 25 -40 25q-16 0 -41 -25l-103 -102z" />
    <glyph glyph-name="Ograve" unicode="&#xd2;" horiz-adv-x="1699" 
d="M143 279v794q0 279 349 279h716q348 0 348 -279v-794q0 -279 -348 -279h-716q-349 0 -349 279zM492 1802h327l225 -327h-266zM553 303q0 -57 72 -57h450q72 0 72 57v746q0 57 -72 57h-450q-72 0 -72 -57v-746z" />
    <glyph glyph-name="Oacute" unicode="&#xd3;" horiz-adv-x="1699" 
d="M143 279v794q0 279 349 279h716q348 0 348 -279v-794q0 -279 -348 -279h-716q-349 0 -349 279zM553 303q0 -57 72 -57h450q72 0 72 57v746q0 57 -72 57h-450q-72 0 -72 -57v-746zM655 1475l226 327h327l-286 -327h-267z" />
    <glyph glyph-name="Ocircumflex" unicode="&#xd4;" horiz-adv-x="1699" 
d="M143 279v794q0 279 349 279h716q348 0 348 -279v-794q0 -279 -348 -279h-716q-349 0 -349 279zM461 1475l256 327h266l256 -327h-260l-129 153l-129 -153h-260zM553 303q0 -57 72 -57h450q72 0 72 57v746q0 57 -72 57h-450q-72 0 -72 -57v-746z" />
    <glyph glyph-name="Otilde" unicode="&#xd5;" horiz-adv-x="1699" 
d="M143 279v794q0 279 349 279h716q348 0 348 -279v-794q0 -279 -348 -279h-716q-349 0 -349 279zM461 1608l133 133q61 61 143 61q83 0 144 -61l41 -41q25 -25 41 -25t41 25l102 102l133 -133l-133 -133q-61 -61 -143 -61q-83 0 -144 61l-41 41q-25 25 -41 25t-41 -25
l-102 -102zM553 303q0 -57 72 -57h450q72 0 72 57v746q0 57 -72 57h-450q-72 0 -72 -57v-746z" />
    <glyph glyph-name="Odieresis" unicode="&#xd6;" horiz-adv-x="1699" 
d="M143 279v794q0 279 349 279h716q348 0 348 -279v-794q0 -279 -348 -279h-716q-349 0 -349 279zM471 1516v245h287v-245h-287zM553 303q0 -57 72 -57h450q72 0 72 57v746q0 57 -72 57h-450q-72 0 -72 -57v-746zM942 1516v245h287v-245h-287z" />
    <glyph glyph-name="multiply" unicode="&#xd7;" horiz-adv-x="1515" 
d="M225 246l338 338l-338 338l195 194l338 -338l338 338l194 -194l-338 -338l338 -338l-194 -195l-338 338l-338 -338z" />
    <glyph glyph-name="Oslash" unicode="&#xd8;" horiz-adv-x="1699" 
d="M143 279v794q0 279 349 279h716q348 0 348 -279v-794q0 -279 -348 -279h-716q-349 0 -349 279zM553 526l514 580h-442q-72 0 -72 -57v-523zM633 246h442q72 0 72 57v522z" />
    <glyph glyph-name="Ugrave" unicode="&#xd9;" horiz-adv-x="1699" 
d="M143 279v1073h410v-1049q0 -57 72 -57h450q72 0 72 57v1049h409v-1073q0 -279 -348 -279h-716q-349 0 -349 279zM492 1802h327l225 -327h-266z" />
    <glyph glyph-name="Uacute" unicode="&#xda;" horiz-adv-x="1699" 
d="M143 279v1073h410v-1049q0 -57 72 -57h450q72 0 72 57v1049h409v-1073q0 -279 -348 -279h-716q-349 0 -349 279zM655 1475l226 327h327l-286 -327h-267z" />
    <glyph glyph-name="Ucircumflex" unicode="&#xdb;" horiz-adv-x="1699" 
d="M143 279v1073h410v-1049q0 -57 72 -57h450q72 0 72 57v1049h409v-1073q0 -279 -348 -279h-716q-349 0 -349 279zM461 1475l256 327h266l256 -327h-260l-129 153l-129 -153h-260z" />
    <glyph glyph-name="Udieresis" unicode="&#xdc;" horiz-adv-x="1699" 
d="M143 279v1073h410v-1049q0 -57 72 -57h450q72 0 72 57v1049h409v-1073q0 -279 -348 -279h-716q-349 0 -349 279zM471 1516v245h287v-245h-287zM942 1516v245h287v-245h-287z" />
    <glyph glyph-name="Yacute" unicode="&#xdd;" horiz-adv-x="1658" 
d="M10 1352h443l376 -523l377 523h443l-615 -850v-502h-409v502zM635 1475l225 327h328l-287 -327h-266z" />
    <glyph glyph-name="Thorn" unicode="&#xde;" horiz-adv-x="1597" 
d="M143 0v1352h410v-215h594q348 0 348 -279v-313q0 -279 -348 -279h-594v-266h-410zM553 512h461q71 0 71 57v265q0 57 -71 57h-461v-379z" />
    <glyph glyph-name="germandbls" unicode="&#xdf;" 
d="M123 0v1106q0 246 307 246h471q307 0 307 -246v-186q0 -143 -102 -203q164 -51 164 -228v-243q0 -246 -307 -246h-308v215h195q51 0 51 41v307q0 41 -51 41h-195v215h133q52 0 52 41v236q0 41 -52 41h-245q-51 0 -51 -41v-1096h-369z" />
    <glyph glyph-name="agrave" unicode="&#xe0;" horiz-adv-x="1331" 
d="M102 246v133q0 246 308 246h430v123q0 40 -52 40h-604v216h717q307 0 307 -246v-758h-798q-308 0 -308 246zM307 1454h328l225 -328h-266zM471 256q0 -41 51 -41h318v195h-318q-51 0 -51 -41v-113z" />
    <glyph glyph-name="aacute" unicode="&#xe1;" horiz-adv-x="1331" 
d="M102 246v133q0 246 308 246h430v123q0 40 -52 40h-604v216h717q307 0 307 -246v-758h-798q-308 0 -308 246zM471 256q0 -41 51 -41h318v195h-318q-51 0 -51 -41v-113zM471 1126l225 328h328l-287 -328h-266z" />
    <glyph glyph-name="acircumflex" unicode="&#xe2;" horiz-adv-x="1331" 
d="M102 246v133q0 246 308 246h430v123q0 40 -52 40h-604v216h717q307 0 307 -246v-758h-798q-308 0 -308 246zM276 1126l256 328h267l256 -328h-260l-129 154l-129 -154h-261zM471 256q0 -41 51 -41h318v195h-318q-51 0 -51 -41v-113z" />
    <glyph glyph-name="atilde" unicode="&#xe3;" horiz-adv-x="1331" 
d="M102 246v133q0 246 308 246h430v123q0 40 -52 40h-604v216h717q307 0 307 -246v-758h-798q-308 0 -308 246zM276 1260l134 133q61 61 143 61t143 -61l41 -41q25 -25 41 -25t41 25l103 102l133 -133l-133 -133q-62 -62 -144 -62q-81 0 -143 62l-41 41q-24 24 -41 24
t-41 -24l-102 -103zM471 256q0 -41 51 -41h318v195h-318q-51 0 -51 -41v-113z" />
    <glyph glyph-name="adieresis" unicode="&#xe4;" horiz-adv-x="1331" 
d="M102 246v133q0 246 308 246h430v123q0 40 -52 40h-604v216h717q307 0 307 -246v-758h-798q-308 0 -308 246zM287 1167v246h286v-246h-286zM471 256q0 -41 51 -41h318v195h-318q-51 0 -51 -41v-113zM758 1167v246h286v-246h-286z" />
    <glyph glyph-name="aring" unicode="&#xe5;" horiz-adv-x="1331" 
d="M102 246v133q0 246 308 246h430v123q0 40 -52 40h-604v216h717q307 0 307 -246v-758h-798q-308 0 -308 246zM358 1274v125q0 147 185 147h245q185 0 185 -147v-125q0 -148 -185 -148h-245q-185 0 -185 148zM471 256q0 -41 51 -41h318v195h-318q-51 0 -51 -41v-113z
M563 1274q0 -25 31 -25h143q31 0 31 25v125q0 24 -31 24h-143q-31 0 -31 -24v-125z" />
    <glyph glyph-name="ae" unicode="&#xe6;" horiz-adv-x="2068" 
d="M102 246v133q0 246 308 246h430v123q0 40 -52 40h-604v216h1454q308 0 308 -246v-348h-738v-154q0 -41 52 -41h645v-215h-1495q-308 0 -308 246zM471 256q0 -41 51 -41h318v195h-318q-51 0 -51 -41v-113zM1208 625h369v123q0 40 -51 40h-266q-52 0 -52 -40v-123z" />
    <glyph glyph-name="ccedilla" unicode="&#xe7;" horiz-adv-x="1249" 
d="M123 246v512q0 246 307 246h737v-216h-624q-51 0 -51 -40v-492q0 -41 51 -41h624v-215h-204v-174q0 -205 -256 -205h-277v154h184q82 0 82 65v160h-266q-307 0 -307 246z" />
    <glyph glyph-name="egrave" unicode="&#xe8;" horiz-adv-x="1351" 
d="M123 246v512q0 246 307 246h492q307 0 307 -246v-348h-737v-154q0 -41 51 -41h645v-215h-758q-307 0 -307 246zM317 1454h328l225 -328h-266zM492 625h368v123q0 40 -51 40h-266q-51 0 -51 -40v-123z" />
    <glyph glyph-name="eacute" unicode="&#xe9;" horiz-adv-x="1351" 
d="M123 246v512q0 246 307 246h492q307 0 307 -246v-348h-737v-154q0 -41 51 -41h645v-215h-758q-307 0 -307 246zM481 1126l226 328h327l-286 -328h-267zM492 625h368v123q0 40 -51 40h-266q-51 0 -51 -40v-123z" />
    <glyph glyph-name="ecircumflex" unicode="&#xea;" horiz-adv-x="1351" 
d="M123 246v512q0 246 307 246h492q307 0 307 -246v-348h-737v-154q0 -41 51 -41h645v-215h-758q-307 0 -307 246zM287 1126l256 328h266l256 -328h-260l-129 154l-129 -154h-260zM492 625h368v123q0 40 -51 40h-266q-51 0 -51 -40v-123z" />
    <glyph glyph-name="edieresis" unicode="&#xeb;" horiz-adv-x="1351" 
d="M123 246v512q0 246 307 246h492q307 0 307 -246v-348h-737v-154q0 -41 51 -41h645v-215h-758q-307 0 -307 246zM297 1167v246h287v-246h-287zM492 625h368v123q0 40 -51 40h-266q-51 0 -51 -40v-123zM768 1167v246h287v-246h-287z" />
    <glyph glyph-name="igrave" unicode="&#xec;" horiz-adv-x="614" 
d="M-41 1454h328l225 -328h-266zM123 0v1004h369v-1004h-369z" />
    <glyph glyph-name="iacute" unicode="&#xed;" horiz-adv-x="614" 
d="M102 1126l226 328h327l-286 -328h-267zM123 0v1004h369v-1004h-369z" />
    <glyph glyph-name="icircumflex" unicode="&#xee;" horiz-adv-x="655" 
d="M-61 1126l256 328h266l256 -328h-260l-129 154l-129 -154h-260zM143 0v1004h369v-1004h-369z" />
    <glyph glyph-name="idieresis" unicode="&#xef;" horiz-adv-x="655" 
d="M-51 1167v246h287v-246h-287zM143 0v1004h369v-1004h-369zM420 1167v246h287v-246h-287z" />
    <glyph glyph-name="eth" unicode="&#xf0;" 
d="M123 246v389q0 246 307 246h414l-70 139l-237 -70l-48 162l207 62l-88 178h365l41 -84l209 61l47 -162l-178 -53l96 -192q48 -96 65 -151.5t17 -135.5v-389q0 -246 -307 -246h-533q-307 0 -307 246zM492 256q0 -41 51 -41h307q51 0 51 41v410h-358q-51 0 -51 -41v-369z
" />
    <glyph glyph-name="ntilde" unicode="&#xf1;" 
d="M123 0v1004h840q307 0 307 -246v-758h-369v748q0 40 -51 40h-358v-788h-369zM307 1260l133 133q61 61 144 61q82 0 143 -61l41 -41q25 -25 41 -25t41 25l102 102l133 -133l-133 -133q-62 -62 -143 -62t-143 62l-41 41q-24 24 -41 24t-41 -24l-103 -103z" />
    <glyph glyph-name="ograve" unicode="&#xf2;" 
d="M123 246v512q0 246 307 246h533q307 0 307 -246v-512q0 -246 -307 -246h-533q-307 0 -307 246zM338 1454h328l225 -328h-266zM492 256q0 -41 51 -41h307q51 0 51 41v492q0 40 -51 40h-307q-51 0 -51 -40v-492z" />
    <glyph glyph-name="oacute" unicode="&#xf3;" 
d="M123 246v512q0 246 307 246h533q307 0 307 -246v-512q0 -246 -307 -246h-533q-307 0 -307 246zM492 256q0 -41 51 -41h307q51 0 51 41v492q0 40 -51 40h-307q-51 0 -51 -40v-492zM502 1126l225 328h328l-287 -328h-266z" />
    <glyph glyph-name="ocircumflex" unicode="&#xf4;" 
d="M123 246v512q0 246 307 246h533q307 0 307 -246v-512q0 -246 -307 -246h-533q-307 0 -307 246zM307 1126l256 328h266l256 -328h-260l-129 154l-129 -154h-260zM492 256q0 -41 51 -41h307q51 0 51 41v492q0 40 -51 40h-307q-51 0 -51 -40v-492z" />
    <glyph glyph-name="otilde" unicode="&#xf5;" 
d="M123 246v512q0 246 307 246h533q307 0 307 -246v-512q0 -246 -307 -246h-533q-307 0 -307 246zM307 1260l133 133q61 61 144 61q82 0 143 -61l41 -41q25 -25 41 -25t41 25l102 102l133 -133l-133 -133q-62 -62 -143 -62t-143 62l-41 41q-24 24 -41 24t-41 -24l-103 -103z
M492 256q0 -41 51 -41h307q51 0 51 41v492q0 40 -51 40h-307q-51 0 -51 -40v-492z" />
    <glyph glyph-name="odieresis" unicode="&#xf6;" 
d="M123 246v512q0 246 307 246h533q307 0 307 -246v-512q0 -246 -307 -246h-533q-307 0 -307 246zM317 1167v246h287v-246h-287zM492 256q0 -41 51 -41h307q51 0 51 41v492q0 40 -51 40h-307q-51 0 -51 -40v-492zM788 1167v246h287v-246h-287z" />
    <glyph glyph-name="divide" unicode="&#xf7;" horiz-adv-x="1515" 
d="M174 461v246h1167v-246h-1167zM594 61v256h328v-256h-328zM594 850v256h328v-256h-328z" />
    <glyph glyph-name="oslash" unicode="&#xf8;" 
d="M123 246v512q0 246 307 246h533q307 0 307 -246v-512q0 -246 -307 -246h-533q-307 0 -307 246zM492 442l356 346h-305q-51 0 -51 -40v-306zM545 215h305q51 0 51 41v305z" />
    <glyph glyph-name="ugrave" unicode="&#xf9;" 
d="M123 246v758h369v-748q0 -41 51 -41h358v789h369v-1004h-840q-307 0 -307 246zM338 1454h328l225 -328h-266z" />
    <glyph glyph-name="uacute" unicode="&#xfa;" 
d="M123 246v758h369v-748q0 -41 51 -41h358v789h369v-1004h-840q-307 0 -307 246zM502 1126l225 328h328l-287 -328h-266z" />
    <glyph glyph-name="ucircumflex" unicode="&#xfb;" 
d="M123 246v758h369v-748q0 -41 51 -41h358v789h369v-1004h-840q-307 0 -307 246zM307 1126l256 328h266l256 -328h-260l-129 154l-129 -154h-260z" />
    <glyph glyph-name="udieresis" unicode="&#xfc;" 
d="M123 246v758h369v-748q0 -41 51 -41h358v789h369v-1004h-840q-307 0 -307 246zM317 1167v246h287v-246h-287zM788 1167v246h287v-246h-287z" />
    <glyph glyph-name="yacute" unicode="&#xfd;" 
d="M20 1004h365l311 -680l312 680h364l-655 -1434h-365l162 354zM502 1126l225 328h328l-287 -328h-266z" />
    <glyph glyph-name="thorn" unicode="&#xfe;" 
d="M123 -430v1782h369v-348h471q307 0 307 -246v-512q0 -246 -307 -246h-471v-430h-369zM492 215h358q51 0 51 41v492q0 40 -51 40h-358v-573z" />
    <glyph glyph-name="ydieresis" unicode="&#xff;" 
d="M20 1004h365l311 -680l312 680h364l-655 -1434h-365l162 354zM317 1167v246h287v-246h-287zM788 1167v246h287v-246h-287z" />
    <glyph glyph-name="Amacron" unicode="&#x100;" horiz-adv-x="1699" 
d="M10 0l584 1352h512l584 -1352h-402l-123 287h-630l-123 -287h-402zM492 1536v195h716v-195h-716zM641 532h418l-209 482z" />
    <glyph glyph-name="amacron" unicode="&#x101;" horiz-adv-x="1331" 
d="M102 246v133q0 246 308 246h430v123q0 40 -52 40h-604v216h717q307 0 307 -246v-758h-798q-308 0 -308 246zM307 1188v194h717v-194h-717zM471 256q0 -41 51 -41h318v195h-318q-51 0 -51 -41v-113z" />
    <glyph glyph-name="Abreve" unicode="&#x102;" horiz-adv-x="1699" 
d="M10 0l584 1352h512l584 -1352h-402l-123 287h-630l-123 -287h-402zM532 1622v180h205v-170q0 -24 31 -24h164q31 0 31 24v170h204v-180q0 -147 -184 -147h-266q-185 0 -185 147zM641 532h418l-209 482z" />
    <glyph glyph-name="abreve" unicode="&#x103;" horiz-adv-x="1331" 
d="M102 246v133q0 246 308 246h430v123q0 40 -52 40h-604v216h717q307 0 307 -246v-758h-798q-308 0 -308 246zM348 1274v180h205v-170q0 -24 31 -24h164q30 0 30 24v170h205v-180q0 -148 -184 -148h-267q-184 0 -184 148zM471 256q0 -41 51 -41h318v195h-318q-51 0 -51 -41
v-113z" />
    <glyph glyph-name="Aogonek" unicode="&#x104;" horiz-adv-x="1699" 
d="M10 0l584 1352h512l584 -1352h-164q-82 0 -82 -66v-94q0 -65 82 -65h164v-154h-256q-256 0 -256 205v174q0 31 16 62.5t45 52.5l-74 172h-630l-123 -287h-402zM641 532h418l-209 482z" />
    <glyph glyph-name="aogonek" unicode="&#x105;" horiz-adv-x="1331" 
d="M102 246v133q0 246 308 246h430v123q0 40 -52 40h-604v216h717q307 0 307 -246v-758h-164q-81 0 -81 -66v-94q0 -65 81 -65h164v-154h-256q-256 0 -256 205v174h-286q-308 0 -308 246zM471 256q0 -41 51 -41h318v195h-318q-51 0 -51 -41v-113z" />
    <glyph glyph-name="Cacute" unicode="&#x106;" horiz-adv-x="1556" 
d="M143 279v794q0 279 349 279h962v-246h-829q-72 0 -72 -57v-746q0 -57 72 -57h829v-246h-962q-349 0 -349 279zM645 1475l225 327h328l-287 -327h-266z" />
    <glyph glyph-name="cacute" unicode="&#x107;" horiz-adv-x="1249" 
d="M123 246v512q0 246 307 246h737v-216h-624q-51 0 -51 -40v-492q0 -41 51 -41h624v-215h-737q-307 0 -307 246zM481 1126l226 328h327l-286 -328h-267z" />
    <glyph glyph-name="Ccircumflex" unicode="&#x108;" horiz-adv-x="1556" 
d="M143 279v794q0 279 349 279h962v-246h-829q-72 0 -72 -57v-746q0 -57 72 -57h829v-246h-962q-349 0 -349 279zM440 1475l256 327h267l256 -327h-261l-129 153l-129 -153h-260z" />
    <glyph glyph-name="ccircumflex" unicode="&#x109;" horiz-adv-x="1249" 
d="M123 246v512q0 246 307 246h737v-216h-624q-51 0 -51 -40v-492q0 -41 51 -41h624v-215h-737q-307 0 -307 246zM276 1126l256 328h267l256 -328h-260l-129 154l-129 -154h-261z" />
    <glyph glyph-name="Cdotaccent" unicode="&#x10a;" horiz-adv-x="1556" 
d="M143 279v794q0 279 349 279h962v-246h-829q-72 0 -72 -57v-746q0 -57 72 -57h829v-246h-962q-349 0 -349 279zM666 1516v245h327v-245h-327z" />
    <glyph glyph-name="cdotaccent" unicode="&#x10b;" horiz-adv-x="1249" 
d="M123 246v512q0 246 307 246h737v-216h-624q-51 0 -51 -40v-492q0 -41 51 -41h624v-215h-737q-307 0 -307 246zM502 1167v246h327v-246h-327z" />
    <glyph glyph-name="Ccaron" unicode="&#x10c;" horiz-adv-x="1556" 
d="M143 279v794q0 279 349 279h962v-246h-829q-72 0 -72 -57v-746q0 -57 72 -57h829v-246h-962q-349 0 -349 279zM440 1802h260l129 -153l129 153h261l-256 -327h-267z" />
    <glyph glyph-name="ccaron" unicode="&#x10d;" horiz-adv-x="1249" 
d="M123 246v512q0 246 307 246h737v-216h-624q-51 0 -51 -40v-492q0 -41 51 -41h624v-215h-737q-307 0 -307 246zM276 1454h261l129 -154l129 154h260l-256 -328h-267z" />
    <glyph glyph-name="Dcaron" unicode="&#x10e;" horiz-adv-x="1679" 
d="M143 0v1352h717q696 0 696 -557v-238q0 -557 -696 -557h-717zM420 1802h260l129 -153l129 153h260l-256 -327h-266zM553 246h225q369 0 369 295v270q0 295 -369 295h-225v-860z" />
    <glyph glyph-name="dcaron" unicode="&#x10f;" horiz-adv-x="1679" 
d="M123 246v512q0 246 307 246h471v348h369v-1352h-840q-307 0 -307 246zM492 256q0 -41 51 -41h358v573h-358q-51 0 -51 -40v-492zM1352 1024l71 328h287l-133 -328h-225z" />
    <glyph glyph-name="Dcroat" unicode="&#x110;" horiz-adv-x="1720" 
d="M20 604v205h164v543h717q696 0 696 -557v-238q0 -557 -696 -557h-717v604h-164zM594 246h225q369 0 369 295v270q0 295 -369 295h-225v-297h307v-205h-307v-358z" />
    <glyph glyph-name="dcroat" unicode="&#x111;" horiz-adv-x="1433" 
d="M123 246v512q0 246 307 246h471v92h-369v164h369v92h369v-92h143v-164h-143v-1096h-840q-307 0 -307 246zM492 256q0 -41 51 -41h358v573h-358q-51 0 -51 -40v-492z" />
    <glyph glyph-name="Emacron" unicode="&#x112;" horiz-adv-x="1556" 
d="M143 0v1352h1311v-246h-901v-277h799v-245h-799v-338h901v-246h-1311zM440 1536v195h717v-195h-717z" />
    <glyph glyph-name="emacron" unicode="&#x113;" horiz-adv-x="1351" 
d="M123 246v512q0 246 307 246h492q307 0 307 -246v-348h-737v-154q0 -41 51 -41h645v-215h-758q-307 0 -307 246zM317 1188v194h717v-194h-717zM492 625h368v123q0 40 -51 40h-266q-51 0 -51 -40v-123z" />
    <glyph glyph-name="Ebreve" unicode="&#x114;" horiz-adv-x="1556" 
d="M143 0v1352h1311v-246h-901v-277h799v-245h-799v-338h901v-246h-1311zM481 1622v180h205v-170q0 -24 31 -24h164q30 0 30 24v170h205v-180q0 -147 -184 -147h-266q-185 0 -185 147z" />
    <glyph glyph-name="ebreve" unicode="&#x115;" horiz-adv-x="1351" 
d="M123 246v512q0 246 307 246h492q307 0 307 -246v-348h-737v-154q0 -41 51 -41h645v-215h-758q-307 0 -307 246zM358 1274v180h205v-170q0 -24 31 -24h164q30 0 30 24v170h205v-180q0 -148 -184 -148h-266q-185 0 -185 148zM492 625h368v123q0 40 -51 40h-266
q-51 0 -51 -40v-123z" />
    <glyph glyph-name="Edotaccent" unicode="&#x116;" horiz-adv-x="1556" 
d="M143 0v1352h1311v-246h-901v-277h799v-245h-799v-338h901v-246h-1311zM635 1516v245h328v-245h-328z" />
    <glyph glyph-name="edotaccent" unicode="&#x117;" horiz-adv-x="1351" 
d="M123 246v512q0 246 307 246h492q307 0 307 -246v-348h-737v-154q0 -41 51 -41h645v-215h-758q-307 0 -307 246zM492 625h368v123q0 40 -51 40h-266q-51 0 -51 -40v-123zM512 1167v246h328v-246h-328z" />
    <glyph glyph-name="Eogonek" unicode="&#x118;" horiz-adv-x="1556" 
d="M143 0v1352h1311v-246h-901v-277h799v-245h-799v-338h901v-246h-164q-82 0 -82 -66v-94q0 -65 82 -65h164v-154h-256q-256 0 -256 205v174h-799z" />
    <glyph glyph-name="eogonek" unicode="&#x119;" horiz-adv-x="1351" 
d="M123 246v512q0 246 307 246h492q307 0 307 -246v-348h-737v-154q0 -41 51 -41h645v-215h-164q-82 0 -82 -66v-94q0 -65 82 -65h164v-154h-256q-256 0 -256 205v174h-246q-307 0 -307 246zM492 625h368v123q0 40 -51 40h-266q-51 0 -51 -40v-123z" />
    <glyph glyph-name="Ecaron" unicode="&#x11a;" horiz-adv-x="1556" 
d="M143 0v1352h1311v-246h-901v-277h799v-245h-799v-338h901v-246h-1311zM410 1802h260l129 -153l129 153h260l-256 -327h-266z" />
    <glyph glyph-name="ecaron" unicode="&#x11b;" horiz-adv-x="1351" 
d="M123 246v512q0 246 307 246h492q307 0 307 -246v-348h-737v-154q0 -41 51 -41h645v-215h-758q-307 0 -307 246zM287 1454h260l129 -154l129 154h260l-256 -328h-266zM492 625h368v123q0 40 -51 40h-266q-51 0 -51 -40v-123z" />
    <glyph glyph-name="Gcircumflex" unicode="&#x11c;" horiz-adv-x="1679" 
d="M143 279v794q0 279 349 279h962v-246h-829q-72 0 -72 -57v-746q0 -57 72 -57h501v348h-266v246h676v-840h-1044q-349 0 -349 279zM451 1475l256 327h266l256 -327h-260l-129 153l-129 -153h-260z" />
    <glyph glyph-name="gcircumflex" unicode="&#x11d;" 
d="M123 246v512q0 246 307 246h840v-1188q0 -246 -307 -246h-799v215h655q82 0 82 65v150h-471q-307 0 -307 246zM307 1126l256 328h266l256 -328h-260l-129 154l-129 -154h-260zM492 256q0 -41 51 -41h358v573h-358q-51 0 -51 -40v-492z" />
    <glyph glyph-name="Gbreve" unicode="&#x11e;" horiz-adv-x="1679" 
d="M143 279v794q0 279 349 279h962v-246h-829q-72 0 -72 -57v-746q0 -57 72 -57h501v348h-266v246h676v-840h-1044q-349 0 -349 279zM522 1622v180h205v-170q0 -24 31 -24h164q30 0 30 24v170h205v-180q0 -147 -184 -147h-266q-185 0 -185 147z" />
    <glyph glyph-name="gbreve" unicode="&#x11f;" 
d="M123 246v512q0 246 307 246h840v-1188q0 -246 -307 -246h-799v215h655q82 0 82 65v150h-471q-307 0 -307 246zM379 1274v180h205v-170q0 -24 30 -24h164q31 0 31 24v170h205v-180q0 -148 -185 -148h-266q-184 0 -184 148zM492 256q0 -41 51 -41h358v573h-358
q-51 0 -51 -40v-492z" />
    <glyph glyph-name="Gdotaccent" unicode="&#x120;" horiz-adv-x="1679" 
d="M143 279v794q0 279 349 279h962v-246h-829q-72 0 -72 -57v-746q0 -57 72 -57h501v348h-266v246h676v-840h-1044q-349 0 -349 279zM676 1516v245h328v-245h-328z" />
    <glyph glyph-name="gdotaccent" unicode="&#x121;" 
d="M123 246v512q0 246 307 246h840v-1188q0 -246 -307 -246h-799v215h655q82 0 82 65v150h-471q-307 0 -307 246zM492 256q0 -41 51 -41h358v573h-358q-51 0 -51 -40v-492zM532 1167v246h328v-246h-328z" />
    <glyph glyph-name="uni0122" unicode="&#x122;" horiz-adv-x="1679" 
d="M143 279v794q0 279 349 279h962v-246h-829q-72 0 -72 -57v-746q0 -57 72 -57h501v348h-266v246h676v-840h-1044q-349 0 -349 279zM696 -430l72 328h287l-133 -328h-226z" />
    <glyph glyph-name="uni0123" unicode="&#x123;" 
d="M123 246v512q0 246 307 246h840v-1188q0 -246 -307 -246h-799v215h655q82 0 82 65v150h-471q-307 0 -307 246zM492 256q0 -41 51 -41h358v573h-358q-51 0 -51 -40v-492zM563 1126l133 328h226l-72 -328h-287z" />
    <glyph glyph-name="Hcircumflex" unicode="&#x124;" horiz-adv-x="1699" 
d="M143 0v1352h410v-523h594v523h409v-1352h-409v584h-594v-584h-410zM461 1475l256 327h266l256 -327h-260l-129 153l-129 -153h-260z" />
    <glyph glyph-name="hcircumflex" unicode="&#x125;" 
d="M123 0v1352h369v-348h471q307 0 307 -246v-758h-369v748q0 40 -51 40h-358v-788h-369zM307 1475l256 327h266l256 -327h-260l-129 153l-129 -153h-260z" />
    <glyph glyph-name="Hbar" unicode="&#x126;" horiz-adv-x="1781" 
d="M20 993v205h164v154h410v-154h594v154h409v-154h164v-205h-164v-993h-409v584h-594v-584h-410v993h-164zM594 829h594v164h-594v-164z" />
    <glyph glyph-name="hbar" unicode="&#x127;" horiz-adv-x="1433" 
d="M20 1096v164h144v92h368v-92h369v-164h-369v-92h472q307 0 307 -246v-758h-369v748q0 40 -51 40h-359v-788h-368v1096h-144z" />
    <glyph glyph-name="Itilde" unicode="&#x128;" horiz-adv-x="696" 
d="M-41 1608l133 133q61 61 144 61q82 0 143 -61l41 -41q25 -25 41 -25t41 25l102 102l133 -133l-133 -133q-61 -61 -143 -61q-83 0 -144 61l-41 41q-25 25 -40 25q-16 0 -41 -25l-103 -102zM143 0v1352h410v-1352h-410z" />
    <glyph glyph-name="itilde" unicode="&#x129;" horiz-adv-x="655" 
d="M-61 1260l133 133q61 61 143 61t143 -61l41 -41q25 -25 41 -25t41 25l103 102l133 -133l-133 -133q-62 -62 -144 -62q-81 0 -143 62l-41 41q-24 24 -41 24t-41 -24l-102 -103zM143 0v1004h369v-1004h-369z" />
    <glyph glyph-name="Imacron" unicode="&#x12a;" horiz-adv-x="696" 
d="M-10 1536v195h717v-195h-717zM143 0v1352h410v-1352h-410z" />
    <glyph glyph-name="imacron" unicode="&#x12b;" horiz-adv-x="655" 
d="M-31 1188v194h717v-194h-717zM143 0v1004h369v-1004h-369z" />
    <glyph glyph-name="Ibreve" unicode="&#x12c;" horiz-adv-x="696" 
d="M31 1622v180h205v-170q0 -24 30 -24h164q31 0 31 24v170h205v-180q0 -147 -185 -147h-266q-184 0 -184 147zM143 0v1352h410v-1352h-410z" />
    <glyph glyph-name="ibreve" unicode="&#x12d;" horiz-adv-x="655" 
d="M10 1274v180h205v-170q0 -24 31 -24h164q30 0 30 24v170h205v-180q0 -148 -184 -148h-266q-185 0 -185 148zM143 0v1004h369v-1004h-369z" />
    <glyph glyph-name="Iogonek" unicode="&#x12e;" horiz-adv-x="696" 
d="M51 0q0 39 25 77t67 56v1219h410v-1352h-154q-82 0 -82 -66v-94q0 -65 82 -65h164v-154h-256q-256 0 -256 205v174z" />
    <glyph glyph-name="iogonek" unicode="&#x12f;" horiz-adv-x="614" 
d="M31 0q0 39 25 77t67 56v871h369v-1004h-113q-82 0 -82 -66v-94q0 -65 82 -65h164v-154h-256q-256 0 -256 205v174zM123 1147v205h369v-205h-369z" />
    <glyph glyph-name="Idotaccent" unicode="&#x130;" horiz-adv-x="696" 
d="M143 0v1352h410v-1352h-410zM184 1516v245h328v-245h-328z" />
    <glyph glyph-name="dotlessi" unicode="&#x131;" horiz-adv-x="614" 
d="M123 0v1004h369v-1004h-369z" />
    <glyph glyph-name="IJ" unicode="&#x132;" horiz-adv-x="2232" 
d="M143 0v1352h410v-1352h-410zM778 328v276h410v-244q0 -114 143 -114h277q71 0 71 57v1049h410v-1073q0 -279 -348 -279h-553q-410 0 -410 328z" />
    <glyph glyph-name="ij" unicode="&#x133;" horiz-adv-x="1228" 
d="M123 0v1004h369v-1004h-369zM123 1147v205h369v-205h-369zM512 -215h143q82 0 82 65v1154h369v-1188q0 -246 -307 -246h-287v215zM737 1147v205h369v-205h-369z" />
    <glyph glyph-name="Jcircumflex" unicode="&#x134;" horiz-adv-x="1536" 
d="M82 328v276h410v-244q0 -114 143 -114h276q72 0 72 57v1049h410v-1073q0 -279 -349 -279h-552q-410 0 -410 328zM799 1475l256 327h266l256 -327h-260l-129 153l-129 -153h-260z" />
    <glyph glyph-name="jcircumflex" unicode="&#x135;" horiz-adv-x="655" 
d="M-82 -215h143q82 0 82 65v1154h369v-1188q0 -246 -307 -246h-287v215zM-61 1126l256 328h266l256 -328h-260l-129 154l-129 -154h-260z" />
    <glyph glyph-name="uni0136" unicode="&#x136;" horiz-adv-x="1638" 
d="M143 0v1352h410v-523l543 523h501l-579 -559l600 -793h-459l-407 539l-199 -193v-346h-410zM625 -430l71 328h287l-133 -328h-225z" />
    <glyph glyph-name="uni0137" unicode="&#x137;" horiz-adv-x="1351" 
d="M123 0v1352h369v-717l378 369h441l-432 -420l452 -584h-399l-281 362l-159 -155v-207h-369zM481 -430l72 328h287l-133 -328h-226z" />
    <glyph glyph-name="kgreenlandic" unicode="&#x138;" horiz-adv-x="1351" 
d="M123 0v1004h369v-369l378 369h441l-432 -420l452 -584h-399l-281 362l-159 -155v-207h-369z" />
    <glyph glyph-name="Lacute" unicode="&#x139;" horiz-adv-x="1433" 
d="M143 0v1352h410v-1106h840v-246h-1250zM164 1475l225 327h328l-287 -327h-266z" />
    <glyph glyph-name="lacute" unicode="&#x13a;" horiz-adv-x="614" 
d="M102 1475l226 327h327l-286 -327h-267zM123 0v1352h369v-1352h-369z" />
    <glyph glyph-name="uni013B" unicode="&#x13b;" horiz-adv-x="1433" 
d="M143 0v1352h410v-1106h840v-246h-1250zM635 -430l72 328h286l-133 -328h-225z" />
    <glyph glyph-name="uni013C" unicode="&#x13c;" horiz-adv-x="614" 
d="M92 -430l72 328h287l-134 -328h-225zM123 0v1352h369v-1352h-369z" />
    <glyph glyph-name="Lcaron" unicode="&#x13d;" horiz-adv-x="1433" 
d="M143 0v1352h410v-1106h840v-246h-1250zM758 1024l71 328h287l-133 -328h-225z" />
    <glyph glyph-name="lcaron" unicode="&#x13e;" horiz-adv-x="901" 
d="M123 0v1352h369v-1352h-369zM573 1024l72 328h287l-133 -328h-226z" />
    <glyph glyph-name="Ldot" unicode="&#x13f;" horiz-adv-x="1433" 
d="M143 0v1352h410v-1106h840v-246h-1250zM850 614v246h328v-246h-328z" />
    <glyph glyph-name="ldot" unicode="&#x140;" horiz-adv-x="1064" 
d="M123 0v1352h369v-1352h-369zM676 625v245h328v-245h-328z" />
    <glyph glyph-name="Lslash" unicode="&#x141;" horiz-adv-x="1556" 
d="M0 549l225 113v690h410v-486l293 146l96 -193l-389 -194v-379h881v-246h-1291v422l-129 -66z" />
    <glyph glyph-name="lslash" unicode="&#x142;" horiz-adv-x="819" 
d="M0 594l225 111v647h369v-469l145 71l80 -166l-225 -110v-678h-369v498l-145 -70z" />
    <glyph glyph-name="Nacute" unicode="&#x143;" horiz-adv-x="1720" 
d="M143 0v1352h441l583 -811v811h410v-1352h-440l-584 811v-811h-410zM666 1475l225 327h328l-287 -327h-266z" />
    <glyph glyph-name="nacute" unicode="&#x144;" 
d="M123 0v1004h840q307 0 307 -246v-758h-369v748q0 40 -51 40h-358v-788h-369zM502 1126l225 328h328l-287 -328h-266z" />
    <glyph glyph-name="uni0145" unicode="&#x145;" horiz-adv-x="1720" 
d="M143 0v1352h441l583 -811v811h410v-1352h-440l-584 811v-811h-410zM686 -430l72 328h286l-133 -328h-225z" />
    <glyph glyph-name="uni0146" unicode="&#x146;" 
d="M123 0v1004h840q307 0 307 -246v-758h-369v748q0 40 -51 40h-358v-788h-369zM512 -430l72 328h286l-133 -328h-225z" />
    <glyph glyph-name="Ncaron" unicode="&#x147;" horiz-adv-x="1720" 
d="M143 0v1352h441l583 -811v811h410v-1352h-440l-584 811v-811h-410zM471 1802h260l129 -153l129 153h260l-256 -327h-266z" />
    <glyph glyph-name="ncaron" unicode="&#x148;" 
d="M123 0v1004h840q307 0 307 -246v-758h-369v748q0 40 -51 40h-358v-788h-369zM307 1454h260l129 -154l129 154h260l-256 -328h-266z" />
    <glyph glyph-name="Eng" unicode="&#x14a;" horiz-adv-x="1699" 
d="M143 0v1352h1065q348 0 348 -279v-1225q0 -278 -348 -278h-389v246h225q103 0 103 82v1151q0 57 -72 57h-522v-1106h-410z" />
    <glyph glyph-name="eng" unicode="&#x14b;" 
d="M123 0v1004h840q307 0 307 -246v-942q0 -246 -307 -246h-308v215h164q82 0 82 65v898q0 40 -51 40h-358v-788h-369z" />
    <glyph glyph-name="Omacron" unicode="&#x14c;" horiz-adv-x="1699" 
d="M143 279v794q0 279 349 279h716q348 0 348 -279v-794q0 -279 -348 -279h-716q-349 0 -349 279zM492 1536v195h716v-195h-716zM553 303q0 -57 72 -57h450q72 0 72 57v746q0 57 -72 57h-450q-72 0 -72 -57v-746z" />
    <glyph glyph-name="omacron" unicode="&#x14d;" 
d="M123 246v512q0 246 307 246h533q307 0 307 -246v-512q0 -246 -307 -246h-533q-307 0 -307 246zM338 1188v194h717v-194h-717zM492 256q0 -41 51 -41h307q51 0 51 41v492q0 40 -51 40h-307q-51 0 -51 -40v-492z" />
    <glyph glyph-name="Obreve" unicode="&#x14e;" horiz-adv-x="1699" 
d="M143 279v794q0 279 349 279h716q348 0 348 -279v-794q0 -279 -348 -279h-716q-349 0 -349 279zM532 1622v180h205v-170q0 -24 31 -24h164q31 0 31 24v170h204v-180q0 -147 -184 -147h-266q-185 0 -185 147zM553 303q0 -57 72 -57h450q72 0 72 57v746q0 57 -72 57h-450
q-72 0 -72 -57v-746z" />
    <glyph glyph-name="obreve" unicode="&#x14f;" 
d="M123 246v512q0 246 307 246h533q307 0 307 -246v-512q0 -246 -307 -246h-533q-307 0 -307 246zM379 1274v180h205v-170q0 -24 30 -24h164q31 0 31 24v170h205v-180q0 -148 -185 -148h-266q-184 0 -184 148zM492 256q0 -41 51 -41h307q51 0 51 41v492q0 40 -51 40h-307
q-51 0 -51 -40v-492z" />
    <glyph glyph-name="Ohungarumlaut" unicode="&#x150;" horiz-adv-x="1699" 
d="M143 279v794q0 279 349 279h716q348 0 348 -279v-794q0 -279 -348 -279h-716q-349 0 -349 279zM481 1475l205 327h297l-266 -327h-236zM553 303q0 -57 72 -57h450q72 0 72 57v746q0 57 -72 57h-450q-72 0 -72 -57v-746zM901 1475l205 327h297l-266 -327h-236z" />
    <glyph glyph-name="ohungarumlaut" unicode="&#x151;" 
d="M123 246v512q0 246 307 246h533q307 0 307 -246v-512q0 -246 -307 -246h-533q-307 0 -307 246zM328 1126l204 328h297l-266 -328h-235zM492 256q0 -41 51 -41h307q51 0 51 41v492q0 40 -51 40h-307q-51 0 -51 -40v-492zM748 1126l204 328h297l-266 -328h-235z" />
    <glyph glyph-name="OE" unicode="&#x152;" horiz-adv-x="2437" 
d="M143 279v794q0 279 349 279h1843v-246h-819v-277h716v-245h-716v-338h819v-246h-1843q-349 0 -349 279zM553 303q0 -57 72 -57h481v860h-481q-72 0 -72 -57v-746z" />
    <glyph glyph-name="oe" unicode="&#x153;" horiz-adv-x="2088" 
d="M123 246v512q0 246 307 246h1229q307 0 307 -246v-348h-737v-154q0 -41 51 -41h645v-215h-1495q-307 0 -307 246zM492 256q0 -41 51 -41h266q51 0 51 41v492q0 40 -51 40h-266q-51 0 -51 -40v-492zM1229 625h368v123q0 40 -51 40h-266q-51 0 -51 -40v-123z" />
    <glyph glyph-name="Racute" unicode="&#x154;" horiz-adv-x="1617" 
d="M143 0v1352h1004q348 0 348 -279v-282q0 -125 -69 -193.5t-207 -85.5l337 -512h-442l-338 512h-223v-512h-410zM553 758h461q71 0 71 57v234q0 57 -71 57h-461v-348zM625 1475l225 327h328l-287 -327h-266z" />
    <glyph glyph-name="racute" unicode="&#x155;" horiz-adv-x="901" 
d="M123 0v758q0 246 307 246h410v-216h-297q-51 0 -51 -40v-748h-369zM287 1126l225 328h328l-287 -328h-266z" />
    <glyph glyph-name="uni0156" unicode="&#x156;" horiz-adv-x="1617" 
d="M143 0v1352h1004q348 0 348 -279v-282q0 -125 -69 -193.5t-207 -85.5l337 -512h-442l-338 512h-223v-512h-410zM553 758h461q71 0 71 57v234q0 57 -71 57h-461v-348zM614 -430l72 328h287l-133 -328h-226z" />
    <glyph glyph-name="uni0157" unicode="&#x157;" horiz-adv-x="901" 
d="M92 -430l72 328h287l-134 -328h-225zM123 0v758q0 246 307 246h410v-216h-297q-51 0 -51 -40v-748h-369z" />
    <glyph glyph-name="Rcaron" unicode="&#x158;" horiz-adv-x="1617" 
d="M143 0v1352h1004q348 0 348 -279v-282q0 -125 -69 -193.5t-207 -85.5l337 -512h-442l-338 512h-223v-512h-410zM430 1802h260l129 -153l129 153h260l-256 -327h-266zM553 758h461q71 0 71 57v234q0 57 -71 57h-461v-348z" />
    <glyph glyph-name="rcaron" unicode="&#x159;" horiz-adv-x="901" 
d="M92 1454h260l129 -154l129 154h260l-256 -328h-266zM123 0v758q0 246 307 246h410v-216h-297q-51 0 -51 -40v-748h-369z" />
    <glyph glyph-name="Sacute" unicode="&#x15a;" horiz-adv-x="1597" 
d="M123 0v246h870q72 0 72 57v223q0 58 -72 58h-522q-348 0 -348 278v211q0 279 348 279h901v-246h-768q-72 0 -72 -57v-162q0 -58 72 -58h522q349 0 349 -278v-272q0 -279 -349 -279h-1003zM604 1475l225 327h328l-287 -327h-266z" />
    <glyph glyph-name="sacute" unicode="&#x15b;" horiz-adv-x="1249" 
d="M102 0v215h625q51 0 51 41v113q0 41 -51 41h-317q-308 0 -308 245v103q0 246 308 246h655v-216h-543q-51 0 -51 -40v-82q0 -41 51 -41h318q307 0 307 -246v-133q0 -246 -307 -246h-738zM430 1126l225 328h328l-287 -328h-266z" />
    <glyph glyph-name="Scircumflex" unicode="&#x15c;" horiz-adv-x="1597" 
d="M123 0v246h870q72 0 72 57v223q0 58 -72 58h-522q-348 0 -348 278v211q0 279 348 279h901v-246h-768q-72 0 -72 -57v-162q0 -58 72 -58h522q349 0 349 -278v-272q0 -279 -349 -279h-1003zM410 1475l256 327h266l256 -327h-260l-129 153l-129 -153h-260z" />
    <glyph glyph-name="scircumflex" unicode="&#x15d;" horiz-adv-x="1249" 
d="M102 0v215h625q51 0 51 41v113q0 41 -51 41h-317q-308 0 -308 245v103q0 246 308 246h655v-216h-543q-51 0 -51 -40v-82q0 -41 51 -41h318q307 0 307 -246v-133q0 -246 -307 -246h-738zM236 1126l256 328h266l256 -328h-260l-129 154l-129 -154h-260z" />
    <glyph glyph-name="Scedilla" unicode="&#x15e;" horiz-adv-x="1597" 
d="M123 0v246h870q72 0 72 57v223q0 58 -72 58h-522q-348 0 -348 278v211q0 279 348 279h901v-246h-768q-72 0 -72 -57v-162q0 -58 72 -58h522q349 0 349 -278v-272q0 -279 -349 -279h-51v-174q0 -205 -256 -205h-276v154h184q82 0 82 65v160h-686z" />
    <glyph glyph-name="scedilla" unicode="&#x15f;" horiz-adv-x="1249" 
d="M102 0v215h625q51 0 51 41v113q0 41 -51 41h-317q-308 0 -308 245v103q0 246 308 246h655v-216h-543q-51 0 -51 -40v-82q0 -41 51 -41h318q307 0 307 -246v-133q0 -242 -297 -246v-174q0 -205 -256 -205h-277v154h185q82 0 82 65v160h-482z" />
    <glyph glyph-name="Scaron" unicode="&#x160;" horiz-adv-x="1597" 
d="M123 0v246h870q72 0 72 57v223q0 58 -72 58h-522q-348 0 -348 278v211q0 279 348 279h901v-246h-768q-72 0 -72 -57v-162q0 -58 72 -58h522q349 0 349 -278v-272q0 -279 -349 -279h-1003zM410 1802h260l129 -153l129 153h260l-256 -327h-266z" />
    <glyph glyph-name="scaron" unicode="&#x161;" horiz-adv-x="1249" 
d="M102 0v215h625q51 0 51 41v113q0 41 -51 41h-317q-308 0 -308 245v103q0 246 308 246h655v-216h-543q-51 0 -51 -40v-82q0 -41 51 -41h318q307 0 307 -246v-133q0 -246 -307 -246h-738zM236 1454h260l129 -154l129 154h260l-256 -328h-266z" />
    <glyph glyph-name="uni0162" unicode="&#x162;" horiz-adv-x="1597" 
d="M41 1106v246h1515v-246h-552v-1280q0 -205 -256 -205h-277v154h184q82 0 82 65v160h-143v1106h-553z" />
    <glyph glyph-name="uni0163" unicode="&#x163;" horiz-adv-x="921" 
d="M123 246v1106h369v-348h348v-216h-348v-532q0 -41 51 -41h297v-215h-103v-174q0 -205 -256 -205h-276v154h184q82 0 82 65v160h-41q-307 0 -307 246z" />
    <glyph glyph-name="Tcaron" unicode="&#x164;" horiz-adv-x="1597" 
d="M41 1106v246h1515v-246h-552v-1106h-410v1106h-553zM410 1802h260l129 -153l129 153h260l-256 -327h-266z" />
    <glyph glyph-name="tcaron" unicode="&#x165;" horiz-adv-x="921" 
d="M123 246v1106h369v-348h348v-216h-348v-532q0 -41 51 -41h297v-215h-410q-307 0 -307 246zM625 1188l71 328h287l-133 -328h-225z" />
    <glyph glyph-name="Tbar" unicode="&#x166;" horiz-adv-x="1597" 
d="M41 1106v246h1515v-246h-552v-297h307v-205h-307v-604h-410v604h-307v205h307v297h-553z" />
    <glyph glyph-name="tbar" unicode="&#x167;" horiz-adv-x="962" 
d="M20 440v164h144v748h368v-348h349v-216h-349v-184h328v-164h-328v-184q0 -41 52 -41h297v-215h-410q-307 0 -307 246v194h-144z" />
    <glyph glyph-name="Utilde" unicode="&#x168;" horiz-adv-x="1699" 
d="M143 279v1073h410v-1049q0 -57 72 -57h450q72 0 72 57v1049h409v-1073q0 -279 -348 -279h-716q-349 0 -349 279zM461 1608l133 133q61 61 143 61q83 0 144 -61l41 -41q25 -25 41 -25t41 25l102 102l133 -133l-133 -133q-61 -61 -143 -61q-83 0 -144 61l-41 41
q-25 25 -41 25t-41 -25l-102 -102z" />
    <glyph glyph-name="utilde" unicode="&#x169;" 
d="M123 246v758h369v-748q0 -41 51 -41h358v789h369v-1004h-840q-307 0 -307 246zM307 1260l133 133q61 61 144 61q82 0 143 -61l41 -41q25 -25 41 -25t41 25l102 102l133 -133l-133 -133q-62 -62 -143 -62t-143 62l-41 41q-24 24 -41 24t-41 -24l-103 -103z" />
    <glyph glyph-name="Umacron" unicode="&#x16a;" horiz-adv-x="1699" 
d="M143 279v1073h410v-1049q0 -57 72 -57h450q72 0 72 57v1049h409v-1073q0 -279 -348 -279h-716q-349 0 -349 279zM492 1536v195h716v-195h-716z" />
    <glyph glyph-name="umacron" unicode="&#x16b;" 
d="M123 246v758h369v-748q0 -41 51 -41h358v789h369v-1004h-840q-307 0 -307 246zM338 1188v194h717v-194h-717z" />
    <glyph glyph-name="Ubreve" unicode="&#x16c;" horiz-adv-x="1699" 
d="M143 279v1073h410v-1049q0 -57 72 -57h450q72 0 72 57v1049h409v-1073q0 -279 -348 -279h-716q-349 0 -349 279zM532 1622v180h205v-170q0 -24 31 -24h164q31 0 31 24v170h204v-180q0 -147 -184 -147h-266q-185 0 -185 147z" />
    <glyph glyph-name="ubreve" unicode="&#x16d;" 
d="M123 246v758h369v-748q0 -41 51 -41h358v789h369v-1004h-840q-307 0 -307 246zM379 1274v180h205v-170q0 -24 30 -24h164q31 0 31 24v170h205v-180q0 -148 -185 -148h-266q-184 0 -184 148z" />
    <glyph glyph-name="Uring" unicode="&#x16e;" horiz-adv-x="1699" 
d="M143 279v1073h410v-1049q0 -57 72 -57h450q72 0 72 57v1049h409v-1073q0 -279 -348 -279h-716q-349 0 -349 279zM543 1550v125q0 148 184 148h246q184 0 184 -148v-125q0 -147 -184 -147h-246q-184 0 -184 147zM748 1550q0 -24 30 -24h144q30 0 30 24v125q0 25 -30 25
h-144q-30 0 -30 -25v-125z" />
    <glyph glyph-name="uring" unicode="&#x16f;" 
d="M123 246v758h369v-748q0 -41 51 -41h358v789h369v-1004h-840q-307 0 -307 246zM389 1274v125q0 147 184 147h246q185 0 185 -147v-125q0 -148 -185 -148h-246q-184 0 -184 148zM594 1274q0 -25 31 -25h143q31 0 31 25v125q0 24 -31 24h-143q-31 0 -31 -24v-125z" />
    <glyph glyph-name="Uhungarumlaut" unicode="&#x170;" horiz-adv-x="1699" 
d="M143 279v1073h410v-1049q0 -57 72 -57h450q72 0 72 57v1049h409v-1073q0 -279 -348 -279h-716q-349 0 -349 279zM481 1475l205 327h297l-266 -327h-236zM901 1475l205 327h297l-266 -327h-236z" />
    <glyph glyph-name="uhungarumlaut" unicode="&#x171;" 
d="M123 246v758h369v-748q0 -41 51 -41h358v789h369v-1004h-840q-307 0 -307 246zM328 1126l204 328h297l-266 -328h-235zM748 1126l204 328h297l-266 -328h-235z" />
    <glyph glyph-name="Uogonek" unicode="&#x172;" horiz-adv-x="1699" 
d="M143 279v1073h410v-1049q0 -57 72 -57h450q72 0 72 57v1049h409v-1073q0 -279 -348 -279h-20q-82 0 -82 -66v-94q0 -65 82 -65h164v-154h-256q-256 0 -256 205v174h-348q-349 0 -349 279z" />
    <glyph glyph-name="uogonek" unicode="&#x173;" 
d="M123 246v758h369v-748q0 -41 51 -41h358v789h369v-1004h-164q-82 0 -82 -66v-94q0 -65 82 -65h164v-154h-256q-256 0 -256 205v174h-328q-307 0 -307 246z" />
    <glyph glyph-name="Wcircumflex" unicode="&#x174;" horiz-adv-x="2457" 
d="M31 1352h399l268 -953l316 953h430l315 -953l269 953h399l-379 -1352h-522l-297 895l-297 -895h-522zM840 1475l256 327h266l256 -327h-260l-129 153l-129 -153h-260z" />
    <glyph glyph-name="wcircumflex" unicode="&#x175;" horiz-adv-x="1904" 
d="M20 1004h349l206 -656l207 656h340l207 -656l207 656h348l-317 -1004h-420l-195 616l-194 -616h-420zM563 1126l256 328h266l256 -328h-260l-129 154l-129 -154h-260z" />
    <glyph glyph-name="Ycircumflex" unicode="&#x176;" horiz-adv-x="1658" 
d="M10 1352h443l376 -523l377 523h443l-615 -850v-502h-409v502zM440 1475l256 327h267l256 -327h-261l-129 153l-129 -153h-260z" />
    <glyph glyph-name="ycircumflex" unicode="&#x177;" 
d="M20 1004h365l311 -680l312 680h364l-655 -1434h-365l162 354zM307 1126l256 328h266l256 -328h-260l-129 154l-129 -154h-260z" />
    <glyph glyph-name="Ydieresis" unicode="&#x178;" horiz-adv-x="1658" 
d="M10 1352h443l376 -523l377 523h443l-615 -850v-502h-409v502zM451 1516v245h286v-245h-286zM922 1516v245h286v-245h-286z" />
    <glyph glyph-name="Zacute" unicode="&#x179;" horiz-adv-x="1536" 
d="M82 0v246l850 860h-830v246h1332v-246l-850 -860h870v-246h-1372zM573 1475l226 327h327l-286 -327h-267z" />
    <glyph glyph-name="zacute" unicode="&#x17a;" horiz-adv-x="1269" 
d="M82 0v215l620 573h-600v216h1065v-216l-620 -573h641v-215h-1106zM440 1126l226 328h327l-286 -328h-267z" />
    <glyph glyph-name="Zdotaccent" unicode="&#x17b;" horiz-adv-x="1536" 
d="M82 0v246l850 860h-830v246h1332v-246l-850 -860h870v-246h-1372zM604 1516v245h328v-245h-328z" />
    <glyph glyph-name="zdotaccent" unicode="&#x17c;" horiz-adv-x="1269" 
d="M82 0v215l620 573h-600v216h1065v-216l-620 -573h641v-215h-1106zM471 1167v246h328v-246h-328z" />
    <glyph glyph-name="Zcaron" unicode="&#x17d;" horiz-adv-x="1536" 
d="M82 0v246l850 860h-830v246h1332v-246l-850 -860h870v-246h-1372zM379 1802h260l129 -153l129 153h260l-256 -327h-266z" />
    <glyph glyph-name="zcaron" unicode="&#x17e;" horiz-adv-x="1269" 
d="M82 0v215l620 573h-600v216h1065v-216l-620 -573h641v-215h-1106zM246 1454h260l129 -154l129 154h260l-256 -328h-266z" />
    <glyph glyph-name="florin" unicode="&#x192;" horiz-adv-x="1515" 
d="M195 -215h256q51 0 51 41v1280q0 246 307 246h410v-215h-297q-52 0 -52 -41v-92h349v-216h-349v-972q0 -246 -307 -246h-368v215z" />
    <glyph glyph-name="Aringacute" unicode="&#x1fa;" horiz-adv-x="1699" 
d="M10 0l584 1352h512l584 -1352h-402l-123 287h-630l-123 -287h-402zM543 1550v125q0 148 184 148h246q184 0 184 -148v-125q0 -147 -184 -147h-246q-184 0 -184 147zM641 532h418l-209 482zM748 1550q0 -24 30 -24h144q30 0 30 24v125q0 25 -30 25h-144q-30 0 -30 -25
v-125zM1198 1495l225 328h328l-287 -328h-266z" />
    <glyph glyph-name="aringacute" unicode="&#x1fb;" horiz-adv-x="1331" 
d="M102 246v133q0 246 308 246h430v123q0 40 -52 40h-604v216h717q307 0 307 -246v-758h-798q-308 0 -308 246zM358 1274v125q0 127 136 145l192 279h328l-242 -277h16q185 0 185 -147v-125q0 -148 -185 -148h-245q-185 0 -185 148zM471 256q0 -41 51 -41h318v195h-318
q-51 0 -51 -41v-113zM563 1274q0 -25 31 -25h143q31 0 31 25v125q0 24 -31 24h-143q-31 0 -31 -24v-125z" />
    <glyph glyph-name="AEacute" unicode="&#x1fc;" horiz-adv-x="2355" 
d="M10 0l584 1352h1659v-246h-819v-277h716v-245h-716v-338h819v-246h-1229v287h-489l-123 -287h-402zM641 532h383v574h-135zM1055 1475l225 327h328l-287 -327h-266z" />
    <glyph glyph-name="aeacute" unicode="&#x1fd;" horiz-adv-x="2068" 
d="M102 246v133q0 246 308 246h430v123q0 40 -52 40h-604v216h1454q308 0 308 -246v-348h-738v-154q0 -41 52 -41h645v-215h-1495q-308 0 -308 246zM471 256q0 -41 51 -41h318v195h-318q-51 0 -51 -41v-113zM829 1126l226 328h327l-286 -328h-267zM1208 625h369v123
q0 40 -51 40h-266q-52 0 -52 -40v-123z" />
    <glyph glyph-name="Oslashacute" unicode="&#x1fe;" horiz-adv-x="1699" 
d="M143 279v794q0 279 349 279h716q348 0 348 -279v-794q0 -279 -348 -279h-716q-349 0 -349 279zM553 526l514 580h-442q-72 0 -72 -57v-523zM633 246h442q72 0 72 57v522zM655 1475l226 327h327l-286 -327h-267z" />
    <glyph glyph-name="oslashacute" unicode="&#x1ff;" 
d="M123 246v512q0 246 307 246h533q307 0 307 -246v-512q0 -246 -307 -246h-533q-307 0 -307 246zM492 442l356 346h-305q-51 0 -51 -40v-306zM502 1126l225 328h328l-287 -328h-266zM545 215h305q51 0 51 41v305z" />
    <glyph glyph-name="uni0218" unicode="&#x218;" horiz-adv-x="1597" 
d="M123 0v246h870q72 0 72 57v223q0 58 -72 58h-522q-348 0 -348 278v211q0 279 348 279h901v-246h-768q-72 0 -72 -57v-162q0 -58 72 -58h522q349 0 349 -278v-272q0 -279 -349 -279h-1003zM625 -430l71 328h287l-133 -328h-225z" />
    <glyph glyph-name="uni0219" unicode="&#x219;" horiz-adv-x="1249" 
d="M102 0v215h625q51 0 51 41v113q0 41 -51 41h-317q-308 0 -308 245v103q0 246 308 246h655v-216h-543q-51 0 -51 -40v-82q0 -41 51 -41h318q307 0 307 -246v-133q0 -246 -307 -246h-738zM440 -430l72 328h287l-133 -328h-226z" />
    <glyph glyph-name="uni021A" unicode="&#x21a;" horiz-adv-x="1597" 
d="M41 1106v246h1515v-246h-552v-1106h-410v1106h-553zM584 -430l71 328h287l-133 -328h-225z" />
    <glyph glyph-name="uni021B" unicode="&#x21b;" horiz-adv-x="921" 
d="M123 246v1106h369v-348h348v-216h-348v-532q0 -41 51 -41h297v-215h-410q-307 0 -307 246zM307 -430l72 328h287l-134 -328h-225z" />
    <glyph glyph-name="uni0237" unicode="&#x237;" horiz-adv-x="614" 
d="M-102 -215h143q82 0 82 65v1154h369v-1188q0 -246 -308 -246h-286v215z" />
    <glyph glyph-name="circumflex" unicode="&#x2c6;" horiz-adv-x="1024" 
d="M123 1126l256 328h266l256 -328h-260l-129 154l-129 -154h-260z" />
    <glyph glyph-name="caron" unicode="&#x2c7;" horiz-adv-x="1024" 
d="M123 1454h260l129 -154l129 154h260l-256 -328h-266z" />
    <glyph glyph-name="uni02C9" unicode="&#x2c9;" horiz-adv-x="1024" 
d="M154 1188v194h716v-194h-716z" />
    <glyph glyph-name="breve" unicode="&#x2d8;" horiz-adv-x="1024" 
d="M195 1274v180h204v-170q0 -24 31 -24h164q31 0 31 24v170h204v-180q0 -148 -184 -148h-266q-184 0 -184 148z" />
    <glyph glyph-name="dotaccent" unicode="&#x2d9;" horiz-adv-x="1024" 
d="M348 1167v246h328v-246h-328z" />
    <glyph glyph-name="ring" unicode="&#x2da;" horiz-adv-x="1024" 
d="M205 1274v125q0 147 184 147h246q184 0 184 -147v-125q0 -148 -184 -148h-246q-184 0 -184 148zM410 1274q0 -25 30 -25h144q30 0 30 25v125q0 24 -30 24h-144q-30 0 -30 -24v-125z" />
    <glyph glyph-name="ogonek" unicode="&#x2db;" horiz-adv-x="1024" 
d="M256 0q0 39 25 77t67 56l256 -133q-82 0 -82 -66v-94q0 -65 82 -65h164v-154h-256q-256 0 -256 205v174z" />
    <glyph glyph-name="tilde" unicode="&#x2dc;" horiz-adv-x="1024" 
d="M123 1260l133 133q61 61 143 61q83 0 144 -61l41 -41q25 -25 41 -25t41 25l102 102l133 -133l-133 -133q-62 -62 -143 -62q-82 0 -144 62l-41 41q-24 24 -41 24t-41 -24l-102 -103z" />
    <glyph glyph-name="hungarumlaut" unicode="&#x2dd;" horiz-adv-x="1024" 
d="M143 1126l205 328h297l-266 -328h-236zM563 1126l205 328h297l-266 -328h-236z" />
    <glyph glyph-name="uni037A" unicode="&#x37a;" horiz-adv-x="1024" 
d="M389 -102h246v-328h-246v328z" />
    <glyph glyph-name="uni037E" unicode="&#x37e;" horiz-adv-x="696" 
d="M20 -266l144 573h368l-235 -573h-277zM154 696v308h389v-308h-389z" />
    <glyph glyph-name="tonos" unicode="&#x384;" horiz-adv-x="1024" 
d="M317 1126l226 328h327l-286 -328h-267z" />
    <glyph glyph-name="dieresistonos" unicode="&#x385;" horiz-adv-x="1024" 
d="M133 1167v246h287v-246h-287zM328 1495l225 328h328l-287 -328h-266zM604 1167v246h287v-246h-287z" />
    <glyph glyph-name="Alphatonos" unicode="&#x386;" horiz-adv-x="1740" 
d="M-20 1024l225 328h327l-286 -328h-266zM51 0l584 1352h512l584 -1352h-402l-123 287h-631l-122 -287h-402zM682 532h418l-209 482z" />
    <glyph glyph-name="anoteleia" unicode="&#x387;" horiz-adv-x="696" 
d="M154 696v308h389v-308h-389z" />
    <glyph glyph-name="Epsilontonos" unicode="&#x388;" horiz-adv-x="1986" 
d="M-41 1024l225 328h328l-287 -328h-266zM573 0v1352h1311v-246h-901v-277h799v-245h-799v-338h901v-246h-1311z" />
    <glyph glyph-name="Etatonos" unicode="&#x389;" horiz-adv-x="2129" 
d="M-41 1024l225 328h328l-287 -328h-266zM573 0v1352h410v-523h594v523h410v-1352h-410v584h-594v-584h-410z" />
    <glyph glyph-name="Iotatonos" unicode="&#x38a;" horiz-adv-x="1126" 
d="M-41 1024l225 328h328l-287 -328h-266zM573 0v1352h410v-1352h-410z" />
    <glyph glyph-name="Omicrontonos" unicode="&#x38c;" horiz-adv-x="2068" 
d="M-41 1024l225 328h328l-287 -328h-266zM512 279v794q0 279 348 279h717q348 0 348 -279v-794q0 -279 -348 -279h-717q-348 0 -348 279zM922 303q0 -57 71 -57h451q72 0 72 57v746q0 57 -72 57h-451q-71 0 -71 -57v-746z" />
    <glyph glyph-name="Upsilontonos" unicode="&#x38e;" horiz-adv-x="2191" 
d="M-41 1024l225 328h328l-287 -328h-266zM543 1352h442l377 -523l377 523h442l-614 -850v-502h-410v502z" />
    <glyph glyph-name="Omegatonos" unicode="&#x38f;" horiz-adv-x="2068" 
d="M-41 1024l225 328h328l-287 -328h-266zM471 0v246h219l-100 116q-25 29 -39 48.5t-26.5 55.5t-12.5 77v530q0 279 348 279h717q348 0 348 -279v-530q0 -41 -12.5 -77t-26.5 -55.5t-39 -48.5l-100 -116h219v-246h-645v266l168 195q27 31 27 61v527q0 57 -72 57h-451
q-71 0 -71 -57v-527q0 -31 26 -61l168 -195v-266h-645z" />
    <glyph glyph-name="iotadieresistonos" unicode="&#x390;" horiz-adv-x="655" 
d="M-51 1167v246h287v-246h-287zM143 0v1004h369v-1004h-369zM143 1495l226 328h327l-286 -328h-267zM420 1167v246h287v-246h-287z" />
    <glyph glyph-name="Alpha" unicode="&#x391;" horiz-adv-x="1699" 
d="M10 0l584 1352h512l584 -1352h-402l-123 287h-630l-123 -287h-402zM641 532h418l-209 482z" />
    <glyph glyph-name="Beta" unicode="&#x392;" horiz-adv-x="1638" 
d="M143 0v1352h1004q348 0 348 -279v-119q0 -172 -133 -237q154 -62 154 -248v-190q0 -279 -349 -279h-1024zM553 246h481q72 0 72 57v223q0 58 -72 58h-481v-338zM553 829h461q71 0 71 58v162q0 57 -71 57h-461v-277z" />
    <glyph glyph-name="Gamma" unicode="&#x393;" horiz-adv-x="1413" 
d="M143 0v1352h1229v-246h-819v-1106h-410z" />
    <glyph glyph-name="uni0394" unicode="&#x394;" horiz-adv-x="1699" 
d="M10 0l584 1352h512l584 -1352h-1680zM532 246h635l-317 737z" />
    <glyph glyph-name="Epsilon" unicode="&#x395;" horiz-adv-x="1556" 
d="M143 0v1352h1311v-246h-901v-277h799v-245h-799v-338h901v-246h-1311z" />
    <glyph glyph-name="Zeta" unicode="&#x396;" horiz-adv-x="1536" 
d="M82 0v246l850 860h-830v246h1332v-246l-850 -860h870v-246h-1372z" />
    <glyph glyph-name="Eta" unicode="&#x397;" horiz-adv-x="1699" 
d="M143 0v1352h410v-523h594v523h409v-1352h-409v584h-594v-584h-410z" />
    <glyph glyph-name="Theta" unicode="&#x398;" horiz-adv-x="1699" 
d="M143 279v794q0 279 349 279h716q348 0 348 -279v-794q0 -279 -348 -279h-716q-349 0 -349 279zM553 303q0 -57 72 -57h450q72 0 72 57v746q0 57 -72 57h-450q-72 0 -72 -57v-746zM655 584v245h389v-245h-389z" />
    <glyph glyph-name="Iota" unicode="&#x399;" horiz-adv-x="696" 
d="M143 0v1352h410v-1352h-410z" />
    <glyph glyph-name="Kappa" unicode="&#x39a;" horiz-adv-x="1638" 
d="M143 0v1352h410v-523l543 523h501l-579 -559l600 -793h-459l-407 539l-199 -193v-346h-410z" />
    <glyph glyph-name="Lambda" unicode="&#x39b;" horiz-adv-x="1699" 
d="M10 0l584 1352h512l584 -1352h-416l-424 983l-424 -983h-416z" />
    <glyph glyph-name="Mu" unicode="&#x39c;" horiz-adv-x="2129" 
d="M143 0v1352h502l420 -944l420 944h502v-1352h-410v713l-317 -713h-390l-317 713v-713h-410z" />
    <glyph glyph-name="Nu" unicode="&#x39d;" horiz-adv-x="1720" 
d="M143 0v1352h441l583 -811v811h410v-1352h-440l-584 811v-811h-410z" />
    <glyph glyph-name="Xi" unicode="&#x39e;" horiz-adv-x="1536" 
d="M102 0v266h1332v-266h-1332zM102 1085v267h1332v-267h-1332zM246 573v267h1044v-267h-1044z" />
    <glyph glyph-name="Omicron" unicode="&#x39f;" horiz-adv-x="1699" 
d="M143 279v794q0 279 349 279h716q348 0 348 -279v-794q0 -279 -348 -279h-716q-349 0 -349 279zM553 303q0 -57 72 -57h450q72 0 72 57v746q0 57 -72 57h-450q-72 0 -72 -57v-746z" />
    <glyph glyph-name="Pi" unicode="&#x3a0;" horiz-adv-x="1699" 
d="M143 0v1352h1413v-1352h-409v1106h-594v-1106h-410z" />
    <glyph glyph-name="Rho" unicode="&#x3a1;" horiz-adv-x="1597" 
d="M143 0v1352h1004q348 0 348 -279v-313q0 -279 -348 -279h-594v-481h-410zM553 727h461q71 0 71 57v265q0 57 -71 57h-461v-379z" />
    <glyph glyph-name="Sigma" unicode="&#x3a3;" horiz-adv-x="1515" 
d="M102 0v236l404 454l-404 426v236h1311v-246h-817l387 -410l-399 -450h829v-246h-1311z" />
    <glyph glyph-name="Tau" unicode="&#x3a4;" horiz-adv-x="1597" 
d="M41 1106v246h1515v-246h-552v-1106h-410v1106h-553z" />
    <glyph glyph-name="Upsilon" unicode="&#x3a5;" horiz-adv-x="1658" 
d="M10 1352h443l376 -523l377 523h443l-615 -850v-502h-409v502z" />
    <glyph glyph-name="Phi" unicode="&#x3a6;" horiz-adv-x="2048" 
d="M123 422v508q0 278 348 278h348v144h410v-144h348q348 0 348 -278v-508q0 -279 -348 -279h-348v-143h-410v143h-348q-348 0 -348 279zM532 446q0 -57 72 -57h215v574h-215q-72 0 -72 -58v-459zM1229 389h215q72 0 72 57v459q0 58 -72 58h-215v-574z" />
    <glyph glyph-name="Chi" unicode="&#x3a7;" horiz-adv-x="1638" 
d="M20 0l570 688l-549 664h457l321 -387l322 387h456l-548 -664l569 -688h-457l-342 412l-342 -412h-457z" />
    <glyph glyph-name="Psi" unicode="&#x3a8;" horiz-adv-x="2048" 
d="M123 586v766h409v-742q0 -57 72 -57h215v799h410v-799h215q72 0 72 57v742h409v-766q0 -279 -348 -279h-348v-307h-410v307h-348q-348 0 -348 279z" />
    <glyph glyph-name="uni03A9" unicode="&#x3a9;" horiz-adv-x="1699" 
d="M102 0v246h220l-101 116q-25 29 -39 48.5t-26.5 55.5t-12.5 77v530q0 279 349 279h716q348 0 348 -279v-530q0 -59 -19.5 -98.5t-57.5 -82.5l-101 -116h219v-246h-645v266l168 195q27 31 27 61v527q0 57 -72 57h-450q-72 0 -72 -57v-527q0 -30 27 -61l168 -195v-266h-646
z" />
    <glyph glyph-name="Iotadieresis" unicode="&#x3aa;" horiz-adv-x="696" 
d="M-31 1516v245h287v-245h-287zM143 0v1352h410v-1352h-410zM440 1516v245h287v-245h-287z" />
    <glyph glyph-name="Upsilondieresis" unicode="&#x3ab;" horiz-adv-x="1658" 
d="M10 1352h443l376 -523l377 523h443l-615 -850v-502h-409v502zM451 1516v245h286v-245h-286zM922 1516v245h286v-245h-286z" />
    <glyph glyph-name="alphatonos" unicode="&#x3ac;" horiz-adv-x="1536" 
d="M102 393v217q0 394 492 394h655v-789h246v-215h-901q-492 0 -492 393zM471 387q0 -172 215 -172h195v573h-195q-215 0 -215 -172v-229zM563 1126l225 328h328l-287 -328h-266z" />
    <glyph glyph-name="epsilontonos" unicode="&#x3ad;" horiz-adv-x="1228" 
d="M123 246v55q0 167 143 221q-143 55 -143 230q0 252 307 252h717v-216h-604q-51 0 -51 -40v-82q0 -41 51 -41h461v-215h-461q-51 0 -51 -41v-113q0 -41 51 -41h604v-215h-717q-307 0 -307 246zM471 1126l225 328h328l-287 -328h-266z" />
    <glyph glyph-name="etatonos" unicode="&#x3ae;" 
d="M123 0v1004h840q307 0 307 -246v-1188h-369v1178q0 40 -51 40h-358v-788h-369zM502 1126l225 328h328l-287 -328h-266z" />
    <glyph glyph-name="iotatonos" unicode="&#x3af;" horiz-adv-x="614" 
d="M102 1126l226 328h327l-286 -328h-267zM123 0v1004h369v-1004h-369z" />
    <glyph glyph-name="upsilondieresistonos" unicode="&#x3b0;" 
d="M123 246v758h369v-748q0 -41 51 -41h307q51 0 51 41v748h369v-758q0 -246 -307 -246h-533q-307 0 -307 246zM317 1167v246h287v-246h-287zM512 1495l225 328h328l-287 -328h-266zM788 1167v246h287v-246h-287z" />
    <glyph glyph-name="alpha" unicode="&#x3b1;" horiz-adv-x="1536" 
d="M102 393v217q0 394 492 394h655v-789h246v-215h-901q-492 0 -492 393zM471 387q0 -172 215 -172h195v573h-195q-215 0 -215 -172v-229z" />
    <glyph glyph-name="beta" unicode="&#x3b2;" 
d="M123 -430v1536q0 246 307 246h471q307 0 307 -246v-162q0 -148 -112 -207q174 -46 174 -231v-260q0 -246 -307 -246h-471v-430h-369zM492 215h358q51 0 51 41v307q0 41 -51 41h-195v215h133q52 0 52 41v236q0 41 -52 41h-245q-51 0 -51 -41v-881z" />
    <glyph glyph-name="gamma" unicode="&#x3b3;" 
d="M20 1004h365l311 -680l312 680h364l-491 -1076v-358h-369v358z" />
    <glyph glyph-name="delta" unicode="&#x3b4;" 
d="M123 246v389q0 246 307 246h262l-436 256v215h942v-215h-440l332 -195q101 -59 140.5 -121.5t39.5 -165.5v-409q0 -246 -307 -246h-533q-307 0 -307 246zM492 256q0 -41 51 -41h307q51 0 51 41v410h-358q-51 0 -51 -41v-369z" />
    <glyph glyph-name="epsilon" unicode="&#x3b5;" horiz-adv-x="1228" 
d="M123 246v55q0 167 143 221q-143 55 -143 230q0 252 307 252h717v-216h-604q-51 0 -51 -40v-82q0 -41 51 -41h461v-215h-461q-51 0 -51 -41v-113q0 -41 51 -41h604v-215h-717q-307 0 -307 246z" />
    <glyph glyph-name="zeta" unicode="&#x3b6;" horiz-adv-x="1269" 
d="M123 246v358q0 75 34 124t136 124l385 285h-494v215h983v-215l-618 -457q-36 -27 -46.5 -43t-10.5 -45v-336q0 -41 51 -41h645v-543h-307v328h-451q-307 0 -307 246z" />
    <glyph glyph-name="eta" unicode="&#x3b7;" 
d="M123 0v1004h840q307 0 307 -246v-1188h-369v1178q0 40 -51 40h-358v-788h-369z" />
    <glyph glyph-name="theta" unicode="&#x3b8;" 
d="M123 246v860q0 246 307 246h533q307 0 307 -246v-860q0 -246 -307 -246h-533q-307 0 -307 246zM492 256q0 -41 51 -41h307q51 0 51 41v348h-409v-348zM492 819h409v277q0 41 -51 41h-307q-51 0 -51 -41v-277z" />
    <glyph glyph-name="iota" unicode="&#x3b9;" horiz-adv-x="614" 
d="M123 0v1004h369v-1004h-369z" />
    <glyph glyph-name="kappa" unicode="&#x3ba;" horiz-adv-x="1351" 
d="M123 0v1004h369v-369l378 369h441l-432 -420l452 -584h-399l-281 362l-159 -155v-207h-369z" />
    <glyph glyph-name="lambda" unicode="&#x3bb;" horiz-adv-x="1310" 
d="M20 0l453 958l-186 394h366l637 -1352h-366l-269 569l-268 -569h-367z" />
    <glyph glyph-name="uni03BC" unicode="&#x3bc;" 
d="M123 -430v1434h369v-789h358q51 0 51 41v748h369v-758q0 -246 -307 -246h-471v-430h-369z" />
    <glyph glyph-name="nu" unicode="&#x3bd;" 
d="M20 1004h365l311 -680l312 680h364l-459 -1004h-434z" />
    <glyph glyph-name="xi" unicode="&#x3be;" horiz-adv-x="1269" 
d="M123 246v250q0 167 143 221q-143 54 -143 221v168q0 246 307 246h758v-215h-645q-51 0 -51 -41v-236q0 -41 51 -41h501v-215h-501q-51 0 -51 -41v-307q0 -41 51 -41h645v-543h-307v328h-451q-307 0 -307 246z" />
    <glyph glyph-name="omicron" unicode="&#x3bf;" 
d="M123 246v512q0 246 307 246h533q307 0 307 -246v-512q0 -246 -307 -246h-533q-307 0 -307 246zM492 256q0 -41 51 -41h307q51 0 51 41v492q0 40 -51 40h-307q-51 0 -51 -40v-492z" />
    <glyph glyph-name="pi" unicode="&#x3c0;" 
d="M123 0v1004h1147v-1004h-369v788h-409v-788h-369z" />
    <glyph glyph-name="rho" unicode="&#x3c1;" 
d="M123 -430v1188q0 246 307 246h533q307 0 307 -246v-512q0 -246 -307 -246h-471v-430h-369zM492 215h358q51 0 51 41v492q0 40 -51 40h-307q-51 0 -51 -40v-533z" />
    <glyph glyph-name="sigma1" unicode="&#x3c2;" horiz-adv-x="1269" 
d="M123 246v512q0 246 307 246h758v-216h-645q-51 0 -51 -40v-492q0 -41 51 -41h645v-543h-307v328h-451q-307 0 -307 246z" />
    <glyph glyph-name="sigma" unicode="&#x3c3;" horiz-adv-x="1597" 
d="M123 246v512q0 246 307 246h1106v-216h-266v-542q0 -246 -307 -246h-533q-307 0 -307 246zM492 256q0 -41 51 -41h307q51 0 51 41v532h-358q-51 0 -51 -40v-492z" />
    <glyph glyph-name="tau" unicode="&#x3c4;" horiz-adv-x="1310" 
d="M61 799v205h1188v-205h-409v-799h-369v799h-410z" />
    <glyph glyph-name="upsilon" unicode="&#x3c5;" 
d="M123 246v758h369v-748q0 -41 51 -41h307q51 0 51 41v748h369v-758q0 -246 -307 -246h-533q-307 0 -307 246z" />
    <glyph glyph-name="phi" unicode="&#x3c6;" horiz-adv-x="1843" 
d="M123 246v758h369v-748q0 -41 51 -41h194v789h676q307 0 307 -246v-512q0 -246 -307 -246h-307v-430h-369v430h-307q-307 0 -307 246zM1106 215h194q52 0 52 41v492q0 40 -52 40h-194v-573z" />
    <glyph glyph-name="chi" unicode="&#x3c7;" horiz-adv-x="1331" 
d="M20 -430l457 725l-446 709h377l258 -410l258 410h376l-446 -709l457 -725h-377l-268 426l-269 -426h-377z" />
    <glyph glyph-name="psi" unicode="&#x3c8;" horiz-adv-x="1843" 
d="M123 246v758h369v-748q0 -41 51 -41h194v789h369v-789h194q52 0 52 41v748h368v-758q0 -246 -307 -246h-307v-430h-369v430h-307q-307 0 -307 246z" />
    <glyph glyph-name="omega" unicode="&#x3c9;" horiz-adv-x="1843" 
d="M123 246v758h369v-748q0 -41 51 -41h143q51 0 51 41v461h369v-461q0 -41 51 -41h143q52 0 52 41v748h368v-758q0 -246 -307 -246h-239q-176 0 -252 82q-76 -82 -252 -82h-240q-307 0 -307 246z" />
    <glyph glyph-name="iotadieresis" unicode="&#x3ca;" horiz-adv-x="655" 
d="M-51 1167v246h287v-246h-287zM143 0v1004h369v-1004h-369zM420 1167v246h287v-246h-287z" />
    <glyph glyph-name="upsilondieresis" unicode="&#x3cb;" 
d="M123 246v758h369v-748q0 -41 51 -41h307q51 0 51 41v748h369v-758q0 -246 -307 -246h-533q-307 0 -307 246zM317 1167v246h287v-246h-287zM788 1167v246h287v-246h-287z" />
    <glyph glyph-name="omicrontonos" unicode="&#x3cc;" 
d="M123 246v512q0 246 307 246h533q307 0 307 -246v-512q0 -246 -307 -246h-533q-307 0 -307 246zM492 256q0 -41 51 -41h307q51 0 51 41v492q0 40 -51 40h-307q-51 0 -51 -40v-492zM502 1126l225 328h328l-287 -328h-266z" />
    <glyph glyph-name="upsilontonos" unicode="&#x3cd;" 
d="M123 246v758h369v-748q0 -41 51 -41h307q51 0 51 41v748h369v-758q0 -246 -307 -246h-533q-307 0 -307 246zM502 1126l225 328h328l-287 -328h-266z" />
    <glyph glyph-name="omegatonos" unicode="&#x3ce;" horiz-adv-x="1843" 
d="M123 246v758h369v-748q0 -41 51 -41h143q51 0 51 41v461h369v-461q0 -41 51 -41h143q52 0 52 41v748h368v-758q0 -246 -307 -246h-239q-176 0 -252 82q-76 -82 -252 -82h-240q-307 0 -307 246zM727 1126l225 328h328l-287 -328h-266z" />
    <glyph glyph-name="uni0400" unicode="&#x400;" horiz-adv-x="1556" 
d="M143 0v1352h1311v-246h-901v-277h799v-245h-799v-338h901v-246h-1311zM440 1802h328l225 -327h-266z" />
    <glyph glyph-name="uni0401" unicode="&#x401;" horiz-adv-x="1556" 
d="M143 0v1352h1311v-246h-901v-277h799v-245h-799v-338h901v-246h-1311zM420 1516v245h287v-245h-287zM891 1516v245h287v-245h-287z" />
    <glyph glyph-name="uni0402" unicode="&#x402;" horiz-adv-x="2048" 
d="M41 1106v246h1515v-246h-552v-277h573q348 0 348 -278v-703q0 -278 -348 -278h-389v246h225q103 0 103 82v628q0 58 -72 58h-440v-584h-410v1106h-553z" />
    <glyph glyph-name="uni0403" unicode="&#x403;" horiz-adv-x="1413" 
d="M143 0v1352h1229v-246h-819v-1106h-410zM584 1475l225 327h328l-287 -327h-266z" />
    <glyph glyph-name="uni0404" unicode="&#x404;" horiz-adv-x="1556" 
d="M123 557v238q0 557 696 557h635v-246h-553q-356 0 -369 -277h738v-245h-738v-43q0 -295 369 -295h553v-246h-635q-696 0 -696 557z" />
    <glyph glyph-name="uni0405" unicode="&#x405;" horiz-adv-x="1597" 
d="M123 0v246h870q72 0 72 57v223q0 58 -72 58h-522q-348 0 -348 278v211q0 279 348 279h901v-246h-768q-72 0 -72 -57v-162q0 -58 72 -58h522q349 0 349 -278v-272q0 -279 -349 -279h-1003z" />
    <glyph glyph-name="uni0406" unicode="&#x406;" horiz-adv-x="696" 
d="M143 0v1352h410v-1352h-410z" />
    <glyph glyph-name="uni0407" unicode="&#x407;" horiz-adv-x="696" 
d="M-31 1516v245h287v-245h-287zM143 0v1352h410v-1352h-410zM440 1516v245h287v-245h-287z" />
    <glyph glyph-name="uni0408" unicode="&#x408;" horiz-adv-x="1536" 
d="M82 328v276h410v-244q0 -114 143 -114h276q72 0 72 57v1049h410v-1073q0 -279 -349 -279h-552q-410 0 -410 328z" />
    <glyph glyph-name="uni0409" unicode="&#x409;" horiz-adv-x="2519" 
d="M41 0l440 1352h1014v-523h573q349 0 349 -278v-272q0 -279 -349 -279h-983v1106h-280l-361 -1106h-403zM1495 246h440q72 0 72 57v223q0 58 -72 58h-440v-338z" />
    <glyph glyph-name="uni040A" unicode="&#x40a;" horiz-adv-x="2539" 
d="M143 0v1352h410v-523h553v523h410v-523h573q348 0 348 -278v-272q0 -279 -348 -279h-983v584h-553v-584h-410zM1516 246h440q72 0 72 57v223q0 58 -72 58h-440v-338z" />
    <glyph glyph-name="uni040B" unicode="&#x40b;" horiz-adv-x="2048" 
d="M41 1106v246h1515v-246h-552v-277h573q348 0 348 -278v-551h-409v526q0 58 -72 58h-440v-584h-410v1106h-553z" />
    <glyph glyph-name="uni040C" unicode="&#x40c;" horiz-adv-x="1638" 
d="M143 0v1352h410v-523l543 523h501l-579 -559l600 -793h-459l-407 539l-199 -193v-346h-410zM635 1475l225 327h328l-287 -327h-266z" />
    <glyph glyph-name="uni040D" unicode="&#x40d;" horiz-adv-x="1720" 
d="M143 0v1352h410v-811l584 811h440v-1352h-410v811l-583 -811h-441zM502 1802h327l226 -327h-267z" />
    <glyph glyph-name="uni040E" unicode="&#x40e;" horiz-adv-x="1576" 
d="M10 1352h436l353 -592l338 592h430l-768 -1352h-430l217 385zM481 1622v180h205v-170q0 -24 31 -24h164q30 0 30 24v170h205v-180q0 -147 -184 -147h-266q-185 0 -185 147z" />
    <glyph glyph-name="uni040F" unicode="&#x40f;" horiz-adv-x="1699" 
d="M143 0v1352h410v-1116h594v1116h409v-1352h-532v-369h-348v369h-533z" />
    <glyph glyph-name="uni0410" unicode="&#x410;" horiz-adv-x="1699" 
d="M10 0l584 1352h512l584 -1352h-402l-123 287h-630l-123 -287h-402zM641 532h418l-209 482z" />
    <glyph glyph-name="uni0411" unicode="&#x411;" horiz-adv-x="1617" 
d="M143 0v1352h1250v-246h-840v-277h594q348 0 348 -278v-272q0 -279 -348 -279h-1004zM553 246h461q71 0 71 57v223q0 58 -71 58h-461v-338z" />
    <glyph glyph-name="uni0412" unicode="&#x412;" horiz-adv-x="1638" 
d="M143 0v1352h1004q348 0 348 -279v-119q0 -172 -133 -237q154 -62 154 -248v-190q0 -279 -349 -279h-1024zM553 246h481q72 0 72 57v223q0 58 -72 58h-481v-338zM553 829h461q71 0 71 58v162q0 57 -71 57h-461v-277z" />
    <glyph glyph-name="uni0413" unicode="&#x413;" horiz-adv-x="1413" 
d="M143 0v1352h1229v-246h-819v-1106h-410z" />
    <glyph glyph-name="uni0414" unicode="&#x414;" horiz-adv-x="1904" 
d="M41 246h223l361 1106h1013v-1106h226v-615h-348v369h-1127v-369h-348v615zM668 246h561v860h-281z" />
    <glyph glyph-name="uni0415" unicode="&#x415;" horiz-adv-x="1556" 
d="M143 0v1352h1311v-246h-901v-277h799v-245h-799v-338h901v-246h-1311z" />
    <glyph glyph-name="uni0416" unicode="&#x416;" horiz-adv-x="2416" 
d="M20 0l601 793l-580 559h502l461 -445v445h409v-445l461 445h502l-580 -559l600 -793h-459l-407 539l-117 -113v-426h-409v426l-117 113l-408 -539h-459z" />
    <glyph glyph-name="uni0417" unicode="&#x417;" horiz-adv-x="1556" 
d="M102 0v246h830q72 0 72 57v223q0 58 -72 58h-645v245h645q72 0 72 58v162q0 57 -72 57h-830v246h963q348 0 348 -279v-112q0 -179 -145 -244q145 -65 145 -244v-194q0 -279 -348 -279h-963z" />
    <glyph glyph-name="uni0418" unicode="&#x418;" horiz-adv-x="1720" 
d="M143 0v1352h410v-811l584 811h440v-1352h-410v811l-583 -811h-441z" />
    <glyph glyph-name="uni0419" unicode="&#x419;" horiz-adv-x="1720" 
d="M143 0v1352h410v-811l584 811h440v-1352h-410v811l-583 -811h-441zM543 1622v180h205v-170q0 -24 30 -24h164q31 0 31 24v170h205v-180q0 -147 -185 -147h-266q-184 0 -184 147z" />
    <glyph glyph-name="uni041A" unicode="&#x41a;" horiz-adv-x="1638" 
d="M143 0v1352h410v-523l543 523h501l-579 -559l600 -793h-459l-407 539l-199 -193v-346h-410z" />
    <glyph glyph-name="uni041B" unicode="&#x41b;" horiz-adv-x="1679" 
d="M41 0l440 1352h1055v-1352h-410v1106h-321l-361 -1106h-403z" />
    <glyph glyph-name="uni041C" unicode="&#x41c;" horiz-adv-x="2129" 
d="M143 0v1352h502l420 -944l420 944h502v-1352h-410v713l-317 -713h-390l-317 713v-713h-410z" />
    <glyph glyph-name="uni041D" unicode="&#x41d;" horiz-adv-x="1699" 
d="M143 0v1352h410v-523h594v523h409v-1352h-409v584h-594v-584h-410z" />
    <glyph glyph-name="uni041E" unicode="&#x41e;" horiz-adv-x="1699" 
d="M143 279v794q0 279 349 279h716q348 0 348 -279v-794q0 -279 -348 -279h-716q-349 0 -349 279zM553 303q0 -57 72 -57h450q72 0 72 57v746q0 57 -72 57h-450q-72 0 -72 -57v-746z" />
    <glyph glyph-name="uni041F" unicode="&#x41f;" horiz-adv-x="1699" 
d="M143 0v1352h1413v-1352h-409v1106h-594v-1106h-410z" />
    <glyph glyph-name="uni0420" unicode="&#x420;" horiz-adv-x="1597" 
d="M143 0v1352h1004q348 0 348 -279v-313q0 -279 -348 -279h-594v-481h-410zM553 727h461q71 0 71 57v265q0 57 -71 57h-461v-379z" />
    <glyph glyph-name="uni0421" unicode="&#x421;" horiz-adv-x="1556" 
d="M143 279v794q0 279 349 279h962v-246h-829q-72 0 -72 -57v-746q0 -57 72 -57h829v-246h-962q-349 0 -349 279z" />
    <glyph glyph-name="uni0422" unicode="&#x422;" horiz-adv-x="1597" 
d="M41 1106v246h1515v-246h-552v-1106h-410v1106h-553z" />
    <glyph glyph-name="uni0423" unicode="&#x423;" horiz-adv-x="1576" 
d="M10 1352h436l353 -592l338 592h430l-768 -1352h-430l217 385z" />
    <glyph glyph-name="uni0424" unicode="&#x424;" horiz-adv-x="2048" 
d="M123 422v508q0 278 348 278h348v144h410v-144h348q348 0 348 -278v-508q0 -279 -348 -279h-348v-143h-410v143h-348q-348 0 -348 279zM532 446q0 -57 72 -57h215v574h-215q-72 0 -72 -58v-459zM1229 389h215q72 0 72 57v459q0 58 -72 58h-215v-574z" />
    <glyph glyph-name="uni0425" unicode="&#x425;" horiz-adv-x="1638" 
d="M20 0l570 688l-549 664h457l321 -387l322 387h456l-548 -664l569 -688h-457l-342 412l-342 -412h-457z" />
    <glyph glyph-name="uni0426" unicode="&#x426;" horiz-adv-x="1822" 
d="M143 0v1352h410v-1106h594v1106h409v-1106h226v-615h-348v369h-1291z" />
    <glyph glyph-name="uni0427" unicode="&#x427;" horiz-adv-x="1597" 
d="M102 760v592h410v-568q0 -57 72 -57h460v625h410v-1352h-410v481h-593q-349 0 -349 279z" />
    <glyph glyph-name="uni0428" unicode="&#x428;" horiz-adv-x="2293" 
d="M143 0v1352h410v-1106h389v1106h410v-1106h389v1106h409v-1352h-2007z" />
    <glyph glyph-name="uni0429" unicode="&#x429;" horiz-adv-x="2416" 
d="M143 0v1352h410v-1106h389v1106h410v-1106h389v1106h409v-1106h226v-615h-348v369h-1885z" />
    <glyph glyph-name="uni042A" unicode="&#x42a;" horiz-adv-x="1966" 
d="M41 1116v236h881v-523h594q348 0 348 -278v-272q0 -279 -348 -279h-1004v1116h-471zM922 246h460q72 0 72 57v223q0 58 -72 58h-460v-338z" />
    <glyph glyph-name="uni042B" unicode="&#x42b;" horiz-adv-x="2232" 
d="M143 0v1352h410v-523h594q348 0 348 -278v-272q0 -279 -348 -279h-1004zM553 246h461q71 0 71 57v223q0 58 -71 58h-461v-338zM1679 0v1352h410v-1352h-410z" />
    <glyph glyph-name="uni042C" unicode="&#x42c;" horiz-adv-x="1597" 
d="M143 0v1352h410v-523h594q348 0 348 -278v-272q0 -279 -348 -279h-1004zM553 246h461q71 0 71 57v223q0 58 -71 58h-461v-338z" />
    <glyph glyph-name="uni042D" unicode="&#x42d;" horiz-adv-x="1556" 
d="M102 0v246h553q369 0 369 295v43h-737v245h737q-13 277 -369 277h-553v246h635q697 0 697 -557v-238q0 -557 -697 -557h-635z" />
    <glyph glyph-name="uni042E" unicode="&#x42e;" horiz-adv-x="2375" 
d="M143 0v1352h410v-553h266v274q0 279 348 279h717q348 0 348 -279v-794q0 -279 -348 -279h-717q-348 0 -348 279v274h-266v-553h-410zM1229 303q0 -57 71 -57h451q72 0 72 57v746q0 57 -72 57h-451q-71 0 -71 -57v-746z" />
    <glyph glyph-name="uni042F" unicode="&#x42f;" horiz-adv-x="1617" 
d="M61 0l338 512q-138 17 -207 85.5t-69 193.5v282q0 279 348 279h1004v-1352h-410v512h-223l-338 -512h-443zM532 815q0 -57 72 -57h461v348h-461q-72 0 -72 -57v-234z" />
    <glyph glyph-name="uni0430" unicode="&#x430;" horiz-adv-x="1331" 
d="M102 246v133q0 246 308 246h430v123q0 40 -52 40h-604v216h717q307 0 307 -246v-758h-798q-308 0 -308 246zM471 256q0 -41 51 -41h318v195h-318q-51 0 -51 -41v-113z" />
    <glyph glyph-name="uni0431" unicode="&#x431;" 
d="M123 246v647q0 459 573 459h451v-215h-440q-185 0 -215 -133h471q307 0 307 -246v-512q0 -246 -307 -246h-533q-307 0 -307 246zM492 256q0 -41 51 -41h307q51 0 51 41v492q0 40 -51 40h-358v-532z" />
    <glyph glyph-name="uni0432" unicode="&#x432;" horiz-adv-x="1331" 
d="M123 0v1004h778q159 0 233 -64t74 -190q0 -169 -133 -228q154 -51 154 -225v-51q0 -246 -307 -246h-799zM492 215h317q51 0 51 41v113q0 41 -51 41h-317v-195zM492 625h296q52 0 52 41v82q0 40 -52 40h-296v-163z" />
    <glyph glyph-name="uni0433" unicode="&#x433;" horiz-adv-x="1167" 
d="M123 0v1004h983v-216h-614v-788h-369z" />
    <glyph glyph-name="uni0434" unicode="&#x434;" horiz-adv-x="1556" 
d="M41 215h170l250 789h870v-789h185v-543h-308v328h-860v-328h-307v543zM559 215h404v573h-222z" />
    <glyph glyph-name="uni0435" unicode="&#x435;" horiz-adv-x="1351" 
d="M123 246v512q0 246 307 246h492q307 0 307 -246v-348h-737v-154q0 -41 51 -41h645v-215h-758q-307 0 -307 246zM492 625h368v123q0 40 -51 40h-266q-51 0 -51 -40v-123z" />
    <glyph glyph-name="uni0436" unicode="&#x436;" horiz-adv-x="1986" 
d="M20 0l453 584l-432 420h440l328 -320v320h369v-320l327 320h441l-433 -420l453 -584h-399l-281 362l-108 -104v-258h-369v258l-109 104l-280 -362h-400z" />
    <glyph glyph-name="uni0437" unicode="&#x437;" horiz-adv-x="1228" 
d="M82 0v215h604q51 0 51 41v113q0 41 -51 41h-461v215h461q51 0 51 41v82q0 40 -51 40h-604v216h717q307 0 307 -252q0 -175 -143 -230q143 -54 143 -221v-55q0 -246 -307 -246h-717z" />
    <glyph glyph-name="uni0438" unicode="&#x438;" horiz-adv-x="1433" 
d="M123 0v1004h369v-553l409 553h410v-1004h-369v553l-410 -553h-409z" />
    <glyph glyph-name="uni0439" unicode="&#x439;" horiz-adv-x="1433" 
d="M123 0v1004h369v-553l409 553h410v-1004h-369v553l-410 -553h-409zM399 1274v180h205v-170q0 -24 31 -24h164q30 0 30 24v170h205v-180q0 -148 -184 -148h-266q-185 0 -185 148z" />
    <glyph glyph-name="uni043A" unicode="&#x43a;" horiz-adv-x="1351" 
d="M123 0v1004h369v-369l378 369h441l-432 -420l452 -584h-399l-281 362l-159 -155v-207h-369z" />
    <glyph glyph-name="uni043B" unicode="&#x43b;" horiz-adv-x="1413" 
d="M41 0l317 1004h932v-1004h-368v788h-283l-250 -788h-348z" />
    <glyph glyph-name="uni043C" unicode="&#x43c;" horiz-adv-x="1720" 
d="M123 0v1004h471l266 -605l266 605h471v-1004h-368v485l-215 -485h-307l-215 485v-485h-369z" />
    <glyph glyph-name="uni043D" unicode="&#x43d;" 
d="M123 0v1004h369v-379h409v379h369v-1004h-369v410h-409v-410h-369z" />
    <glyph glyph-name="uni043E" unicode="&#x43e;" 
d="M123 246v512q0 246 307 246h533q307 0 307 -246v-512q0 -246 -307 -246h-533q-307 0 -307 246zM492 256q0 -41 51 -41h307q51 0 51 41v492q0 40 -51 40h-307q-51 0 -51 -40v-492z" />
    <glyph glyph-name="uni043F" unicode="&#x43f;" 
d="M123 0v1004h1147v-1004h-369v788h-409v-788h-369z" />
    <glyph glyph-name="uni0440" unicode="&#x440;" 
d="M123 -430v1434h840q307 0 307 -246v-512q0 -246 -307 -246h-471v-430h-369zM492 215h358q51 0 51 41v492q0 40 -51 40h-358v-573z" />
    <glyph glyph-name="uni0441" unicode="&#x441;" horiz-adv-x="1249" 
d="M123 246v512q0 246 307 246h737v-216h-624q-51 0 -51 -40v-492q0 -41 51 -41h624v-215h-737q-307 0 -307 246z" />
    <glyph glyph-name="uni0442" unicode="&#x442;" horiz-adv-x="1310" 
d="M61 799v205h1188v-205h-409v-799h-369v799h-410z" />
    <glyph glyph-name="uni0443" unicode="&#x443;" 
d="M20 1004h365l311 -680l312 680h364l-655 -1434h-365l162 354z" />
    <glyph glyph-name="uni0444" unicode="&#x444;" horiz-adv-x="1843" 
d="M123 246v512q0 246 307 246h307v348h369v-348h307q307 0 307 -246v-512q0 -246 -307 -246h-307v-430h-369v430h-307q-307 0 -307 246zM492 256q0 -41 51 -41h194v573h-194q-51 0 -51 -40v-492zM1106 215h194q52 0 52 41v492q0 40 -52 40h-194v-573z" />
    <glyph glyph-name="uni0445" unicode="&#x445;" horiz-adv-x="1331" 
d="M20 0l441 508l-430 496h411l224 -259l223 259h411l-430 -496l441 -508h-412l-233 270l-234 -270h-412z" />
    <glyph glyph-name="uni0446" unicode="&#x446;" horiz-adv-x="1495" 
d="M123 0v1004h369v-789h409v789h369v-789h184v-543h-307v328h-1024z" />
    <glyph glyph-name="uni0447" unicode="&#x447;" horiz-adv-x="1331" 
d="M102 594v410h369v-400q0 -41 51 -41h318v441h368v-1004h-368v348h-430q-308 0 -308 246z" />
    <glyph glyph-name="uni0448" unicode="&#x448;" horiz-adv-x="1925" 
d="M123 0v1004h369v-789h286v789h369v-789h287v789h368v-1004h-1679z" />
    <glyph glyph-name="uni0449" unicode="&#x449;" horiz-adv-x="2027" 
d="M123 0v1004h369v-789h286v789h369v-789h287v789h368v-789h185v-543h-308v328h-1556z" />
    <glyph glyph-name="uni044A" unicode="&#x44a;" horiz-adv-x="1576" 
d="M61 799v205h697v-379h430q307 0 307 -246v-133q0 -246 -307 -246h-799v799h-328zM758 215h317q51 0 51 41v113q0 41 -51 41h-317v-195z" />
    <glyph glyph-name="uni044B" unicode="&#x44b;" horiz-adv-x="1884" 
d="M123 0v1004h369v-379h430q307 0 307 -246v-133q0 -246 -307 -246h-799zM492 215h317q51 0 51 41v113q0 41 -51 41h-317v-195zM1393 0v1004h368v-1004h-368z" />
    <glyph glyph-name="uni044C" unicode="&#x44c;" horiz-adv-x="1310" 
d="M123 0v1004h369v-379h430q307 0 307 -246v-133q0 -246 -307 -246h-799zM492 215h317q51 0 51 41v113q0 41 -51 41h-317v-195z" />
    <glyph glyph-name="uni044D" unicode="&#x44d;" horiz-adv-x="1228" 
d="M82 0v215h461q215 0 215 172v23h-533v215h533q-6 163 -215 163h-461v216h553q491 0 491 -394v-217q0 -393 -491 -393h-553z" />
    <glyph glyph-name="uni044E" unicode="&#x44e;" horiz-adv-x="1986" 
d="M123 0v1004h369v-379h225v133q0 246 307 246h532q308 0 308 -246v-512q0 -246 -308 -246h-532q-307 0 -307 246v164h-225v-410h-369zM1085 256q0 -41 52 -41h307q51 0 51 41v492q0 40 -51 40h-307q-52 0 -52 -40v-492z" />
    <glyph glyph-name="uni044F" unicode="&#x44f;" horiz-adv-x="1331" 
d="M61 0l240 358q-199 37 -199 236v164q0 246 308 246h798v-1004h-368v348h-160l-234 -348h-385zM471 604q0 -41 51 -41h318v225h-318q-51 0 -51 -40v-144z" />
    <glyph glyph-name="uni0450" unicode="&#x450;" horiz-adv-x="1351" 
d="M123 246v512q0 246 307 246h492q307 0 307 -246v-348h-737v-154q0 -41 51 -41h645v-215h-758q-307 0 -307 246zM317 1454h328l225 -328h-266zM492 625h368v123q0 40 -51 40h-266q-51 0 -51 -40v-123z" />
    <glyph glyph-name="uni0451" unicode="&#x451;" horiz-adv-x="1351" 
d="M123 246v512q0 246 307 246h492q307 0 307 -246v-348h-737v-154q0 -41 51 -41h645v-215h-758q-307 0 -307 246zM297 1167v246h287v-246h-287zM492 625h368v123q0 40 -51 40h-266q-51 0 -51 -40v-123zM768 1167v246h287v-246h-287z" />
    <glyph glyph-name="uni0452" unicode="&#x452;" horiz-adv-x="1433" 
d="M20 1096v164h144v92h368v-92h369v-164h-369v-92h472q307 0 307 -246v-942q0 -246 -307 -246h-308v215h164q82 0 82 65v898q0 40 -51 40h-359v-788h-368v1096h-144z" />
    <glyph glyph-name="uni0453" unicode="&#x453;" horiz-adv-x="1167" 
d="M123 0v1004h983v-216h-614v-788h-369zM440 1126l226 328h327l-286 -328h-267z" />
    <glyph glyph-name="uni0454" unicode="&#x454;" horiz-adv-x="1228" 
d="M102 393v217q0 394 492 394h553v-216h-461q-209 0 -215 -163h533v-215h-533v-23q0 -172 215 -172h461v-215h-553q-492 0 -492 393z" />
    <glyph glyph-name="uni0455" unicode="&#x455;" horiz-adv-x="1249" 
d="M102 0v215h625q51 0 51 41v113q0 41 -51 41h-317q-308 0 -308 245v103q0 246 308 246h655v-216h-543q-51 0 -51 -40v-82q0 -41 51 -41h318q307 0 307 -246v-133q0 -246 -307 -246h-738z" />
    <glyph glyph-name="uni0456" unicode="&#x456;" horiz-adv-x="614" 
d="M123 0v1004h369v-1004h-369zM123 1147v205h369v-205h-369z" />
    <glyph glyph-name="uni0457" unicode="&#x457;" horiz-adv-x="655" 
d="M-51 1167v246h287v-246h-287zM143 0v1004h369v-1004h-369zM420 1167v246h287v-246h-287z" />
    <glyph glyph-name="uni0458" unicode="&#x458;" horiz-adv-x="614" 
d="M-102 -215h143q82 0 82 65v1154h369v-1188q0 -246 -308 -246h-286v215zM123 1147v205h369v-205h-369z" />
    <glyph glyph-name="uni0459" unicode="&#x459;" horiz-adv-x="2027" 
d="M41 0l317 1004h871v-379h409q308 0 308 -246v-133q0 -246 -308 -246h-778v788h-221l-250 -788h-348zM1229 215h297q51 0 51 41v113q0 41 -51 41h-297v-195z" />
    <glyph glyph-name="uni045A" unicode="&#x45a;" horiz-adv-x="2068" 
d="M123 0v1004h369v-379h409v379h369v-379h409q308 0 308 -246v-133q0 -246 -308 -246h-778v410h-409v-410h-369zM1270 215h297q51 0 51 41v113q0 41 -51 41h-297v-195z" />
    <glyph glyph-name="uni045B" unicode="&#x45b;" horiz-adv-x="1433" 
d="M20 1096v164h144v92h368v-92h369v-164h-369v-92h472q307 0 307 -246v-758h-369v748q0 40 -51 40h-359v-788h-368v1096h-144z" />
    <glyph glyph-name="uni045C" unicode="&#x45c;" horiz-adv-x="1351" 
d="M123 0v1004h369v-369l378 369h441l-432 -420l452 -584h-399l-281 362l-159 -155v-207h-369zM492 1126l225 328h327l-286 -328h-266z" />
    <glyph glyph-name="uni045D" unicode="&#x45d;" horiz-adv-x="1433" 
d="M123 0v1004h369v-553l409 553h410v-1004h-369v553l-410 -553h-409zM358 1454h328l225 -328h-266z" />
    <glyph glyph-name="uni045E" unicode="&#x45e;" 
d="M20 1004h365l311 -680l312 680h364l-655 -1434h-365l162 354zM379 1274v180h205v-170q0 -24 30 -24h164q31 0 31 24v170h205v-180q0 -148 -185 -148h-266q-184 0 -184 148z" />
    <glyph glyph-name="uni045F" unicode="&#x45f;" 
d="M123 0v1004h369v-799h409v799h369v-1004h-420v-328h-307v328h-420z" />
    <glyph glyph-name="uni0462" unicode="&#x462;" horiz-adv-x="1884" 
d="M41 973v246h389v133h410v-133h409v-246h-409v-144h594q348 0 348 -278v-272q0 -279 -348 -279h-1004v973h-389zM840 246h460q72 0 72 57v223q0 58 -72 58h-460v-338z" />
    <glyph glyph-name="uni0463" unicode="&#x463;" horiz-adv-x="1536" 
d="M61 788v216h287v348h369v-348h307v-216h-307v-163h430q307 0 307 -246v-133q0 -246 -307 -246h-799v788h-287zM717 215h317q51 0 51 41v113q0 41 -51 41h-317v-195z" />
    <glyph glyph-name="uni0472" unicode="&#x472;" horiz-adv-x="1699" 
d="M143 279v794q0 279 349 279h716q348 0 348 -279v-794q0 -279 -348 -279h-716q-349 0 -349 279zM553 303q0 -57 72 -57h450q72 0 72 57v281h-594v-281zM553 829h594v220q0 57 -72 57h-450q-72 0 -72 -57v-220z" />
    <glyph glyph-name="uni0473" unicode="&#x473;" 
d="M123 246v512q0 246 307 246h533q307 0 307 -246v-512q0 -246 -307 -246h-533q-307 0 -307 246zM492 256q0 -41 51 -41h307q51 0 51 41v154h-409v-154zM492 625h409v123q0 40 -51 40h-307q-51 0 -51 -40v-123z" />
    <glyph glyph-name="uni0474" unicode="&#x474;" horiz-adv-x="1904" 
d="M10 1352h416l424 -983l424 983h590v-246h-281l-477 -1106h-512z" />
    <glyph glyph-name="uni0475" unicode="&#x475;" horiz-adv-x="1556" 
d="M20 1004h365l311 -680l312 680h487v-216h-221l-361 -788h-434z" />
    <glyph glyph-name="uni0490" unicode="&#x490;" horiz-adv-x="1413" 
d="M143 0v1352h881v327h348v-573h-819v-1106h-410z" />
    <glyph glyph-name="uni0491" unicode="&#x491;" horiz-adv-x="1167" 
d="M123 0v1004h676v286h307v-502h-614v-788h-369z" />
    <glyph glyph-name="uni0492" unicode="&#x492;" horiz-adv-x="1454" 
d="M20 604v205h164v543h1229v-246h-819v-297h307v-205h-307v-604h-410v604h-164z" />
    <glyph glyph-name="uni0493" unicode="&#x493;" horiz-adv-x="1208" 
d="M20 440v164h144v400h983v-216h-615v-184h349v-164h-349v-440h-368v440h-144z" />
    <glyph glyph-name="uni0494" unicode="&#x494;" horiz-adv-x="1597" 
d="M143 0v1352h1229v-246h-819v-277h573q349 0 349 -278v-703q0 -278 -349 -278h-389v246h226q102 0 102 82v628q0 58 -72 58h-440v-584h-410z" />
    <glyph glyph-name="uni0495" unicode="&#x495;" horiz-adv-x="1331" 
d="M123 0v1004h983v-216h-614v-163h430q307 0 307 -246v-563q0 -246 -307 -246h-308v215h164q82 0 82 65v519q0 41 -51 41h-317v-410h-369z" />
    <glyph glyph-name="uni0496" unicode="&#x496;" horiz-adv-x="2498" 
d="M20 0l601 793l-580 559h502l461 -445v445h409v-445l461 445h502l-580 -559l414 -547h248v-615h-349v369h-172l-407 539l-117 -113v-426h-409v426l-117 113l-408 -539h-459z" />
    <glyph glyph-name="uni0497" unicode="&#x497;" horiz-adv-x="2027" 
d="M20 0l453 584l-432 420h440l328 -320v320h369v-320l327 320h441l-433 -420l285 -369h189v-543h-308v328h-112l-281 362l-108 -104v-258h-369v258l-109 104l-280 -362h-400z" />
    <glyph glyph-name="uni0498" unicode="&#x498;" horiz-adv-x="1556" 
d="M102 0v246h830q72 0 72 57v223q0 58 -72 58h-645v245h645q72 0 72 58v162q0 57 -72 57h-830v246h963q348 0 348 -279v-112q0 -179 -145 -244q145 -65 145 -244v-194q0 -279 -348 -279h-61v-174q0 -205 -256 -205h-277v154h184q82 0 82 65v160h-635z" />
    <glyph glyph-name="uni0499" unicode="&#x499;" horiz-adv-x="1228" 
d="M82 0v215h604q51 0 51 41v113q0 41 -51 41h-461v215h461q51 0 51 41v82q0 40 -51 40h-604v216h717q307 0 307 -252q0 -175 -143 -230q143 -54 143 -221v-55q0 -238 -287 -246v-174q0 -205 -256 -205h-276v154h184q82 0 82 65v160h-471z" />
    <glyph glyph-name="uni049A" unicode="&#x49a;" horiz-adv-x="1720" 
d="M143 0v1352h410v-523l543 523h501l-579 -559l414 -547h247v-615h-348v369h-172l-407 539l-199 -193v-346h-410z" />
    <glyph glyph-name="uni049B" unicode="&#x49b;" 
d="M123 0v1004h369v-369l378 369h441l-432 -420l284 -369h189v-543h-308v328h-112l-281 362l-159 -155v-207h-369z" />
    <glyph glyph-name="uni049C" unicode="&#x49c;" horiz-adv-x="1658" 
d="M143 0v1352h410v-543l92 88v342h184v-164l287 277h502l-580 -559l600 -793h-458l-351 463v-330h-184v283l-92 -90v-326h-410z" />
    <glyph glyph-name="uni049D" unicode="&#x49d;" 
d="M123 0v1004h369v-410l81 80v258h154v-109l184 181h441l-432 -420l452 -584h-399l-246 317v-245h-154v176l-81 -80v-168h-369z" />
    <glyph glyph-name="uni049E" unicode="&#x49e;" horiz-adv-x="1699" 
d="M20 1044v205h185v103h409v-103h185v-205h-185v-215l543 523h502l-580 -559l600 -793h-458l-408 539l-199 -193v-346h-409v1044h-185z" />
    <glyph glyph-name="uni049F" unicode="&#x49f;" horiz-adv-x="1413" 
d="M20 768v164h123v72h369v-72h123v-164h-123v-174l420 410h440l-432 -420l453 -584h-400l-280 362l-201 -194v-168h-369v768h-123z" />
    <glyph glyph-name="uni04A0" unicode="&#x4a0;" horiz-adv-x="2007" 
d="M41 1116v236h881v-523l542 523h502l-580 -559l601 -793h-459l-408 539l-198 -193v-346h-410v1116h-471z" />
    <glyph glyph-name="uni04A1" unicode="&#x4a1;" horiz-adv-x="1617" 
d="M61 799v205h697v-369l379 369h440l-432 -420l452 -584h-399l-280 362l-160 -155v-207h-369v799h-328z" />
    <glyph glyph-name="uni04A2" unicode="&#x4a2;" horiz-adv-x="1822" 
d="M143 0v1352h410v-523h594v523h409v-1106h226v-615h-348v369h-287v584h-594v-584h-410z" />
    <glyph glyph-name="uni04A3" unicode="&#x4a3;" horiz-adv-x="1495" 
d="M123 0v1004h369v-379h409v379h369v-789h184v-543h-307v328h-246v410h-409v-410h-369z" />
    <glyph glyph-name="uni04A4" unicode="&#x4a4;" horiz-adv-x="2150" 
d="M143 0v1352h410v-523h594v523h962v-246h-553v-1106h-409v584h-594v-584h-410z" />
    <glyph glyph-name="uni04A5" unicode="&#x4a5;" horiz-adv-x="1740" 
d="M123 0v1004h369v-379h409v379h778v-205h-409v-799h-369v410h-409v-410h-369z" />
    <glyph glyph-name="uni04A6" unicode="&#x4a6;" horiz-adv-x="2560" 
d="M143 0v1352h1373v-523h573q348 0 348 -278v-703q0 -278 -348 -278h-389v246h225q103 0 103 82v628q0 58 -72 58h-440v-584h-410v1106h-553v-1106h-410z" />
    <glyph glyph-name="uni04A7" unicode="&#x4a7;" horiz-adv-x="2088" 
d="M123 0v1004h1147v-379h409q308 0 308 -246v-563q0 -246 -308 -246h-307v215h164q82 0 82 65v519q0 41 -51 41h-297v-410h-369v788h-409v-788h-369z" />
    <glyph glyph-name="uni04A8" unicode="&#x4a8;" horiz-adv-x="1986" 
d="M143 279v794q0 279 349 279h716v-246h-583q-72 0 -72 -57v-746q0 -57 72 -57h174v377q0 278 348 278h369q348 0 348 -278v-344q0 -279 -348 -279h-1024q-349 0 -349 279zM1208 246h174q72 0 72 57v295q0 57 -72 57h-102q-72 0 -72 -57v-352z" />
    <glyph glyph-name="uni04A9" unicode="&#x4a9;" horiz-adv-x="1597" 
d="M123 246v512q0 246 307 246h512v-216h-399q-51 0 -51 -40v-492q0 -41 51 -41h102v215q0 246 307 246h236q307 0 307 -246v-184q0 -246 -307 -246h-758q-307 0 -307 246zM993 215h103q51 0 51 41v164q0 41 -51 41h-52q-51 0 -51 -41v-205z" />
    <glyph glyph-name="uni04AA" unicode="&#x4aa;" horiz-adv-x="1556" 
d="M143 279v794q0 279 349 279h962v-246h-829q-72 0 -72 -57v-746q0 -57 72 -57h829v-246h-307v-174q0 -205 -256 -205h-277v154h185q82 0 82 65v160h-389q-349 0 -349 279z" />
    <glyph glyph-name="uni04AB" unicode="&#x4ab;" horiz-adv-x="1249" 
d="M123 246v512q0 246 307 246h737v-216h-624q-51 0 -51 -40v-492q0 -41 51 -41h624v-215h-204v-174q0 -205 -256 -205h-277v154h184q82 0 82 65v160h-266q-307 0 -307 246z" />
    <glyph glyph-name="uni04AC" unicode="&#x4ac;" horiz-adv-x="1597" 
d="M41 1106v246h1515v-246h-552v-860h225v-615h-348v369h-287v1106h-553z" />
    <glyph glyph-name="uni04AD" unicode="&#x4ad;" horiz-adv-x="1310" 
d="M61 799v205h1188v-205h-409v-584h184v-543h-307v328h-246v799h-410z" />
    <glyph glyph-name="uni04AE" unicode="&#x4ae;" horiz-adv-x="1658" 
d="M10 1352h443l376 -523l377 523h443l-615 -850v-502h-409v502z" />
    <glyph glyph-name="uni04AF" unicode="&#x4af;" 
d="M20 1004h365l311 -680l312 680h364l-491 -1076v-358h-369v358z" />
    <glyph glyph-name="uni04B0" unicode="&#x4b0;" horiz-adv-x="1658" 
d="M10 1352h443l376 -523l377 523h443l-570 -789h283v-205h-328v-358h-409v358h-328v205h283z" />
    <glyph glyph-name="uni04B1" unicode="&#x4b1;" 
d="M20 1004h365l311 -680l312 680h364l-459 -1004h254v-164h-286v-266h-369v266h-287v164h254z" />
    <glyph glyph-name="uni04B2" unicode="&#x4b2;" horiz-adv-x="1720" 
d="M20 0l570 688l-549 664h457l321 -387l322 387h456l-548 -664l366 -442h264v-615h-348v369h-170l-342 412l-342 -412h-457z" />
    <glyph glyph-name="uni04B3" unicode="&#x4b3;" horiz-adv-x="1372" 
d="M20 0l441 508l-430 496h411l224 -259l223 259h411l-430 -496l254 -293h207v-543h-307v328h-125l-233 270l-234 -270h-412z" />
    <glyph glyph-name="uni04B4" unicode="&#x4b4;" horiz-adv-x="2170" 
d="M41 1106v246h1311v-246h-451v-860h594v1106h410v-1106h225v-615h-348v369h-1290v1106h-451z" />
    <glyph glyph-name="uni04B5" unicode="&#x4b5;" horiz-adv-x="1720" 
d="M61 788v216h943v-216h-287v-573h409v789h369v-789h184v-543h-307v328h-1024v788h-287z" />
    <glyph glyph-name="uni04B6" unicode="&#x4b6;" horiz-adv-x="1720" 
d="M102 760v592h410v-568q0 -57 72 -57h460v625h410v-1106h225v-615h-348v369h-287v481h-593q-349 0 -349 279z" />
    <glyph glyph-name="uni04B7" unicode="&#x4b7;" horiz-adv-x="1433" 
d="M102 594v410h369v-400q0 -41 51 -41h318v441h368v-789h185v-543h-308v328h-245v348h-430q-308 0 -308 246z" />
    <glyph glyph-name="uni04B8" unicode="&#x4b8;" horiz-adv-x="1597" 
d="M102 760v592h410v-568q0 -57 72 -57h82v287h225v-287h153v625h410v-1352h-410v481h-153v-286h-225v286h-215q-349 0 -349 279z" />
    <glyph glyph-name="uni04B9" unicode="&#x4b9;" horiz-adv-x="1351" 
d="M102 594v410h369v-400q0 -41 51 -41h51v205h185v-205h102v441h369v-1004h-369v348h-102v-205h-185v205h-163q-308 0 -308 246z" />
    <glyph glyph-name="uni04BA" unicode="&#x4ba;" horiz-adv-x="1617" 
d="M143 0v1352h410v-523h594q348 0 348 -278v-551h-410v526q0 58 -71 58h-461v-584h-410z" />
    <glyph glyph-name="uni04BB" unicode="&#x4bb;" horiz-adv-x="1331" 
d="M123 0v1004h369v-379h430q307 0 307 -246v-379h-369v369q0 41 -51 41h-317v-410h-369z" />
    <glyph glyph-name="uni04BC" unicode="&#x4bc;" horiz-adv-x="1904" 
d="M41 584v245h328v244q0 279 348 279h696q348 0 348 -279v-489h-983v-281q0 -57 72 -57h850v-246h-983q-348 0 -348 279v305h-328zM778 829h574v220q0 57 -72 57h-430q-72 0 -72 -57v-220z" />
    <glyph glyph-name="uni04BD" unicode="&#x4bd;" horiz-adv-x="1556" 
d="M61 410v215h267v133q0 246 307 246h491q308 0 308 -246v-348h-738v-154q0 -41 52 -41h645v-215h-758q-307 0 -307 246v164h-267zM696 625h369v123q0 40 -51 40h-266q-52 0 -52 -40v-123z" />
    <glyph glyph-name="uni04C0" unicode="&#x4c0;" horiz-adv-x="696" 
d="M143 0v1352h410v-1352h-410z" />
    <glyph glyph-name="uni04C1" unicode="&#x4c1;" horiz-adv-x="2416" 
d="M20 0l601 793l-580 559h502l461 -445v445h409v-445l461 445h502l-580 -559l600 -793h-459l-407 539l-117 -113v-426h-409v426l-117 113l-408 -539h-459zM891 1622v180h205v-170q0 -24 30 -24h164q31 0 31 24v170h205v-180q0 -147 -185 -147h-266q-184 0 -184 147z" />
    <glyph glyph-name="uni04C2" unicode="&#x4c2;" horiz-adv-x="1986" 
d="M20 0l453 584l-432 420h440l328 -320v320h369v-320l327 320h441l-433 -420l453 -584h-399l-281 362l-108 -104v-258h-369v258l-109 104l-280 -362h-400zM676 1274v180h205v-170q0 -24 30 -24h164q31 0 31 24v170h205v-180q0 -148 -185 -148h-266q-184 0 -184 148z" />
    <glyph glyph-name="uni04CB" unicode="&#x4cb;" horiz-adv-x="1597" 
d="M102 760v592h410v-568q0 -57 72 -57h460v625h410v-1352h-287v-369h-348v615h225v235h-593q-349 0 -349 279z" />
    <glyph glyph-name="uni04CC" unicode="&#x4cc;" horiz-adv-x="1331" 
d="M102 594v410h369v-400q0 -41 51 -41h318v441h368v-1004h-245v-328h-308v543h185v133h-430q-308 0 -308 246z" />
    <glyph glyph-name="uni04CF" unicode="&#x4cf;" horiz-adv-x="614" 
d="M123 0v1352h369v-1352h-369z" />
    <glyph glyph-name="uni04D0" unicode="&#x4d0;" horiz-adv-x="1699" 
d="M10 0l584 1352h512l584 -1352h-402l-123 287h-630l-123 -287h-402zM532 1622v180h205v-170q0 -24 31 -24h164q31 0 31 24v170h204v-180q0 -147 -184 -147h-266q-185 0 -185 147zM641 532h418l-209 482z" />
    <glyph glyph-name="uni04D1" unicode="&#x4d1;" horiz-adv-x="1331" 
d="M102 246v133q0 246 308 246h430v123q0 40 -52 40h-604v216h717q307 0 307 -246v-758h-798q-308 0 -308 246zM348 1274v180h205v-170q0 -24 31 -24h164q30 0 30 24v170h205v-180q0 -148 -184 -148h-267q-184 0 -184 148zM471 256q0 -41 51 -41h318v195h-318q-51 0 -51 -41
v-113z" />
    <glyph glyph-name="uni04D2" unicode="&#x4d2;" horiz-adv-x="1699" 
d="M10 0l584 1352h512l584 -1352h-402l-123 287h-630l-123 -287h-402zM471 1516v245h287v-245h-287zM641 532h418l-209 482zM942 1516v245h287v-245h-287z" />
    <glyph glyph-name="uni04D3" unicode="&#x4d3;" horiz-adv-x="1331" 
d="M102 246v133q0 246 308 246h430v123q0 40 -52 40h-604v216h717q307 0 307 -246v-758h-798q-308 0 -308 246zM287 1167v246h286v-246h-286zM471 256q0 -41 51 -41h318v195h-318q-51 0 -51 -41v-113zM758 1167v246h286v-246h-286z" />
    <glyph glyph-name="uni04D4" unicode="&#x4d4;" horiz-adv-x="2355" 
d="M10 0l584 1352h1659v-246h-819v-277h716v-245h-716v-338h819v-246h-1229v287h-489l-123 -287h-402zM641 532h383v574h-135z" />
    <glyph glyph-name="uni04D5" unicode="&#x4d5;" horiz-adv-x="2068" 
d="M102 246v133q0 246 308 246h430v123q0 40 -52 40h-604v216h1454q308 0 308 -246v-348h-738v-154q0 -41 52 -41h645v-215h-1495q-308 0 -308 246zM471 256q0 -41 51 -41h318v195h-318q-51 0 -51 -41v-113zM1208 625h369v123q0 40 -51 40h-266q-52 0 -52 -40v-123z" />
    <glyph glyph-name="uni04D6" unicode="&#x4d6;" horiz-adv-x="1556" 
d="M143 0v1352h1311v-246h-901v-277h799v-245h-799v-338h901v-246h-1311zM481 1622v180h205v-170q0 -24 31 -24h164q30 0 30 24v170h205v-180q0 -147 -184 -147h-266q-185 0 -185 147z" />
    <glyph glyph-name="uni04D7" unicode="&#x4d7;" horiz-adv-x="1351" 
d="M123 246v512q0 246 307 246h492q307 0 307 -246v-348h-737v-154q0 -41 51 -41h645v-215h-758q-307 0 -307 246zM358 1274v180h205v-170q0 -24 31 -24h164q30 0 30 24v170h205v-180q0 -148 -184 -148h-266q-185 0 -185 148zM492 625h368v123q0 40 -51 40h-266
q-51 0 -51 -40v-123z" />
    <glyph glyph-name="uni04D8" unicode="&#x4d8;" horiz-adv-x="1679" 
d="M143 279v489h983v281q0 57 -71 57h-850v246h983q348 0 348 -279v-794q0 -279 -348 -279h-696q-349 0 -349 279zM553 303q0 -57 72 -57h430q71 0 71 57v219h-573v-219z" />
    <glyph glyph-name="uni04D9" unicode="&#x4d9;" horiz-adv-x="1351" 
d="M123 246v348h737v154q0 40 -51 40h-645v216h758q307 0 307 -246v-512q0 -246 -307 -246h-492q-307 0 -307 246zM492 256q0 -41 51 -41h266q51 0 51 41v123h-368v-123z" />
    <glyph glyph-name="uni04DC" unicode="&#x4dc;" horiz-adv-x="2416" 
d="M20 0l601 793l-580 559h502l461 -445v445h409v-445l461 445h502l-580 -559l600 -793h-459l-407 539l-117 -113v-426h-409v426l-117 113l-408 -539h-459zM829 1516v245h287v-245h-287zM1300 1516v245h287v-245h-287z" />
    <glyph glyph-name="uni04DD" unicode="&#x4dd;" horiz-adv-x="1986" 
d="M20 0l453 584l-432 420h440l328 -320v320h369v-320l327 320h441l-433 -420l453 -584h-399l-281 362l-108 -104v-258h-369v258l-109 104l-280 -362h-400zM614 1167v246h287v-246h-287zM1085 1167v246h287v-246h-287z" />
    <glyph glyph-name="uni04DE" unicode="&#x4de;" horiz-adv-x="1556" 
d="M102 0v246h830q72 0 72 57v223q0 58 -72 58h-645v245h645q72 0 72 58v162q0 57 -72 57h-830v246h963q348 0 348 -279v-112q0 -179 -145 -244q145 -65 145 -244v-194q0 -279 -348 -279h-963zM379 1516v245h287v-245h-287zM850 1516v245h287v-245h-287z" />
    <glyph glyph-name="uni04DF" unicode="&#x4df;" horiz-adv-x="1228" 
d="M82 0v215h604q51 0 51 41v113q0 41 -51 41h-461v215h461q51 0 51 41v82q0 40 -51 40h-604v216h717q307 0 307 -252q0 -175 -143 -230q143 -54 143 -221v-55q0 -246 -307 -246h-717zM215 1167v246h287v-246h-287zM686 1167v246h287v-246h-287z" />
    <glyph glyph-name="uni04E0" unicode="&#x4e0;" horiz-adv-x="1556" 
d="M102 0v246h830q72 0 72 57v223q0 58 -72 58h-318v245l299 277h-811v246h1311v-246l-299 -277q299 -21 299 -278v-272q0 -279 -348 -279h-963z" />
    <glyph glyph-name="uni04E1" unicode="&#x4e1;" horiz-adv-x="1228" 
d="M82 0v215h604q51 0 51 41v113q0 41 -51 41h-235v215l200 163h-569v216h1024v-216l-209 -170q209 -38 209 -239v-133q0 -246 -307 -246h-717z" />
    <glyph glyph-name="uni04E2" unicode="&#x4e2;" horiz-adv-x="1720" 
d="M143 0v1352h410v-811l584 811h440v-1352h-410v811l-583 -811h-441zM502 1536v195h717v-195h-717z" />
    <glyph glyph-name="uni04E3" unicode="&#x4e3;" horiz-adv-x="1433" 
d="M123 0v1004h369v-553l409 553h410v-1004h-369v553l-410 -553h-409zM358 1188v194h717v-194h-717z" />
    <glyph glyph-name="uni04E4" unicode="&#x4e4;" horiz-adv-x="1720" 
d="M143 0v1352h410v-811l584 811h440v-1352h-410v811l-583 -811h-441zM481 1516v245h287v-245h-287zM952 1516v245h287v-245h-287z" />
    <glyph glyph-name="uni04E5" unicode="&#x4e5;" horiz-adv-x="1433" 
d="M123 0v1004h369v-553l409 553h410v-1004h-369v553l-410 -553h-409zM338 1167v246h287v-246h-287zM809 1167v246h287v-246h-287z" />
    <glyph glyph-name="uni04E6" unicode="&#x4e6;" horiz-adv-x="1699" 
d="M143 279v794q0 279 349 279h716q348 0 348 -279v-794q0 -279 -348 -279h-716q-349 0 -349 279zM471 1516v245h287v-245h-287zM553 303q0 -57 72 -57h450q72 0 72 57v746q0 57 -72 57h-450q-72 0 -72 -57v-746zM942 1516v245h287v-245h-287z" />
    <glyph glyph-name="uni04E7" unicode="&#x4e7;" 
d="M123 246v512q0 246 307 246h533q307 0 307 -246v-512q0 -246 -307 -246h-533q-307 0 -307 246zM317 1167v246h287v-246h-287zM492 256q0 -41 51 -41h307q51 0 51 41v492q0 40 -51 40h-307q-51 0 -51 -40v-492zM788 1167v246h287v-246h-287z" />
    <glyph glyph-name="uni04E8" unicode="&#x4e8;" horiz-adv-x="1699" 
d="M143 279v794q0 279 349 279h716q348 0 348 -279v-794q0 -279 -348 -279h-716q-349 0 -349 279zM553 303q0 -57 72 -57h450q72 0 72 57v301h-594v-301zM553 809h594v240q0 57 -72 57h-450q-72 0 -72 -57v-240z" />
    <glyph glyph-name="uni04E9" unicode="&#x4e9;" 
d="M123 246v512q0 246 307 246h533q307 0 307 -246v-512q0 -246 -307 -246h-533q-307 0 -307 246zM492 256q0 -41 51 -41h307q51 0 51 41v174h-409v-174zM492 604h409v144q0 40 -51 40h-307q-51 0 -51 -40v-144z" />
    <glyph glyph-name="uni04EE" unicode="&#x4ee;" horiz-adv-x="1576" 
d="M10 1352h436l353 -592l338 592h430l-768 -1352h-430l217 385zM440 1536v195h717v-195h-717z" />
    <glyph glyph-name="uni04EF" unicode="&#x4ef;" 
d="M20 1004h365l311 -680l312 680h364l-655 -1434h-365l162 354zM338 1188v194h717v-194h-717z" />
    <glyph glyph-name="uni04F0" unicode="&#x4f0;" horiz-adv-x="1576" 
d="M10 1352h436l353 -592l338 592h430l-768 -1352h-430l217 385zM420 1516v245h287v-245h-287zM891 1516v245h287v-245h-287z" />
    <glyph glyph-name="uni04F1" unicode="&#x4f1;" 
d="M20 1004h365l311 -680l312 680h364l-655 -1434h-365l162 354zM317 1167v246h287v-246h-287zM788 1167v246h287v-246h-287z" />
    <glyph glyph-name="uni04F2" unicode="&#x4f2;" horiz-adv-x="1576" 
d="M10 1352h436l353 -592l338 592h430l-768 -1352h-430l217 385zM430 1475l205 327h297l-266 -327h-236zM850 1475l205 327h297l-267 -327h-235z" />
    <glyph glyph-name="uni04F3" unicode="&#x4f3;" 
d="M20 1004h365l311 -680l312 680h364l-655 -1434h-365l162 354zM328 1126l204 328h297l-266 -328h-235zM748 1126l204 328h297l-266 -328h-235z" />
    <glyph glyph-name="uni04F4" unicode="&#x4f4;" horiz-adv-x="1597" 
d="M102 760v592h410v-568q0 -57 72 -57h460v625h410v-1352h-410v481h-593q-349 0 -349 279zM399 1516v245h287v-245h-287zM870 1516v245h287v-245h-287z" />
    <glyph glyph-name="uni04F5" unicode="&#x4f5;" horiz-adv-x="1331" 
d="M102 594v410h369v-400q0 -41 51 -41h318v441h368v-1004h-368v348h-430q-308 0 -308 246zM276 1167v246h287v-246h-287zM748 1167v246h286v-246h-286z" />
    <glyph glyph-name="uni04F6" unicode="&#x4f6;" horiz-adv-x="1413" 
d="M143 0v1352h1229v-246h-819v-860h225v-615h-348v369h-287z" />
    <glyph glyph-name="uni04F7" unicode="&#x4f7;" horiz-adv-x="1167" 
d="M123 0v1004h983v-216h-614v-573h184v-543h-307v328h-246z" />
    <glyph glyph-name="uni04F8" unicode="&#x4f8;" horiz-adv-x="2232" 
d="M143 0v1352h410v-523h594q348 0 348 -278v-272q0 -279 -348 -279h-1004zM553 246h461q71 0 71 57v223q0 58 -71 58h-461v-338zM737 1516v245h287v-245h-287zM1208 1516v245h287v-245h-287zM1679 0v1352h410v-1352h-410z" />
    <glyph glyph-name="uni04F9" unicode="&#x4f9;" horiz-adv-x="1884" 
d="M123 0v1004h369v-379h430q307 0 307 -246v-133q0 -246 -307 -246h-799zM492 215h317q51 0 51 41v113q0 41 -51 41h-317v-195zM573 1167v246h287v-246h-287zM1044 1167v246h287v-246h-287zM1393 0v1004h368v-1004h-368z" />
    <glyph glyph-name="uni0524" unicode="&#x524;" horiz-adv-x="1822" 
d="M143 0v1352h1413v-1106h226v-615h-348v369h-287v1106h-594v-1106h-410z" />
    <glyph glyph-name="uni0525" unicode="&#x525;" horiz-adv-x="1495" 
d="M123 0v1004h1147v-789h184v-543h-307v328h-246v788h-409v-788h-369z" />
    <glyph glyph-name="uni1E02" unicode="&#x1e02;" horiz-adv-x="1638" 
d="M143 0v1352h1004q348 0 348 -279v-119q0 -172 -133 -237q154 -62 154 -248v-190q0 -279 -349 -279h-1024zM553 246h481q72 0 72 57v223q0 58 -72 58h-481v-338zM553 829h461q71 0 71 58v162q0 57 -71 57h-461v-277zM666 1516v245h327v-245h-327z" />
    <glyph glyph-name="uni1E03" unicode="&#x1e03;" 
d="M123 0v1352h369v-348h471q307 0 307 -246v-512q0 -246 -307 -246h-840zM492 215h358q51 0 51 41v492q0 40 -51 40h-358v-573zM532 1516v245h328v-245h-328z" />
    <glyph glyph-name="uni1E0A" unicode="&#x1e0a;" horiz-adv-x="1679" 
d="M143 0v1352h717q696 0 696 -557v-238q0 -557 -696 -557h-717zM553 246h225q369 0 369 295v270q0 295 -369 295h-225v-860zM645 1516v245h328v-245h-328z" />
    <glyph glyph-name="uni1E0B" unicode="&#x1e0b;" 
d="M123 246v512q0 246 307 246h471v348h369v-1352h-840q-307 0 -307 246zM492 256q0 -41 51 -41h358v573h-358q-51 0 -51 -40v-492zM532 1516v245h328v-245h-328z" />
    <glyph glyph-name="uni1E1E" unicode="&#x1e1e;" horiz-adv-x="1495" 
d="M143 0v1352h1291v-246h-881v-297h778v-246h-778v-563h-410zM625 1516v245h327v-245h-327z" />
    <glyph glyph-name="uni1E1F" unicode="&#x1e1f;" horiz-adv-x="901" 
d="M123 0v1106q0 246 307 246h410v-215h-297q-51 0 -51 -41v-92h348v-216h-348v-788h-369zM317 1516v245h328v-245h-328z" />
    <glyph glyph-name="uni1E40" unicode="&#x1e40;" horiz-adv-x="2129" 
d="M143 0v1352h502l420 -944l420 944h502v-1352h-410v713l-317 -713h-390l-317 713v-713h-410zM901 1516v245h328v-245h-328z" />
    <glyph glyph-name="uni1E41" unicode="&#x1e41;" horiz-adv-x="1966" 
d="M123 0v1004h1413q307 0 307 -246v-758h-368v748q0 40 -52 40h-256v-788h-368v748q0 40 -51 40h-256v-788h-369zM819 1167v246h328v-246h-328z" />
    <glyph glyph-name="uni1E56" unicode="&#x1e56;" horiz-adv-x="1597" 
d="M143 0v1352h1004q348 0 348 -279v-313q0 -279 -348 -279h-594v-481h-410zM553 727h461q71 0 71 57v265q0 57 -71 57h-461v-379zM655 1516v245h328v-245h-328z" />
    <glyph glyph-name="uni1E57" unicode="&#x1e57;" 
d="M123 -430v1434h840q307 0 307 -246v-512q0 -246 -307 -246h-471v-430h-369zM492 215h358q51 0 51 41v492q0 40 -51 40h-358v-573zM532 1167v246h328v-246h-328z" />
    <glyph glyph-name="uni1E60" unicode="&#x1e60;" horiz-adv-x="1597" 
d="M123 0v246h870q72 0 72 57v223q0 58 -72 58h-522q-348 0 -348 278v211q0 279 348 279h901v-246h-768q-72 0 -72 -57v-162q0 -58 72 -58h522q349 0 349 -278v-272q0 -279 -349 -279h-1003zM635 1516v245h328v-245h-328z" />
    <glyph glyph-name="uni1E61" unicode="&#x1e61;" horiz-adv-x="1249" 
d="M102 0v215h625q51 0 51 41v113q0 41 -51 41h-317q-308 0 -308 245v103q0 246 308 246h655v-216h-543q-51 0 -51 -40v-82q0 -41 51 -41h318q307 0 307 -246v-133q0 -246 -307 -246h-738zM461 1167v246h327v-246h-327z" />
    <glyph glyph-name="uni1E6A" unicode="&#x1e6a;" horiz-adv-x="1597" 
d="M41 1106v246h1515v-246h-552v-1106h-410v1106h-553zM635 1516v245h328v-245h-328z" />
    <glyph glyph-name="uni1E6B" unicode="&#x1e6b;" horiz-adv-x="921" 
d="M123 246v1106h369v-348h348v-216h-348v-532q0 -41 51 -41h297v-215h-410q-307 0 -307 246zM317 1516v245h328v-245h-328z" />
    <glyph glyph-name="Wgrave" unicode="&#x1e80;" horiz-adv-x="2457" 
d="M31 1352h399l268 -953l316 953h430l315 -953l269 953h399l-379 -1352h-522l-297 895l-297 -895h-522zM870 1802h328l225 -327h-266z" />
    <glyph glyph-name="wgrave" unicode="&#x1e81;" horiz-adv-x="1904" 
d="M20 1004h349l206 -656l207 656h340l207 -656l207 656h348l-317 -1004h-420l-195 616l-194 -616h-420zM594 1454h328l225 -328h-266z" />
    <glyph glyph-name="Wacute" unicode="&#x1e82;" horiz-adv-x="2457" 
d="M31 1352h399l268 -953l316 953h430l315 -953l269 953h399l-379 -1352h-522l-297 895l-297 -895h-522zM1034 1475l226 327h327l-287 -327h-266z" />
    <glyph glyph-name="wacute" unicode="&#x1e83;" horiz-adv-x="1904" 
d="M20 1004h349l206 -656l207 656h340l207 -656l207 656h348l-317 -1004h-420l-195 616l-194 -616h-420zM758 1126l225 328h328l-287 -328h-266z" />
    <glyph glyph-name="Wdieresis" unicode="&#x1e84;" horiz-adv-x="2457" 
d="M31 1352h399l268 -953l316 953h430l315 -953l269 953h399l-379 -1352h-522l-297 895l-297 -895h-522zM850 1516v245h287v-245h-287zM1321 1516v245h287v-245h-287z" />
    <glyph glyph-name="wdieresis" unicode="&#x1e85;" horiz-adv-x="1904" 
d="M20 1004h349l206 -656l207 656h340l207 -656l207 656h348l-317 -1004h-420l-195 616l-194 -616h-420zM573 1167v246h287v-246h-287zM1044 1167v246h287v-246h-287z" />
    <glyph glyph-name="uni1E9E" unicode="&#x1e9e;" horiz-adv-x="1679" 
d="M143 0v1073q0 279 349 279h901v-246l-203 -277h18q348 0 348 -278v-272q0 -279 -348 -279h-460v246h327q72 0 72 57v223q0 58 -72 58h-327v245l202 277h-325q-72 0 -72 -57v-1049h-410z" />
    <glyph glyph-name="Ygrave" unicode="&#x1ef2;" horiz-adv-x="1658" 
d="M10 1352h443l376 -523l377 523h443l-615 -850v-502h-409v502zM471 1802h328l225 -327h-266z" />
    <glyph glyph-name="ygrave" unicode="&#x1ef3;" 
d="M20 1004h365l311 -680l312 680h364l-655 -1434h-365l162 354zM338 1454h328l225 -328h-266z" />
    <glyph glyph-name="uni2007" unicode="&#x2007;" horiz-adv-x="1515" 
 />
    <glyph glyph-name="uni2008" unicode="&#x2008;" horiz-adv-x="696" 
 />
    <glyph glyph-name="uni2009" unicode="&#x2009;" horiz-adv-x="409" 
 />
    <glyph glyph-name="uni200A" unicode="&#x200a;" horiz-adv-x="204" 
 />
    <glyph glyph-name="figuredash" unicode="&#x2012;" horiz-adv-x="1515" 
d="M328 461v246h860v-246h-860z" />
    <glyph glyph-name="endash" unicode="&#x2013;" horiz-adv-x="1310" 
d="M82 461v246h1147v-246h-1147z" />
    <glyph glyph-name="emdash" unicode="&#x2014;" horiz-adv-x="2048" 
d="M82 461v246h1884v-246h-1884z" />
    <glyph glyph-name="uni2015" unicode="&#x2015;" horiz-adv-x="2048" 
d="M0 461v246h2048v-246h-2048z" />
    <glyph glyph-name="quoteleft" unicode="&#x2018;" horiz-adv-x="696" 
d="M82 778l235 574h277l-143 -574h-369z" />
    <glyph glyph-name="quoteright" unicode="&#x2019;" horiz-adv-x="696" 
d="M102 778l144 574h368l-235 -574h-277z" />
    <glyph glyph-name="quotesinglbase" unicode="&#x201a;" horiz-adv-x="696" 
d="M51 -266l144 573h368l-235 -573h-277z" />
    <glyph glyph-name="quotereversed" unicode="&#x201b;" horiz-adv-x="696" 
d="M82 1352h369l143 -574h-277z" />
    <glyph glyph-name="quotedblleft" unicode="&#x201c;" horiz-adv-x="1228" 
d="M82 778l235 574h277l-143 -574h-369zM614 778l236 574h276l-143 -574h-369z" />
    <glyph glyph-name="quotedblright" unicode="&#x201d;" horiz-adv-x="1228" 
d="M102 778l144 574h368l-235 -574h-277zM635 778l143 574h369l-236 -574h-276z" />
    <glyph glyph-name="quotedblbase" unicode="&#x201e;" horiz-adv-x="1228" 
d="M51 -266l144 573h368l-235 -573h-277zM584 -266l143 573h369l-236 -573h-276z" />
    <glyph glyph-name="uni201F" unicode="&#x201f;" horiz-adv-x="1228" 
d="M82 1352h369l143 -574h-277zM614 1352h369l143 -574h-276z" />
    <glyph glyph-name="dagger" unicode="&#x2020;" horiz-adv-x="1310" 
d="M102 788v216h369v348h369v-348h368v-216h-368v-1003h-369v1003h-369z" />
    <glyph glyph-name="daggerdbl" unicode="&#x2021;" horiz-adv-x="1310" 
d="M102 133v215h369v440h-369v216h369v348h369v-348h368v-216h-368v-440h368v-215h-368v-348h-369v348h-369z" />
    <glyph glyph-name="bullet" unicode="&#x2022;" horiz-adv-x="880" 
d="M154 369v532h573v-532h-573z" />
    <glyph glyph-name="ellipsis" unicode="&#x2026;" horiz-adv-x="2088" 
d="M154 0v307h389v-307h-389zM850 0v307h389v-307h-389zM1546 0v307h389v-307h-389z" />
    <glyph glyph-name="uni202F" unicode="&#x202f;" horiz-adv-x="409" 
 />
    <glyph glyph-name="perthousand" unicode="&#x2030;" horiz-adv-x="3215" 
d="M82 745v435q0 172 215 172h348q215 0 215 -172v-435q0 -172 -215 -172h-348q-215 0 -215 172zM369 770q0 -33 41 -33h122q41 0 41 33v385q0 33 -41 33h-122q-41 0 -41 -33v-385zM604 0l742 1352h323l-741 -1352h-324zM1413 172v434q0 172 215 172h348q215 0 215 -172
v-434q0 -172 -215 -172h-348q-215 0 -215 172zM1700 197q0 -33 41 -33h123q41 0 41 33v385q0 32 -41 32h-123q-41 0 -41 -32v-385zM2355 172v434q0 172 215 172h348q215 0 215 -172v-434q0 -172 -215 -172h-348q-215 0 -215 172zM2642 197q0 -33 41 -33h123q41 0 41 33v385
q0 32 -41 32h-123q-41 0 -41 -32v-385z" />
    <glyph glyph-name="minute" unicode="&#x2032;" horiz-adv-x="614" 
d="M143 778v574h328v-574h-328z" />
    <glyph glyph-name="second" unicode="&#x2033;" horiz-adv-x="1146" 
d="M143 778v574h328v-574h-328zM676 778v574h328v-574h-328z" />
    <glyph glyph-name="guilsinglleft" unicode="&#x2039;" horiz-adv-x="901" 
d="M61 532l400 431h358l-379 -431l379 -430h-358z" />
    <glyph glyph-name="guilsinglright" unicode="&#x203a;" horiz-adv-x="901" 
d="M82 102l379 430l-379 431h358l400 -431l-400 -430h-358z" />
    <glyph glyph-name="uni203D" unicode="&#x203d;" horiz-adv-x="1515" 
d="M82 1106v246h983q348 0 348 -279v-211q0 -278 -348 -278h-225v-123h-410v645h-348zM430 0v307h410v-307h-410zM840 829h92q72 0 72 58v162q0 57 -72 57h-92v-277z" />
    <glyph glyph-name="uni203E" unicode="&#x203e;" horiz-adv-x="1310" 
d="M0 1526v215h1311v-215h-1311z" />
    <glyph glyph-name="fraction" unicode="&#x2044;" horiz-adv-x="389" 
d="M-338 0l741 1352h324l-741 -1352h-324z" />
    <glyph glyph-name="uni2070" unicode="&#x2070;" horiz-adv-x="942" 
d="M82 745v435q0 172 215 172h348q215 0 215 -172v-435q0 -172 -215 -172h-348q-215 0 -215 172zM369 770q0 -33 41 -33h122q41 0 41 33v385q0 33 -41 33h-122q-41 0 -41 -33v-385z" />
    <glyph glyph-name="uni2074" unicode="&#x2074;" horiz-adv-x="942" 
d="M82 707v163l420 482h358v-779h-287v134h-491zM385 870h188v215z" />
    <glyph glyph-name="uni2075" unicode="&#x2075;" horiz-adv-x="942" 
d="M82 573v164h450q41 0 41 33v88q0 33 -41 33h-450v461h737v-164h-450v-133h276q215 0 215 -172v-138q0 -172 -215 -172h-563z" />
    <glyph glyph-name="uni2076" unicode="&#x2076;" horiz-adv-x="942" 
d="M82 745v402q0 205 256 205h461v-164h-369q-61 0 -61 -49v-84h276q215 0 215 -172v-138q0 -172 -215 -172h-348q-215 0 -215 172zM369 770q0 -33 41 -33h122q41 0 41 33v88q0 33 -41 33h-163v-121z" />
    <glyph glyph-name="uni2077" unicode="&#x2077;" horiz-adv-x="942" 
d="M82 1188v164h778v-164l-336 -615h-325l336 615h-453z" />
    <glyph glyph-name="uni2078" unicode="&#x2078;" horiz-adv-x="942" 
d="M82 745v72q0 120 102 156q-102 36 -102 155v52q0 172 215 172h348q215 0 215 -172v-52q0 -119 -102 -155q102 -36 102 -156v-72q0 -172 -215 -172h-348q-215 0 -215 172zM369 770q0 -33 41 -33h122q41 0 41 33v88q0 33 -41 33h-122q-41 0 -41 -33v-88zM369 1087
q0 -32 41 -32h122q41 0 41 32v68q0 33 -41 33h-122q-41 0 -41 -33v-68z" />
    <glyph glyph-name="uni2079" unicode="&#x2079;" horiz-adv-x="942" 
d="M82 1063v117q0 172 215 172h348q215 0 215 -172v-402q0 -205 -256 -205h-481v164h389q61 0 61 49v105h-276q-215 0 -215 172zM369 1087q0 -32 41 -32h163v100q0 33 -41 33h-122q-41 0 -41 -33v-68z" />
    <glyph glyph-name="uni207A" unicode="&#x207a;" horiz-adv-x="942" 
d="M113 819v185h235v225h246v-225h235v-185h-235v-225h-246v225h-235z" />
    <glyph glyph-name="uni207B" unicode="&#x207b;" horiz-adv-x="942" 
d="M113 819v185h716v-185h-716z" />
    <glyph glyph-name="uni207C" unicode="&#x207c;" horiz-adv-x="942" 
d="M113 655v185h716v-185h-716zM113 983v184h716v-184h-716z" />
    <glyph glyph-name="uni207D" unicode="&#x207d;" horiz-adv-x="593" 
d="M113 860q0 138 45 265.5t129 226.5h235q-77 -100 -120.5 -231t-43.5 -261t43.5 -260.5t120.5 -230.5h-235q-85 100 -129.5 226.5t-44.5 264.5z" />
    <glyph glyph-name="uni207E" unicode="&#x207e;" horiz-adv-x="593" 
d="M72 369q77 100 120.5 230.5t43.5 260.5t-43.5 261t-120.5 231h235q84 -99 129 -226.5t45 -265.5t-44.5 -264.5t-129.5 -226.5h-235z" />
    <glyph glyph-name="uni207F" unicode="&#x207f;" horiz-adv-x="942" 
d="M82 676v676h563q215 0 215 -172v-504h-287v479q0 33 -41 33h-163v-512h-287z" />
    <glyph glyph-name="uni2080" unicode="&#x2080;" horiz-adv-x="942" 
d="M82 172v434q0 172 215 172h348q215 0 215 -172v-434q0 -172 -215 -172h-348q-215 0 -215 172zM369 197q0 -33 41 -33h122q41 0 41 33v385q0 32 -41 32h-122q-41 0 -41 -32v-385z" />
    <glyph glyph-name="uni2081" unicode="&#x2081;" horiz-adv-x="942" 
d="M174 614v164h512v-778h-287v614h-225z" />
    <glyph glyph-name="uni2082" unicode="&#x2082;" horiz-adv-x="942" 
d="M82 0v309q0 172 215 172h235q41 0 41 33v68q0 32 -41 32h-399v164h512q215 0 215 -172v-117q0 -172 -215 -172h-235q-41 0 -41 -32v-121h491v-164h-778z" />
    <glyph glyph-name="uni2083" unicode="&#x2083;" horiz-adv-x="942" 
d="M102 0v164h430q41 0 41 33v88q0 32 -41 32h-327v164h327q41 0 41 33v68q0 32 -41 32h-430v164h543q215 0 215 -172v-51q0 -120 -102 -156q102 -36 102 -155v-72q0 -172 -215 -172h-543z" />
    <glyph glyph-name="uni2084" unicode="&#x2084;" horiz-adv-x="942" 
d="M82 133v164l420 481h358v-778h-287v133h-491zM385 297h188v215z" />
    <glyph glyph-name="uni2085" unicode="&#x2085;" horiz-adv-x="942" 
d="M82 0v164h450q41 0 41 33v88q0 32 -41 32h-450v461h737v-164h-450v-133h276q215 0 215 -172v-137q0 -172 -215 -172h-563z" />
    <glyph glyph-name="uni2086" unicode="&#x2086;" horiz-adv-x="942" 
d="M82 172v401q0 205 256 205h461v-164h-369q-61 0 -61 -49v-84h276q215 0 215 -172v-137q0 -172 -215 -172h-348q-215 0 -215 172zM369 197q0 -33 41 -33h122q41 0 41 33v88q0 32 -41 32h-163v-120z" />
    <glyph glyph-name="uni2087" unicode="&#x2087;" horiz-adv-x="942" 
d="M82 614v164h778v-164l-336 -614h-325l336 614h-453z" />
    <glyph glyph-name="uni2088" unicode="&#x2088;" horiz-adv-x="942" 
d="M82 172v72q0 119 102 155q-102 36 -102 156v51q0 172 215 172h348q215 0 215 -172v-51q0 -120 -102 -156q102 -36 102 -155v-72q0 -172 -215 -172h-348q-215 0 -215 172zM369 197q0 -33 41 -33h122q41 0 41 33v88q0 32 -41 32h-122q-41 0 -41 -32v-88zM369 514
q0 -33 41 -33h122q41 0 41 33v68q0 32 -41 32h-122q-41 0 -41 -32v-68z" />
    <glyph glyph-name="uni2089" unicode="&#x2089;" horiz-adv-x="942" 
d="M82 489v117q0 172 215 172h348q215 0 215 -172v-401q0 -205 -256 -205h-481v164h389q61 0 61 49v104h-276q-215 0 -215 172zM369 514q0 -33 41 -33h163v101q0 32 -41 32h-122q-41 0 -41 -32v-68z" />
    <glyph glyph-name="uni208A" unicode="&#x208a;" horiz-adv-x="942" 
d="M113 246v184h235v225h246v-225h235v-184h-235v-226h-246v226h-235z" />
    <glyph glyph-name="uni208B" unicode="&#x208b;" horiz-adv-x="942" 
d="M113 246v184h716v-184h-716z" />
    <glyph glyph-name="uni208C" unicode="&#x208c;" horiz-adv-x="942" 
d="M113 82v184h716v-184h-716zM113 410v184h716v-184h-716z" />
    <glyph glyph-name="uni208D" unicode="&#x208d;" horiz-adv-x="593" 
d="M113 287q0 138 44.5 264.5t129.5 226.5h235q-77 -100 -120.5 -230.5t-43.5 -260.5t43.5 -261t120.5 -231h-235q-84 99 -129 226.5t-45 265.5z" />
    <glyph glyph-name="uni208E" unicode="&#x208e;" horiz-adv-x="593" 
d="M72 -205q77 100 120.5 231t43.5 261t-43.5 260.5t-120.5 230.5h235q85 -100 129.5 -226.5t44.5 -264.5t-45 -265.5t-129 -226.5h-235z" />
    <glyph glyph-name="lira" unicode="&#x20a4;" horiz-adv-x="1515" 
d="M61 0v246h205v184h-205v184h205v123h-205v185h205v151q0 279 348 279h717v-246h-583q-72 0 -72 -57v-127h450v-185h-450v-123h450v-184h-450v-184h737v-246h-1352z" />
    <glyph glyph-name="uni20A6" unicode="&#x20a6;" horiz-adv-x="1822" 
d="M41 430v184h205v123h-205v185h205v430h450l471 -768v768h410v-430h205v-185h-205v-123h205v-184h-205v-430h-451l-471 768v-768h-409v430h-205z" />
    <glyph glyph-name="uni20A9" unicode="&#x20a9;" horiz-adv-x="2457" 
d="M41 430v184h266l-31 123h-235v185h186l-114 430h397l231 -869l273 869h430l272 -869l232 869h397l-115 -430h187v-185h-236l-31 -123h267v-184h-316l-114 -430h-482l-276 877l-277 -877h-481l-115 430h-315z" />
    <glyph glyph-name="dong" unicode="&#x20ab;" horiz-adv-x="1515" 
d="M164 -133h1147v-164h-1147v164zM164 246v512q0 246 307 246h471v92h-369v164h369v92h369v-92h143v-164h-143v-1096h-840q-307 0 -307 246zM532 256q0 -41 52 -41h358v573h-358q-52 0 -52 -40v-492z" />
    <glyph glyph-name="Euro" unicode="&#x20ac;" horiz-adv-x="1515" 
d="M41 430v184h184v123h-184v185h184v151q0 279 348 279h861v-246h-727q-72 0 -72 -57v-127h512v-185h-512v-123h512v-184h-512v-127q0 -57 72 -57h727v-246h-861q-348 0 -348 279v151h-184z" />
    <glyph glyph-name="uni20AF" unicode="&#x20af;" horiz-adv-x="2969" 
d="M143 0v1352h717q696 0 696 -557v-238q0 -557 -696 -557h-717zM553 246h225q369 0 369 295v270q0 295 -369 295h-225v-860zM1700 -430v1188q0 246 307 246h533q307 0 307 -246v-512q0 -246 -307 -246h-472v-430h-368zM2068 215h359q51 0 51 41v492q0 40 -51 40h-307
q-52 0 -52 -40v-533z" />
    <glyph glyph-name="uni20B1" unicode="&#x20b1;" horiz-adv-x="1740" 
d="M41 655v185h205v123h-205v184h205v205h901q300 0 340 -205h213v-184h-205v-123h205v-185h-213q-40 -204 -340 -204h-492v-451h-409v655h-205zM655 696h359q71 0 71 58v295q0 57 -71 57h-359v-410z" />
    <glyph glyph-name="uni20B9" unicode="&#x20b9;" horiz-adv-x="1515" 
d="M92 492v245h645q72 0 72 58v34h-717v185h717v35q0 57 -72 57h-645v246h1331v-185h-217q9 -35 11 -60t2 -93h204v-185h-204v-59q0 -124 -69.5 -192.5t-207.5 -85.5l324 -492h-443l-323 492h-408z" />
    <glyph glyph-name="uni20BA" unicode="&#x20ba;" horiz-adv-x="1515" 
d="M41 399v191l184 49v127l-184 -49v190l184 49v396h410v-285l369 98v-190l-369 -98v-127l369 98v-191l-369 -100v-311h246q143 0 143 114v193h410v-225q0 -328 -410 -328h-799v449z" />
    <glyph glyph-name="uni20BD" unicode="&#x20bd;" horiz-adv-x="1576" 
d="M41 195v184h205v123h-205v246h205v604h901q348 0 348 -279v-293q0 -278 -348 -278h-492v-123h564v-184h-564v-195h-409v195h-205zM655 748h359q71 0 71 57v244q0 57 -71 57h-359v-358z" />
    <glyph glyph-name="uni20BF" unicode="&#x20bf;" horiz-adv-x="1515" 
d="M102 0v1352h267v245h245v-245h144v245h246v-245h40q349 0 349 -279v-119q0 -172 -133 -237q153 -61 153 -248v-190q0 -279 -348 -279h-61v-246h-246v246h-144v-246h-245v246h-267zM512 246h420q72 0 72 57v223q0 58 -72 58h-420v-338zM512 829h399q72 0 72 58v162
q0 57 -72 57h-399v-277z" />
    <glyph glyph-name="uni2105" unicode="&#x2105;" horiz-adv-x="2273" 
d="M584 0l741 1352h324l-742 -1352h-323zM799 676h-502q-215 0 -215 172v332q0 172 215 172h502v-164h-389q-41 0 -41 -33v-283q0 -32 41 -32h389v-164zM1393 172v332q0 172 215 172h368q215 0 215 -172v-332q0 -172 -215 -172h-368q-215 0 -215 172zM1679 197q0 -33 41 -33
h144q41 0 41 33v282q0 33 -41 33h-144q-41 0 -41 -33v-282z" />
    <glyph glyph-name="uni2113" unicode="&#x2113;" horiz-adv-x="757" 
d="M123 246v1106h369v-1071q0 -66 81 -66h123v-215h-266q-307 0 -307 246z" />
    <glyph glyph-name="uni2116" unicode="&#x2116;" horiz-adv-x="2621" 
d="M143 0v1352h441l583 -811v811h410v-1352h-440l-584 811v-811h-410zM1720 848v332q0 172 215 172h349q215 0 215 -172v-332q0 -172 -215 -172h-349q-215 0 -215 172zM2007 872q0 -32 41 -32h123q41 0 41 32v283q0 33 -41 33h-123q-41 0 -41 -33v-283z" />
    <glyph glyph-name="uni2117" unicode="&#x2117;" horiz-adv-x="1966" 
d="M123 172v1008q0 172 215 172h1290q215 0 215 -172v-1008q0 -172 -215 -172h-1290q-215 0 -215 172zM410 197q0 -33 41 -33h1065q40 0 40 33v958q0 33 -40 33h-1065q-41 0 -41 -33v-958zM573 287v778h605q215 0 215 -172v-178q0 -172 -215 -172h-318v-256h-287zM860 707
h205q41 0 41 32v129q0 33 -41 33h-205v-194z" />
    <glyph glyph-name="trademark" unicode="&#x2122;" horiz-adv-x="2293" 
d="M41 1188v164h901v-164h-307v-615h-287v615h-307zM1065 573v779h348l225 -482l226 482h348v-779h-287v369l-174 -369h-225l-174 369v-369h-287z" />
    <glyph glyph-name="Omega" unicode="&#x2126;" horiz-adv-x="1699" 
d="M102 0v246h220l-101 116q-25 29 -39 48.5t-26.5 55.5t-12.5 77v530q0 279 349 279h716q348 0 348 -279v-530q0 -59 -19.5 -98.5t-57.5 -82.5l-101 -116h219v-246h-645v266l168 195q27 31 27 61v527q0 57 -72 57h-450q-72 0 -72 -57v-527q0 -30 27 -61l168 -195v-266h-646
z" />
    <glyph glyph-name="estimated" unicode="&#x212e;" horiz-adv-x="1658" 
d="M78 676q0 137 59.5 262.5t159.5 216t239.5 144t292.5 53.5q111 0 219 -29t204.5 -88.5t169.5 -142.5t116 -200t43 -253h-1186v-367q83 -91 197 -140.5t237 -49.5q138 0 254.5 56.5t194.5 148.5h166q-108 -137 -270 -212t-345 -75q-153 0 -292.5 53.5t-239.5 144
t-159.5 216t-59.5 262.5zM395 713h869v366q-83 91 -197.5 141t-237.5 50t-237 -50t-197 -141v-366z" />
    <glyph glyph-name="oneeighth" unicode="&#x215b;" horiz-adv-x="2129" 
d="M82 1188v164h512v-779h-287v615h-225zM461 0l741 1352h324l-742 -1352h-323zM1270 172v72q0 119 102 155q-102 36 -102 156v51q0 172 215 172h348q215 0 215 -172v-51q0 -120 -102 -156q102 -36 102 -155v-72q0 -172 -215 -172h-348q-215 0 -215 172zM1556 197
q0 -33 41 -33h123q41 0 41 33v88q0 32 -41 32h-123q-41 0 -41 -32v-88zM1556 514q0 -33 41 -33h123q41 0 41 33v68q0 32 -41 32h-123q-41 0 -41 -32v-68z" />
    <glyph glyph-name="threeeighths" unicode="&#x215c;" horiz-adv-x="2273" 
d="M102 573v164h430q41 0 41 33v88q0 33 -41 33h-327v164h327q41 0 41 32v68q0 33 -41 33h-430v164h543q215 0 215 -172v-52q0 -119 -102 -155q102 -36 102 -156v-72q0 -172 -215 -172h-543zM604 0l742 1352h323l-741 -1352h-324zM1413 172v72q0 118 103 155
q-103 37 -103 156v51q0 172 215 172h348q215 0 215 -172v-51q0 -120 -102 -156q102 -36 102 -155v-72q0 -172 -215 -172h-348q-215 0 -215 172zM1700 197q0 -33 41 -33h123q41 0 41 33v88q0 32 -41 32h-123q-41 0 -41 -32v-88zM1700 514q0 -33 41 -33h123q41 0 41 33v68
q0 32 -41 32h-123q-41 0 -41 -32v-68z" />
    <glyph glyph-name="fiveeighths" unicode="&#x215d;" horiz-adv-x="2273" 
d="M82 573v164h450q41 0 41 33v88q0 33 -41 33h-450v461h737v-164h-450v-133h276q215 0 215 -172v-138q0 -172 -215 -172h-563zM604 0l742 1352h323l-741 -1352h-324zM1413 172v72q0 118 103 155q-103 37 -103 156v51q0 172 215 172h348q215 0 215 -172v-51
q0 -120 -102 -156q102 -36 102 -155v-72q0 -172 -215 -172h-348q-215 0 -215 172zM1700 197q0 -33 41 -33h123q41 0 41 33v88q0 32 -41 32h-123q-41 0 -41 -32v-88zM1700 514q0 -33 41 -33h123q41 0 41 33v68q0 32 -41 32h-123q-41 0 -41 -32v-68z" />
    <glyph glyph-name="seveneighths" unicode="&#x215e;" horiz-adv-x="2170" 
d="M82 1188v164h778v-164l-336 -615h-325l336 615h-453zM502 0l741 1352h324l-742 -1352h-323zM1311 172v72q0 119 102 155q-102 36 -102 156v51q0 172 215 172h348q215 0 215 -172v-51q0 -120 -102 -156q102 -36 102 -155v-72q0 -172 -215 -172h-348q-215 0 -215 172z
M1597 197q0 -33 41 -33h123q41 0 41 33v88q0 32 -41 32h-123q-41 0 -41 -32v-88zM1597 514q0 -33 41 -33h123q41 0 41 33v68q0 32 -41 32h-123q-41 0 -41 -32v-68z" />
    <glyph glyph-name="arrowleft" unicode="&#x2190;" horiz-adv-x="1536" 
d="M82 584l502 512h399l-307 -348h758v-328h-758l307 -348h-399z" />
    <glyph glyph-name="arrowup" unicode="&#x2191;" horiz-adv-x="1269" 
d="M123 451v399l512 502l512 -502v-399l-348 307v-758h-328v758z" />
    <glyph glyph-name="arrowright" unicode="&#x2192;" horiz-adv-x="1536" 
d="M102 420v328h758l-307 348h399l502 -512l-502 -512h-399l307 348h-758z" />
    <glyph glyph-name="arrowdown" unicode="&#x2193;" horiz-adv-x="1269" 
d="M123 502v399l348 -307v758h328v-758l348 307v-399l-512 -502z" />
    <glyph glyph-name="partialdiff" unicode="&#x2202;" 
d="M123 246v512q0 246 307 246h471q-30 133 -215 133h-440v215h450q574 0 574 -459v-647q0 -246 -307 -246h-533q-307 0 -307 246zM492 256q0 -41 51 -41h307q51 0 51 41v532h-358q-51 0 -51 -40v-492z" />
    <glyph glyph-name="Delta" unicode="&#x2206;" horiz-adv-x="1699" 
d="M10 0l584 1352h512l584 -1352h-1680zM532 246h635l-317 737z" />
    <glyph glyph-name="product" unicode="&#x220f;" horiz-adv-x="1699" 
d="M143 -287v1639h1413v-1639h-409v1393h-594v-1393h-410z" />
    <glyph glyph-name="summation" unicode="&#x2211;" horiz-adv-x="1597" 
d="M143 -41l492 573l-492 574v246h1311v-246h-846l492 -574l-492 -573h846v-246h-1311v246z" />
    <glyph glyph-name="minus" unicode="&#x2212;" horiz-adv-x="1515" 
d="M174 461v246h1167v-246h-1167z" />
    <glyph glyph-name="uni2215" unicode="&#x2215;" horiz-adv-x="389" 
d="M-338 0l741 1352h324l-741 -1352h-324z" />
    <glyph glyph-name="uni2219" unicode="&#x2219;" horiz-adv-x="696" 
d="M154 430v307h389v-307h-389z" />
    <glyph glyph-name="radical" unicode="&#x221a;" horiz-adv-x="1515" 
d="M123 645v205h514l172 -512l399 1198h287l-512 -1536h-373l-217 645h-270z" />
    <glyph glyph-name="infinity" unicode="&#x221e;" horiz-adv-x="1843" 
d="M123 377v454q0 173 215 173h403q127 0 181 -62q54 62 180 62h403q215 0 215 -173v-454q0 -172 -215 -172h-403q-127 0 -180 61q-53 -61 -181 -61h-403q-215 0 -215 172zM410 432q0 -33 41 -33h266q41 0 41 33v344q0 33 -41 33h-266q-41 0 -41 -33v-344zM1085 432
q0 -33 41 -33h267q41 0 41 33v344q0 33 -41 33h-267q-41 0 -41 -33v-344z" />
    <glyph glyph-name="orthogonal" unicode="&#x221f;" horiz-adv-x="1515" 
d="M164 0v1208h266v-962h942v-246h-1208z" />
    <glyph glyph-name="integral" unicode="&#x222b;" horiz-adv-x="1105" 
d="M82 -215h235q52 0 52 41v1280q0 246 307 246h348v-215h-236q-51 0 -51 -41v-1280q0 -246 -307 -246h-348v215z" />
    <glyph glyph-name="approxequal" unicode="&#x2248;" horiz-adv-x="1515" 
d="M174 117v286l174 105q33 20 53 30.5t53.5 20.5t67.5 10t67.5 -10t53.5 -20.5t53 -30.5l236 -141q32 -19 61 -19q30 0 62 19l286 172v-287l-174 -105q-33 -20 -53 -30.5t-53.5 -20.5t-67.5 -10t-67.5 10t-53.5 20.5t-53 30.5l-235 142q-30 18 -62 18q-31 0 -61 -18z
M174 629v286l174 105q33 20 53 30.5t53.5 20.5t67.5 10t67.5 -10t53.5 -20.5t53 -30.5l236 -141q32 -19 61 -19q30 0 62 19l286 172v-287l-174 -105q-33 -20 -53 -30.5t-53.5 -20.5t-67.5 -10t-67.5 10t-53.5 20.5t-53 30.5l-235 142q-30 18 -62 18q-31 0 -61 -18z" />
    <glyph glyph-name="notequal" unicode="&#x2260;" horiz-adv-x="1515" 
d="M174 205v246h389l133 266h-522v246h645l123 245l205 -102l-72 -143h266v-246h-389l-133 -266h522v-246h-645l-123 -246l-204 102l71 144h-266z" />
    <glyph glyph-name="lessequal" unicode="&#x2264;" horiz-adv-x="1515" 
d="M195 0v246h1126v-246h-1126zM195 696v205l1126 410v-271l-666 -241l666 -242v-270z" />
    <glyph glyph-name="greaterequal" unicode="&#x2265;" horiz-adv-x="1515" 
d="M195 0v246h1126v-246h-1126zM195 287v270l665 242l-665 241v271l1126 -410v-205z" />
    <glyph glyph-name="uni2316" unicode="&#x2316;" horiz-adv-x="1863" 
d="M113 573v205h512v-205h-512zM829 -123v492h205v-492h-205zM829 573v205h205v-205h-205zM829 983v492h205v-492h-205zM1239 573v205h512v-205h-512z" />
    <glyph glyph-name="filledbox" unicode="&#x25a0;" horiz-adv-x="1658" 
d="M154 0v1352h1351v-1352h-1351z" />
    <glyph glyph-name="filledrect" unicode="&#x25ac;" horiz-adv-x="1658" 
d="M154 338v676h1351v-676h-1351z" />
    <glyph glyph-name="uni25AE" unicode="&#x25ae;" horiz-adv-x="983" 
d="M154 0v1352h675v-1352h-675z" />
    <glyph glyph-name="uni25B0" unicode="&#x25b0;" horiz-adv-x="1474" 
d="M0 123l737 1106h738l-738 -1106h-737z" />
    <glyph glyph-name="triagup" unicode="&#x25b2;" horiz-adv-x="1658" 
d="M92 0l737 1270l738 -1270h-1475z" />
    <glyph glyph-name="uni25B6" unicode="&#x25b6;" horiz-adv-x="1515" 
d="M154 -61v1474l1269 -737z" />
    <glyph glyph-name="triagdn" unicode="&#x25bc;" horiz-adv-x="1658" 
d="M92 1352h1475l-738 -1270z" />
    <glyph glyph-name="uni25C0" unicode="&#x25c0;" horiz-adv-x="1515" 
d="M92 676l1270 737v-1474z" />
    <glyph glyph-name="uni25C6" unicode="&#x25c6;" horiz-adv-x="1658" 
d="M92 676l737 737l738 -737l-738 -737z" />
    <glyph glyph-name="lozenge" unicode="&#x25ca;" 
d="M82 676l614 819l615 -819l-615 -819zM410 676l286 -379l287 379l-287 379z" />
    <glyph glyph-name="H18533" unicode="&#x25cf;" horiz-adv-x="1617" 
d="M133 676q0 137 53.5 262.5t144 216t216 144t262.5 53.5t262.5 -53.5t216 -144t144 -216t53.5 -262.5t-53.5 -262.5t-144 -216t-216 -144t-262.5 -53.5t-262.5 53.5t-216 144t-144 216t-53.5 262.5z" />
    <glyph glyph-name="uni25E2" unicode="&#x25e2;" horiz-adv-x="1228" 
d="M92 0l983 983v-983h-983z" />
    <glyph glyph-name="uni25E3" unicode="&#x25e3;" horiz-adv-x="1228" 
d="M154 0v983l983 -983h-983z" />
    <glyph glyph-name="uni25E4" unicode="&#x25e4;" horiz-adv-x="1228" 
d="M154 369v983h983z" />
    <glyph glyph-name="uni25E5" unicode="&#x25e5;" horiz-adv-x="1228" 
d="M92 1352h983v-983z" />
    <glyph glyph-name="uni2604" unicode="&#x2604;" horiz-adv-x="1679" 
d="M92 1556l780 -667l-178 381l531 -500l-183 -117l-342 131l-122 -299l-381 594l393 -286zM635 301l133 326l289 -111l270 174l219 -293q0 -91 -21 -163.5t-53 -122t-88 -111.5q-130 0 -222 -18.5t-175 -63.5z" />
    <glyph glyph-name="uni2605" unicode="&#x2605;" horiz-adv-x="1740" 
d="M92 911h594l184 564l185 -564h594l-482 -348l185 -563l-482 348l-481 -348l184 563z" />
    <glyph glyph-name="uni2620" unicode="&#x2620;" horiz-adv-x="1986" 
d="M113 451q0 32 9 53.5t19.5 30t19.5 25t9 40.5q0 44 -22.5 73t-22.5 64q0 28 40 49t95 21q17 -94 42.5 -133.5t86.5 -69.5l164 -225q-130 51 -201.5 61.5t-238.5 10.5zM293 59q0 37 23 61.5t55 24.5q152 0 315 91l29 -103l57 -43q-55 -22 -96 -52.5t-62.5 -57.5t-39 -51
t-37 -38t-45.5 -14q-22 0 -34 15t-20.5 38t-21 47.5t-43.5 47.5t-80 34zM440 635l68 98l-47 383q0 88 86 173t210 135.5t236 50.5t236 -50.5t210.5 -135.5t86.5 -173l-47 -383l67 -98l-178 -246l-113 -20l-16 -88l-154 -86h-184l-153 86l-17 88l-113 20zM604 698
q0 -178 76 -178q95 0 169.5 44t74.5 122q0 41 -87 77t-124 36q-57 0 -83 -25t-26 -76zM748 244l61 -35v-70l-41 31zM829 129v68l62 -31v-70zM901 395l41 -30l51 30l51 -30l41 30l-92 164zM911 92v72h72v-72h-72zM1004 92v72h71v-72h-71zM1063 686q0 -78 74.5 -122t169.5 -44
q75 0 75 178q0 52 -26 76.5t-82 24.5q-37 0 -124 -36t-87 -77zM1096 96v70l61 31v-68zM1178 139v70l61 35l-20 -74zM1214 90l58 43l28 103q163 -91 316 -91q32 0 55 -24.5t23 -61.5q-49 -11 -80 -34t-43.5 -47.5t-21 -47.5t-20.5 -38t-34 -15q-26 0 -45.5 14t-37.5 38
t-39.5 51t-62.5 57.5t-96 52.5zM1434 379l163 225q61 30 86.5 69.5t42.5 133.5q55 0 95.5 -21t40.5 -49q0 -35 -22.5 -64t-22.5 -73q0 -24 9 -40.5t19.5 -25t19.5 -30t9 -53.5q-166 0 -238 -10.5t-202 -61.5z" />
    <glyph glyph-name="uni2622" unicode="&#x2622;" horiz-adv-x="1863" 
d="M133 676q0 218 108.5 403t290.5 289l277 -479q-56 -33 -89.5 -89.5t-33.5 -123.5h-553zM532 -16l277 479q61 -33 123 -33t123 33l276 -479q-184 -107 -399 -107q-216 0 -400 107zM768 676q0 68 48 116t116 48t116 -48t48 -116t-48 -116t-116 -48t-116 48t-48 116z
M1055 889l276 479q183 -104 291.5 -289t108.5 -403h-553q0 67 -33.5 123.5t-89.5 89.5z" />
    <glyph glyph-name="uni2623" unicode="&#x2623;" horiz-adv-x="1884" 
d="M133 502q0 132 76.5 250t214.5 190q0 235 118.5 374t307.5 159q-112 -40 -179 -130.5t-67 -207.5q0 -139 99 -238.5t239 -99.5t239 99.5t99 238.5q0 117 -67 207.5t-179 130.5q189 -20 307.5 -159t118.5 -374q138 -72 214.5 -190t76.5 -250q0 -107 -43 -191q6 27 6 74
q0 147 -101.5 249.5t-244.5 102.5q-140 0 -239 -99.5t-99 -238.5t100.5 -238.5t241.5 -99.5q137 0 242 91q-64 -91 -159.5 -142t-215.5 -51q-80 0 -165 29.5t-132 62.5q-47 -33 -132 -62.5t-165 -29.5q-120 0 -215.5 51t-159.5 142q105 -91 242 -91q141 0 241.5 99.5
t100.5 238.5t-99 238.5t-239 99.5q-143 0 -244.5 -102.5t-101.5 -249.5q0 -47 6 -74q-43 84 -43 191zM451 666h133q0 -237 198 -342l-67 -115q-264 147 -264 457zM678 1061q118 76 264 76t264 -76l-65 -117q-92 60 -199 60t-199 -60zM840 645q0 -43 29.5 -72.5t72.5 -29.5
t72.5 29.5t29.5 72.5t-29.5 73t-72.5 30t-72.5 -30t-29.5 -73zM1102 324q198 105 198 342h134q0 -309 -265 -457z" />
    <glyph glyph-name="uni2699" unicode="&#x2699;" horiz-adv-x="1699" 
d="M113 594v164l202 57l58 141l-103 183l117 116l182 -102l142 57l57 203h164l57 -203l141 -57l183 102l117 -116l-103 -183l57 -141l203 -57v-164l-203 -57l-57 -142l103 -182l-117 -117l-183 103l-141 -58l-57 -202h-164l-57 202l-142 58l-182 -103l-117 117l103 182
l-58 142zM645 676q0 -85 60 -145t145 -60t145 60t60 145t-60 145t-145 60t-145 -60t-60 -145z" />
    <glyph glyph-name="uni269B" unicode="&#x269b;" horiz-adv-x="1617" 
d="M133 260q0 180 143.5 416.5t387.5 431.5q-124 59 -220 59q-83 0 -129.5 -45.5t-46.5 -130.5q0 -76 35 -166l-61 -90q-109 201 -109 357q0 128 72 194t188 66q179 0 416 -144q238 144 416 144q116 0 188 -66t72 -194q0 -178 -144 -416q144 -238 144 -416q0 -128 -72 -194
t-188 -66q-156 0 -357 109l90 61q90 -35 166 -35q83 0 129.5 45.5t46.5 130.5q0 95 -59 219q-69 -90 -166.5 -181.5t-210.5 -170.5t-238.5 -128.5t-232.5 -49.5q-116 0 -188 66t-72 194zM268 360q0 -85 46.5 -130.5t129.5 -45.5q160 0 368.5 148.5t342.5 343.5
q-83 118 -190 218t-220 169q-197 -142 -337 -345t-140 -358zM604 696q0 72 51 123t123 51t123 -51t51 -123t-51 -123t-123 -51t-123 51t-51 123zM893 1153q86 -60 183.5 -151.5t164.5 -180.5q59 124 59 219q0 85 -46.5 131t-129.5 46q-100 0 -231 -64z" />
    <glyph glyph-name="uni26A0" unicode="&#x26a0;" horiz-adv-x="1802" 
d="M113 123l716 1229h144l717 -1229l-72 -123h-1434zM778 154h246v163h-246v-163zM778 461h246v471h-246v-471z" />
    <glyph glyph-name="uni26A1" unicode="&#x26a1;" horiz-adv-x="1638" 
d="M113 379l553 973h419l-399 -574l840 174l-881 -1075l277 676z" />
    <glyph glyph-name="uni26D4" unicode="&#x26d4;" horiz-adv-x="1740" 
d="M154 379v594l419 420h594l420 -420v-594l-420 -420h-594zM358 512h1024v328h-1024v-328z" />
    <glyph glyph-name="uni2747" unicode="&#x2747;" horiz-adv-x="1966" 
d="M133 946q0 68 105 68q51 0 103 -34.5t52 -68.5q0 -23 -29.5 -37t-84.5 -14q-67 0 -106.5 24t-39.5 62zM287 465q0 29 27 44.5t67.5 19t87.5 10t87.5 16.5t67.5 39.5t27 77.5q0 29 -24 55t-52.5 41.5t-52.5 36.5t-24 41q0 18 21.5 27t53.5 10.5t70 5t70 9.5t53.5 25.5
t21.5 51.5q0 28 -22 53.5t-48.5 43t-48.5 48.5t-22 70q0 23 12.5 39t34.5 16q37 0 59.5 -28t35.5 -68t28.5 -80t52 -68t93.5 -28t87.5 39t30.5 106q0 50 -20.5 123.5t-20.5 134.5q0 39 23.5 69t64.5 30q40 0 66.5 -32t26.5 -73q0 -70 -31 -137t-31 -127q0 -131 56 -180
t178 -49q29 0 58 25.5t50 56t51 56t60 25.5q50 0 75 -26.5t25 -65.5q0 -26 -22.5 -43t-56.5 -25.5t-73.5 -24t-73.5 -35t-56.5 -62t-22.5 -103.5q0 -62 23.5 -104t61 -61t83 -29.5t91 -17t83 -16.5t61 -33.5t23.5 -63.5q0 -34 -18.5 -57t-53.5 -23q-40 0 -72.5 16.5
t-59.5 39.5t-61.5 46t-97.5 39.5t-149 16.5q-133 0 -133 -185q0 -38 12 -69t27 -47t27 -36t12 -40q0 -36 -25 -56t-63 -20q-31 0 -47 29.5t-18.5 73t-11 95t-21.5 95t-52 73t-100 29.5q-54 0 -93.5 -26t-62 -68t-40 -92.5t-34 -100.5t-37 -92t-56.5 -68t-85 -26
q-39 0 -62.5 22.5t-23.5 63.5q0 49 21.5 88.5t54 65t70 53.5t70 54t54 67t21.5 92q0 55 -35 79.5t-82 24.5q-56 0 -137 -34.5t-111 -34.5q-73 0 -73 47zM1403 -31q0 38 27 65t65 27t65 -27t27 -65t-27 -65t-65 -27t-65 27t-27 65z" />
    <glyph glyph-name="uni2748" unicode="&#x2748;" horiz-adv-x="1986" 
d="M133 999q0 56 42 100t104 44q33 0 59 -14t44 -36.5t36 -50t40 -55t49 -50t69 -36.5t96 -14q35 0 62.5 15.5t44 37.5t32 43.5t35 37t43.5 15.5q46 0 109 -40t110 -40q31 0 49 38.5t23 96t13.5 125t19.5 125t42.5 96t81.5 38.5q65 0 102.5 -36t37.5 -91q0 -34 -25.5 -68.5
t-61.5 -67t-72 -69t-61.5 -88t-25.5 -109.5q0 -46 20 -80t48 -53t56 -34.5t48 -32.5t20 -37q0 -29 -18 -54t-43.5 -44.5t-51 -40t-43.5 -49t-18 -62.5q0 -62 37 -106t89.5 -69.5t104.5 -49.5t89 -62.5t37 -91.5q0 -54 -42.5 -88.5t-105.5 -34.5q-41 0 -74 25t-56 65
t-43.5 88t-43.5 96.5t-51 88.5t-70 65t-96 25q-53 0 -98 -17t-82 -34t-72 -17q-37 0 -64.5 23t-27.5 69q0 33 14.5 94.5t14.5 100.5q0 64 -32 106.5t-82.5 62t-112 30.5t-123 20t-112 22.5t-82.5 45.5t-32 83zM162 449q0 50 43 80t106 30q57 0 100.5 -17.5t43.5 -52.5
q0 -40 -59.5 -87.5t-121.5 -47.5q-45 0 -78.5 27t-33.5 68zM389 14q0 46 35 99t81.5 92t90 65.5t61.5 26.5q27 0 27 -80q0 -142 -51.5 -241t-138.5 -99q-41 0 -73 40t-32 97zM727 1368q0 41 27.5 74t64.5 33q44 0 75.5 -33t31.5 -84q0 -59 -25.5 -103.5t-56.5 -44.5
q-41 0 -79 55t-38 103zM1503 717q0 33 76.5 67.5t144.5 34.5q55 0 92 -23.5t37 -68.5q0 -47 -32.5 -67.5t-81.5 -20.5q-82 0 -159 21.5t-77 56.5z" />
    <glyph glyph-name="uni274C" unicode="&#x274c;" horiz-adv-x="1576" 
d="M113 297l379 379l-379 379l297 297l378 -379l379 379l297 -297l-379 -379l379 -379l-297 -297l-379 379l-378 -379z" />
    <glyph glyph-name="uni2764" unicode="&#x2764;" horiz-adv-x="1822" 
d="M133 963q0 161 114 275t275 114q112 0 195 -47.5t194 -167.5q111 120 194 167.5t195 47.5q161 0 275.5 -114t114.5 -275q0 -53 -10.5 -100t-24 -79t-42.5 -70t-48.5 -59t-59.5 -61l-594 -594l-594 594q-40 40 -59.5 61t-48 59t-42 70t-24 78.5t-10.5 100.5z" />
    <glyph glyph-name="uni2770" unicode="&#x2770;" horiz-adv-x="1290" 
d="M123 461l635 891h450l-450 -891l450 -891h-450z" />
    <glyph glyph-name="uni2771" unicode="&#x2771;" horiz-adv-x="1290" 
d="M82 -430l450 891l-450 891h450l635 -891l-635 -891h-450z" />
    <glyph glyph-name="uni2772" unicode="&#x2772;" horiz-adv-x="962" 
d="M143 -119v1241l609 312l108 -185l-368 -286v-922l368 -287l-108 -184z" />
    <glyph glyph-name="uni2773" unicode="&#x2773;" horiz-adv-x="962" 
d="M102 -246l369 287v922l-369 286l109 185l608 -312v-1241l-608 -311z" />
    <glyph glyph-name="uniEFFD" unicode="&#xeffd;" horiz-adv-x="2457" 
d="M123 246v246l768 860h502v-1352h-410v246h-860zM580 492h403v454zM1597 0v307h390v-307h-390zM1690 1188v164h512v-779h-287v615h-225z" />
    <glyph glyph-name="uniF000" unicode="&#xf000;" horiz-adv-x="2048" 
d="M102 0v1229h820v-819h-410v-410h-410zM1126 410v819h820v-410h-410v-409h-410zM1536 0v408h410v-408h-410z" />
    <glyph glyph-name="uniFB00" unicode="&#xfb00;" horiz-adv-x="1802" 
d="M123 0v1106q0 246 307 246h410v-215h-297q-51 0 -51 -41v-92h348v-216h-348v-788h-369zM1024 0v1106q0 246 307 246h410v-215h-297q-51 0 -51 -41v-92h348v-216h-348v-788h-369z" />
    <glyph glyph-name="uniFB01" unicode="&#xfb01;" horiz-adv-x="1515" 
d="M123 0v1106q0 246 307 246h410v-215h-297q-51 0 -51 -41v-92h348v-216h-348v-788h-369zM1024 0v1004h369v-1004h-369zM1024 1147v205h369v-205h-369z" />
    <glyph glyph-name="uniFB02" unicode="&#xfb02;" horiz-adv-x="1515" 
d="M123 0v1106q0 246 307 246h410v-215h-297q-51 0 -51 -41v-92h348v-216h-348v-788h-369zM1024 0v1352h369v-1352h-369z" />
    <glyph glyph-name="uniFB03" unicode="&#xfb03;" horiz-adv-x="2416" 
d="M123 0v1106q0 246 307 246h410v-215h-297q-51 0 -51 -41v-92h348v-216h-348v-788h-369zM1024 0v1106q0 246 307 246h410v-215h-297q-51 0 -51 -41v-92h348v-216h-348v-788h-369zM1925 0v1004h369v-1004h-369zM1925 1147v205h369v-205h-369z" />
    <glyph glyph-name="uniFB04" unicode="&#xfb04;" horiz-adv-x="2416" 
d="M123 0v1106q0 246 307 246h410v-215h-297q-51 0 -51 -41v-92h348v-216h-348v-788h-369zM1024 0v1106q0 246 307 246h410v-215h-297q-51 0 -51 -41v-92h348v-216h-348v-788h-369zM1925 0v1352h369v-1352h-369z" />
    <glyph glyph-name="u1F30C" unicode="&#x1f30c;" horiz-adv-x="1945" 
d="M113 563q0 150 58 293t157 252.5t241.5 176.5t300.5 67q173 0 315 -73.5t226 -210t84 -310.5q0 -80 -30.5 -160t-83.5 -145t-133.5 -105.5t-172.5 -40.5q-163 0 -255.5 91t-92.5 227q-27 0 -44 -37.5t-17 -85.5q0 -84 59.5 -164.5t162.5 -132t218 -51.5q117 0 230.5 52
t203.5 142t145.5 224.5t55.5 287.5q0 178 -69 336.5t-167 278.5q45 -38 85.5 -81t86.5 -109t79 -136.5t55 -165.5t22 -195q0 -150 -58 -293t-157.5 -252.5t-242 -176t-300.5 -66.5q-173 0 -314.5 73.5t-225.5 210t-84 310.5q0 80 30.5 160t83.5 144.5t133 105t172 40.5
q163 0 256 -90.5t93 -226.5q27 0 44 37.5t17 85.5q0 84 -59.5 164.5t-162.5 132t-218 51.5q-117 0 -230.5 -52t-203.5 -142t-145.5 -224.5t-55.5 -287.5q0 -179 68.5 -337t166.5 -278q-45 38 -85.5 81t-86.5 108.5t-78.5 136.5t-54.5 165.5t-22 194.5z" />
    <glyph glyph-name="u1F30D" unicode="&#x1f30d;" horiz-adv-x="1863" 
d="M133 676q0 162 63.5 310t170.5 255t255 170.5t310 63.5t310 -63.5t255 -170.5t170.5 -255t63.5 -310t-63.5 -310t-170.5 -255t-255 -170.5t-310 -63.5t-310 63.5t-255 170.5t-170.5 255t-63.5 310zM514 723l39 -203l225 -22l96 -394l179 7l231 469l-94 -13l-127 187
l31 20l123 -164l129 99l-148 106l248 -35l80 -157l26 231l93 -115q-17 185 -151.5 363t-307.5 244l-139 -156l-80 41l-144 -88l62 -56l61 93l6 -101l-215 -55v-61l-61 12l-27 -74l56 -12l114 72l58 -76l18 12l-51 78l26 14l76 -96l80 104l109 -39l-11 -28l-125 -8v-45
l105 -7l-25 -71l-219 -11l-55 84h-146zM610 1231v-33l264 107l-77 32zM700 1075l78 -26v73zM1155 989l35 29l55 -117h-41zM1176 182l43 -6l61 135l-78 -49z" />
    <glyph glyph-name="u1F30E" unicode="&#x1f30e;" horiz-adv-x="1863" 
d="M133 676q0 162 63.5 310t170.5 255t255 170.5t310 63.5t310 -63.5t255 -170.5t170.5 -255t63.5 -310t-63.5 -310t-170.5 -255t-255 -170.5t-310 -63.5t-310 63.5t-255 170.5t-170.5 255t-63.5 310zM498 1184l133 10l-58 -266l54 -219l16 4l-14 131l84 -180l331 -144
l-63 -133l141 -149l-90 -220l43 -24l324 276l84 201l-396 139l-32 -67l-105 45v35l-57 18l16 57l-37 13l-26 -54l-64 27l13 109l139 28l33 -69l22 8l-24 74l122 170l-40 30l86 64l-170 80v-121l-117 80l65 61l-198 47l-39 43zM780 1270l183 -49v-25l59 -27v48l-88 43l-8 61z
M944 715l137 -49l47 22l-176 45zM946 1303l199 -129l-27 114l-131 53zM1124 1036l60 11l-54 36z" />
    <glyph glyph-name="u1F30F" unicode="&#x1f30f;" horiz-adv-x="1863" 
d="M133 676q0 162 63.5 310t170.5 255t255 170.5t310 63.5t310 -63.5t255 -170.5t170.5 -255t63.5 -310t-63.5 -310t-170.5 -255t-255 -170.5t-310 -63.5t-310 63.5t-255 170.5t-170.5 255t-63.5 310zM223 776l119 35l37 166l86 -350l160 151l110 -293l19 4l-35 164l53 -73
l62 30l-39 90l188 115l-57 111l51 32l59 -86l29 23l-33 59l92 76l-53 86l84 64l76 -78v158l-557 22l47 53l-90 -10q-146 -67 -265.5 -228t-142.5 -321zM416 1047l51 81l41 9l-80 -113zM645 535l92 -148l213 -49l-178 78l-104 133zM809 461l86 -66l51 119l-35 25zM858 209
l39 -109l162 35l117 -51l110 94l-76 164l-32 -80l-62 23l17 49zM934 387h72l-48 76zM942 657l70 -131l24 13l-55 143zM1067 858l14 -24l111 71l-47 174l6 -153zM1077 442l92 -73l123 -13l-35 62l-174 41zM1145 61l6 -30l49 41z" />
    <glyph glyph-name="u1F47D" unicode="&#x1f47d;" horiz-adv-x="1576" 
d="M133 819q0 194 77.5 342t226.5 231t351 83t351 -83t227 -231t78 -342q0 -210 -53.5 -337.5t-212.5 -317.5q-48 -58 -86 -98.5t-91.5 -89t-107.5 -74t-105 -25.5t-104.5 25.5t-107.5 74t-91 88.5t-86 99q-159 190 -212.5 317.5t-53.5 337.5zM297 573q0 -78 57 -156
t138.5 -124.5t152.5 -46.5q42 0 62 12.5t20 48.5q0 60 -58 156t-137 170t-133 74q-51 0 -76.5 -38t-25.5 -96zM655 102q30 -61 133 -61q104 0 134 61h-267zM850 307q0 -36 20 -48.5t62 -12.5q71 0 152.5 46.5t138.5 124.5t57 156q0 58 -25.5 96t-76.5 38q-54 0 -133 -74
t-137 -170t-58 -156z" />
    <glyph glyph-name="u1F4A3" unicode="&#x1f4a3;" horiz-adv-x="1802" 
d="M133 410q0 112 50.5 207.5t138.5 158.5l57 -276l143 61l174 -72l-30 -215l266 -151q-63 -76 -154 -120t-194 -44q-92 0 -175.5 35.5t-144 96t-96 144t-35.5 175.5zM209 1276h223l10 -182l-147 -93zM535 629l139 846l262 -60zM778 518l565 678l175 -211zM928 244l762 182
v-227zM1192 621l248 114l-10 -223l-156 -27z" />
    <glyph glyph-name="u1F525" unicode="&#x1f525;" horiz-adv-x="1597" 
d="M133 524q0 217 107 369q0 -137 34 -194.5t109 -57.5q53 0 93 36.5t40 96.5q0 29 -25.5 154t-25.5 207q0 275 250 421q-64 -169 -64 -301q0 -78 22 -140t58.5 -99t79.5 -56.5t88 -19.5q80 0 136.5 58.5t56.5 181.5q92 -102 92 -230q0 -67 -35 -180.5t-35 -161.5
q0 -60 40 -96.5t93 -36.5q84 0 118 70t34 207q27 -45 46 -124.5t19 -152.5q0 -145 -84 -265t-220.5 -185.5t-293.5 -65.5q78 29 135 64t91.5 70.5t55 78t27.5 82t7 88.5q-75 -133 -166 -133q-41 0 -63 21.5t-30.5 61t-12 89t-14 110.5t-30 121.5t-66.5 126t-118 119.5
q80 -173 80 -315q0 -131 -59.5 -208t-137.5 -77q-65 0 -118.5 52.5t-77.5 152.5q0 -79 13.5 -144.5t46.5 -132.5t96.5 -124.5t156.5 -102.5q-144 24 -253 80.5t-172 134t-93.5 165.5t-30.5 185z" />
    <glyph glyph-name="u1F52B" unicode="&#x1f52b;" horiz-adv-x="2478" 
d="M133 737l41 369l358 31l31 112q587 0 995.5 -47.5t753.5 -175.5l-20 -82l73 -12l-20 -184l-104 -9l-19 -73h-399l-133 -123h-332l-365 -543h-723l-57 96q258 411 258 473q0 72 -57 98.5t-281 69.5zM688 160l35 -58h219l297 461q-4 21 -15.5 37.5t-25 27.5t-38 18.5
t-44 11t-56 5.5t-60 2.5t-68.5 0.5l51 -246l-195 -31z" />
    <glyph glyph-name="u1F601" unicode="&#x1f601;" horiz-adv-x="1863" 
d="M154 184v983q0 246 307 246h942q307 0 307 -246v-983q0 -245 -307 -245h-942q-307 0 -307 245zM317 676q0 -139 66 -259.5t180 -199.5v459h-246zM379 1004l72 -52q64 113 174 113t174 -113l71 52q-34 76 -96.5 125t-148.5 49t-149 -49t-97 -125zM625 178q128 -70 276 -76
v574h-276v-498zM963 102q148 6 276 76v498h-276v-574zM993 1004l72 -52q64 113 174 113t174 -113l72 52q-34 76 -97 125t-149 49t-149 -49t-97 -125zM1300 217q114 79 180 199.5t66 259.5h-246v-459z" />
    <glyph glyph-name="u1F603" unicode="&#x1f603;" horiz-adv-x="1863" 
d="M154 184v983q0 246 307 246h942q307 0 307 -246v-983q0 -245 -307 -245h-942q-307 0 -307 245zM358 553q76 -168 232.5 -268.5t341.5 -100.5t341 100t232 269l-51 41q-121 -128 -240 -187t-282 -59t-282 59t-240 187zM522 942q0 -85 42 -145t102 -60t101.5 60t41.5 145
t-41.5 145t-101.5 60t-102 -60t-42 -145zM1055 942q0 -85 41.5 -145t101.5 -60t101.5 60t41.5 145t-41.5 145t-101.5 60t-101.5 -60t-41.5 -145z" />
    <glyph glyph-name="u1F604" unicode="&#x1f604;" horiz-adv-x="1863" 
d="M154 184v983q0 246 307 246h942q307 0 307 -246v-983q0 -245 -307 -245h-942q-307 0 -307 245zM317 676q0 -156 82 -288t224 -209t309 -77t308.5 77t223.5 209t82 288h-1229zM379 1004l72 -52q64 113 174 113t174 -113l71 52q-34 76 -96.5 125t-148.5 49t-149 -49
t-97 -125zM993 1004l72 -52q64 113 174 113t174 -113l72 52q-34 76 -97 125t-149 49t-149 -49t-97 -125z" />
    <glyph glyph-name="u1F606" unicode="&#x1f606;" horiz-adv-x="1863" 
d="M154 184v983q0 246 307 246h942q307 0 307 -246v-983q0 -245 -307 -245h-942q-307 0 -307 245zM317 676q0 -156 82 -288t224 -209t309 -77t308.5 77t223.5 209t82 288h-1229zM399 850l41 -72l410 185v81l-410 185l-41 -72l287 -153zM1014 963l409 -185l41 72l-286 154
l286 153l-41 72l-409 -185v-81z" />
    <glyph glyph-name="u1F607" unicode="&#x1f607;" horiz-adv-x="1863" 
d="M154 184v983q0 246 307 246h942q307 0 307 -246v-983q0 -245 -307 -245h-942q-307 0 -307 245zM225 1587q0 64 94.5 118.5t257.5 86t355 31.5t354.5 -31.5t257 -86t94.5 -118.5q0 -60 -86 -112h-233q84 36 84 81q0 60 -138 102t-333 42t-333 -42t-138 -102q0 -45 84 -81
h-234q-86 52 -86 112zM358 553q76 -168 232.5 -268.5t341.5 -100.5t341 100t232 269l-51 41q-121 -128 -240 -187t-282 -59t-282 59t-240 187zM379 952q34 -76 97 -125t149 -49t148.5 49t96.5 125l-71 52q-64 -113 -174 -113t-174 113zM993 952q34 -76 97 -125t149 -49
t149 49t97 125l-72 52q-64 -113 -174 -113t-174 113z" />
    <glyph glyph-name="u1F608" unicode="&#x1f608;" horiz-adv-x="2068" 
d="M113 1454q0 105 40 205.5t103 163.5q14 -171 66.5 -265t138.5 -145h1147q86 51 138 144.5t66 265.5q63 -63 103.5 -163.5t40.5 -205.5q0 -103 -39.5 -193t-104.5 -155v-922q0 -245 -307 -245h-942q-307 0 -307 245v922q-65 65 -104 155t-39 193zM430 553
q66 -180 218 -289.5t386 -109.5t386 109.5t218 289.5l-30 31q-145 -65 -274.5 -94t-299.5 -29t-299 29t-274 94zM625 942q0 -85 41.5 -145t101.5 -60q54 0 95 49t48 125l-204 215q-36 -24 -59 -74t-23 -110zM1157 911q7 -76 48 -125t95 -49q60 0 102 60t42 145q0 60 -23 110
t-59 74z" />
    <glyph glyph-name="u1F609" unicode="&#x1f609;" horiz-adv-x="1863" 
d="M154 184v983q0 246 307 246h942q307 0 307 -246v-983q0 -245 -307 -245h-942q-307 0 -307 245zM379 512q152 -197 375.5 -282t566.5 -85v80q-266 0 -485 94t-355 275zM379 922l72 -52q64 113 174 113t174 -113l71 52q-34 76 -96.5 125t-148.5 49t-149 -49t-97 -125z
M1055 942q0 -85 41.5 -145t101.5 -60t101.5 60t41.5 145t-41.5 145t-101.5 60t-101.5 -60t-41.5 -145z" />
    <glyph glyph-name="u1F60A" unicode="&#x1f60a;" horiz-adv-x="1863" 
d="M154 184v983q0 246 307 246h942q307 0 307 -246v-983q0 -245 -307 -245h-942q-307 0 -307 245zM328 625q66 -181 218 -290.5t386 -109.5t386 109.5t218 290.5l-31 30q-145 -65 -274 -94t-299 -29t-299.5 29t-274.5 94zM379 1004l72 -52q64 113 174 113t174 -113l71 52
q-34 76 -96.5 125t-148.5 49t-149 -49t-97 -125zM993 1004l72 -52q64 113 174 113t174 -113l72 52q-34 76 -97 125t-149 49t-149 -49t-97 -125z" />
    <glyph glyph-name="u1F60E" unicode="&#x1f60e;" horiz-adv-x="1863" 
d="M154 184v983q0 246 307 246h942q307 0 307 -246v-983q0 -245 -307 -245h-942q-307 0 -307 245zM276 1147l41 -369l471 -41l93 267h102l92 -267l471 41l41 369h-1311zM584 145q343 0 566.5 85t375.5 282l-103 82q-136 -181 -354.5 -275t-484.5 -94v-80z" />
    <glyph glyph-name="u1F610" unicode="&#x1f610;" horiz-adv-x="1863" 
d="M154 184v983q0 246 307 246h942q307 0 307 -246v-983q0 -245 -307 -245h-942q-307 0 -307 245zM502 287h860v123h-860v-123zM522 942q0 -85 42 -145t102 -60t101.5 60t41.5 145t-41.5 145t-101.5 60t-102 -60t-42 -145zM1055 942q0 -85 41.5 -145t101.5 -60t101.5 60
t41.5 145t-41.5 145t-101.5 60t-101.5 -60t-41.5 -145z" />
    <glyph glyph-name="u1F612" unicode="&#x1f612;" horiz-adv-x="1863" 
d="M154 184v983q0 246 307 246h942q307 0 307 -246v-983q0 -245 -307 -245h-942q-307 0 -307 245zM338 973h184q0 -103 38.5 -169.5t105.5 -66.5q71 0 112 82t41 246h-481v-92zM502 287h860v123h-860v-123zM942 973h184q0 -103 38.5 -169.5t105.5 -66.5q71 0 112 82t41 246
h-481v-92z" />
    <glyph glyph-name="u1F615" unicode="&#x1f615;" horiz-adv-x="1863" 
d="M154 184v983q0 246 307 246h942q307 0 307 -246v-983q0 -245 -307 -245h-942q-307 0 -307 245zM502 942q0 -98 48 -166.5t116 -68.5t115.5 68.5t47.5 166.5t-47.5 167t-115.5 69t-116 -69t-48 -167zM600 281l49 -113l785 354l-52 113zM1065 942q0 -80 39 -137t94 -57
t94 57t39 137t-39 137.5t-94 57.5t-94 -57.5t-39 -137.5z" />
    <glyph glyph-name="u1F618" unicode="&#x1f618;" horiz-adv-x="2703" 
d="M154 184v983q0 246 307 246h942q307 0 307 -246v-983q0 -245 -307 -245h-942q-307 0 -307 245zM379 922l72 -52q64 113 174 113t174 -113l71 52q-34 76 -96.5 125t-148.5 49t-149 -49t-97 -125zM870 41q124 28 203 52.5t115.5 47.5t48.5 41.5t12 42.5q0 35 -27.5 63.5
t-91.5 59.5q64 31 91.5 59.5t27.5 63.5q0 24 -12 42.5t-48.5 41.5t-115.5 47.5t-203 52.5v-86q159 -40 205.5 -59t46.5 -43t-25.5 -39t-103.5 -41v-78q78 -26 103.5 -41t25.5 -39t-46.5 -43t-205.5 -59v-86zM1055 942q0 -85 41.5 -145t101.5 -60t101.5 60t41.5 145
t-41.5 145t-101.5 60t-101.5 -60t-41.5 -145zM1833 1403q0 79 57.5 136.5t137.5 57.5q57 0 97.5 -23t96.5 -83q55 60 96.5 83t98.5 23q79 0 136.5 -57.5t57.5 -136.5q0 -43 -14 -78.5t-29.5 -54t-48.5 -51.5l-297 -297l-297 297q-33 33 -48.5 51.5t-29.5 54t-14 78.5z" />
    <glyph glyph-name="u1F61B" unicode="&#x1f61b;" horiz-adv-x="1863" 
d="M154 184v983q0 246 307 246h942q307 0 307 -246v-983q0 -245 -307 -245h-942q-307 0 -307 245zM379 604q91 -111 213 -174.5t258 -77.5l33 -192q9 -56 55.5 -86.5t116.5 -30.5q80 0 148.5 44.5t68.5 115.5l-35 211q151 70 248 190l-51 51q-110 -88 -233 -125.5
t-269 -37.5t-269 37.5t-233 125.5zM522 942q0 -85 42 -145t102 -60t101.5 60t41.5 145t-41.5 145t-101.5 60t-102 -60t-42 -145zM1028 401l47 9l43 -244l-49 -8zM1055 942q0 -85 41.5 -145t101.5 -60t101.5 60t41.5 145t-41.5 145t-101.5 60t-101.5 -60t-41.5 -145z" />
    <glyph glyph-name="u1F61D" unicode="&#x1f61d;" horiz-adv-x="1863" 
d="M154 184v983q0 246 307 246h942q307 0 307 -246v-983q0 -245 -307 -245h-942q-307 0 -307 245zM379 358l51 -51q172 136 389 158l43 -260q9 -56 55.5 -86.5t116.5 -30.5q80 0 148.5 44.5t68.5 115.5l-28 178q112 -42 211 -119l51 51q-104 127 -249 191.5t-304 64.5
t-304 -64.5t-249 -191.5zM399 809l41 -72l410 185v82l-410 184l-41 -72l287 -153zM997 504l47 8l54 -301l-49 -8zM1014 922l409 -185l41 72l-286 154l286 153l-41 72l-409 -184v-82z" />
    <glyph glyph-name="u1F61E" unicode="&#x1f61e;" horiz-adv-x="1863" 
d="M154 184v983q0 246 307 246h942q307 0 307 -246v-983q0 -245 -307 -245h-942q-307 0 -307 245zM399 246l52 -41q101 101 220 142.5t261 41.5t261 -41.5t220 -142.5l51 41q-58 107 -151.5 178.5t-188 100t-192.5 28.5t-192.5 -28.5t-188.5 -100t-152 -178.5zM522 942
q0 -85 42 -145t102 -60t101.5 60t41.5 145t-41.5 145t-101.5 60t-102 -60t-42 -145zM1055 942q0 -85 41.5 -145t101.5 -60t101.5 60t41.5 145t-41.5 145t-101.5 60t-101.5 -60t-41.5 -145z" />
    <glyph glyph-name="u1F61F" unicode="&#x1f61f;" horiz-adv-x="1863" 
d="M154 184v983q0 246 307 246h942q307 0 307 -246v-983q0 -245 -307 -245h-942q-307 0 -307 245zM399 246l52 -41q101 101 220 142.5t261 41.5t261 -41.5t220 -142.5l51 41q-58 107 -151.5 178.5t-188 100t-192.5 28.5t-192.5 -28.5t-188.5 -100t-152 -178.5zM522 911
q7 -76 48.5 -125t95.5 -49q60 0 101.5 60t41.5 145q0 60 -23 110t-59 74zM1055 942q0 -85 41.5 -145t101.5 -60q54 0 95 49t48 125l-204 215q-36 -24 -59 -74t-23 -110z" />
    <glyph glyph-name="u1F620" unicode="&#x1f620;" horiz-adv-x="1863" 
d="M154 184v983q0 246 307 246h942q307 0 307 -246v-983q0 -245 -307 -245h-942q-307 0 -307 245zM399 246l52 -41q101 101 220 142.5t261 41.5t261 -41.5t220 -142.5l51 41q-58 107 -151.5 178.5t-188 100t-192.5 28.5t-192.5 -28.5t-188.5 -100t-152 -178.5zM522 942
q0 -85 42 -145t102 -60q54 0 95 49t48 125l-205 215q-36 -24 -59 -74t-23 -110zM1055 911q7 -76 48 -125t95 -49q60 0 101.5 60t41.5 145q0 60 -22.5 110t-58.5 74z" />
    <glyph glyph-name="u1F623" unicode="&#x1f623;" horiz-adv-x="1863" 
d="M154 184v983q0 246 307 246h942q307 0 307 -246v-983q0 -245 -307 -245h-942q-307 0 -307 245zM399 246l52 -41q101 101 220 142.5t261 41.5t261 -41.5t220 -142.5l51 41q-58 107 -151.5 178.5t-188 100t-192.5 28.5t-192.5 -28.5t-188.5 -100t-152 -178.5zM399 788
l41 -71l410 184v82l-410 184l-41 -71l287 -154zM1014 901l409 -184l41 71l-286 154l286 154l-41 71l-409 -184v-82z" />
    <glyph glyph-name="u1F62D" unicode="&#x1f62d;" horiz-adv-x="3174" 
d="M92 885q0 74 70.5 111.5t331.5 115.5q-46 -89 -72 -138t-53 -95t-42 -65.5t-34.5 -35t-35 -19t-38.5 -3.5q-51 0 -89 38t-38 91zM164 1434q0 68 49.5 115.5t116.5 47.5q52 0 135 -50t303 -206l-436 -75q-69 0 -118.5 49t-49.5 119zM809 184v983q0 246 307 246h942
q307 0 307 -246v-983q0 -245 -307 -245h-942q-307 0 -307 245zM993 502q0 -150 71.5 -244t174.5 -94q47 0 89 21t69.5 45.5t77.5 45.5t112 21t112 -21t77.5 -45.5t69.5 -45.5t89 -21q103 0 174.5 94t71.5 244t-71.5 244t-174.5 94q-47 0 -89 -21t-69.5 -45.5t-77.5 -45.5
t-112 -21t-112 21t-77.5 45.5t-69.5 45.5t-89 21q-103 0 -174.5 -94t-71.5 -244zM1034 1044l72 -51q64 113 174 113t174 -113l72 51q-34 76 -97 125.5t-149 49.5t-149 -49.5t-97 -125.5zM1649 1044l71 -51q64 113 174 113t174 -113l72 51q-34 76 -97 125.5t-149 49.5
t-148.5 -49.5t-96.5 -125.5zM2406 1341q219 155 303 205.5t136 50.5q67 0 116.5 -47.5t49.5 -115.5q0 -70 -49.5 -119t-118.5 -49zM2681 1112q261 -78 331 -115.5t70 -111.5q0 -53 -38 -91t-89 -38q-23 0 -38.5 3t-35 19t-34 35t-42 66t-53 95t-71.5 138z" />
    <glyph glyph-name="u1F62E" unicode="&#x1f62e;" horiz-adv-x="1863" 
d="M154 184v983q0 246 307 246h942q307 0 307 -246v-983q0 -245 -307 -245h-942q-307 0 -307 245zM440 143h983q-8 75 -44.5 149.5t-96.5 138t-151.5 103t-198.5 39.5t-198.5 -39.5t-152 -103t-97 -138t-44.5 -149.5zM522 942q0 -85 42 -145t102 -60t101.5 60t41.5 145
t-41.5 145t-101.5 60t-102 -60t-42 -145zM1055 942q0 -85 41.5 -145t101.5 -60t101.5 60t41.5 145t-41.5 145t-101.5 60t-101.5 -60t-41.5 -145z" />
    <glyph glyph-name="u1F632" unicode="&#x1f632;" horiz-adv-x="1863" 
d="M154 184v983q0 246 307 246h942q307 0 307 -246v-983q0 -245 -307 -245h-942q-307 0 -307 245zM399 942q0 -94 66 -159.5t160 -65.5t159.5 65.5t65.5 159.5t-65.5 159.5t-159.5 65.5t-160 -65.5t-66 -159.5zM440 143h983q-8 75 -44.5 149.5t-96.5 138t-151.5 103
t-198.5 39.5t-198.5 -39.5t-152 -103t-97 -138t-44.5 -149.5zM543 942q0 34 24 58t58 24t58 -24t24 -58t-24 -58t-58 -24t-58 24t-24 58zM1014 942q0 -94 65.5 -159.5t159.5 -65.5t159.5 65.5t65.5 159.5t-65.5 159.5t-159.5 65.5t-159.5 -65.5t-65.5 -159.5zM1157 942
q0 34 24 58t58 24t58 -24t24 -58t-24 -58t-58 -24t-58 24t-24 58z" />
    <glyph glyph-name="u1F634" unicode="&#x1f634;" horiz-adv-x="2826" 
d="M154 184v983q0 246 307 246h942q307 0 307 -246v-983q0 -245 -307 -245h-942q-307 0 -307 245zM379 952q34 -76 97 -125t149 -49t148.5 49t96.5 125l-71 52q-64 -113 -174 -113t-174 113zM707 256q0 -63 66 -108.5t159 -45.5t159 45.5t66 108.5t-66 108.5t-159 45.5
t-159 -45.5t-66 -108.5zM993 952q34 -76 97 -125t149 -49t149 49t97 125l-72 52q-64 -113 -174 -113t-174 113zM1812 1085v62l216 205h-205v61h327v-61l-204 -205h215v-62h-349zM2263 1085v82l297 287h-276v82h440v-82l-297 -287h307v-82h-471z" />
    <glyph glyph-name="u1F635" unicode="&#x1f635;" horiz-adv-x="1863" 
d="M154 184v983q0 246 307 246h942q307 0 307 -246v-983q0 -245 -307 -245h-942q-307 0 -307 245zM379 338l51 -51q99 77 211 119l-29 -179q0 -71 68.5 -115t148.5 -44q71 0 117 30t55 86l43 260q220 -22 390 -157l51 51q-104 127 -249 191.5t-304 64.5t-304 -64.5
t-249 -191.5zM399 799l62 -62l153 144l154 -144l61 62l-143 153l143 154l-61 61l-154 -143l-153 143l-62 -61l144 -154zM766 190l53 302l47 -9l-51 -301zM1034 799l62 -62l153 144l154 -144l61 62l-143 153l143 154l-61 61l-154 -143l-153 143l-62 -61l144 -154z" />
    <glyph glyph-name="u1F680" unicode="&#x1f680;" horiz-adv-x="1843" 
d="M113 -246l317 492l174 -174zM266 584l92 153l484 72l336 358q91 64 257 129.5t285 65.5q0 -119 -65 -285.5t-129 -257.5l-359 -336l-71 -483l-154 -92l-72 297l-153 -72l-225 225l71 154z" />
    <glyph glyph-name="Eng.loclSM" horiz-adv-x="1720" 
d="M143 0v1352h441l583 -801v801h410v-1504q0 -278 -348 -278h-389v246h225q102 0 102 82v75l-614 844v-817h-410z" />
    <glyph glyph-name="space.frac" horiz-adv-x="102" 
 />
    <glyph glyph-name="uni00A0.frac" horiz-adv-x="102" 
 />
    <glyph glyph-name="zero.numr" horiz-adv-x="942" 
d="M82 745v435q0 172 215 172h348q215 0 215 -172v-435q0 -172 -215 -172h-348q-215 0 -215 172zM369 770q0 -33 41 -33h122q41 0 41 33v385q0 33 -41 33h-122q-41 0 -41 -33v-385z" />
    <glyph glyph-name="one.numr" horiz-adv-x="942" 
d="M174 1188v164h512v-779h-287v615h-225z" />
    <glyph glyph-name="two.numr" horiz-adv-x="942" 
d="M82 573v310q0 172 215 172h235q41 0 41 32v68q0 33 -41 33h-399v164h512q215 0 215 -172v-117q0 -172 -215 -172h-235q-41 0 -41 -33v-121h491v-164h-778z" />
    <glyph glyph-name="three.numr" horiz-adv-x="942" 
d="M102 573v164h430q41 0 41 33v88q0 33 -41 33h-327v164h327q41 0 41 32v68q0 33 -41 33h-430v164h543q215 0 215 -172v-52q0 -119 -102 -155q102 -36 102 -156v-72q0 -172 -215 -172h-543z" />
    <glyph glyph-name="four.numr" horiz-adv-x="942" 
d="M82 707v163l420 482h358v-779h-287v134h-491zM385 870h188v215z" />
    <glyph glyph-name="five.numr" horiz-adv-x="942" 
d="M82 573v164h450q41 0 41 33v88q0 33 -41 33h-450v461h737v-164h-450v-133h276q215 0 215 -172v-138q0 -172 -215 -172h-563z" />
    <glyph glyph-name="six.numr" horiz-adv-x="942" 
d="M82 745v402q0 205 256 205h461v-164h-369q-61 0 -61 -49v-84h276q215 0 215 -172v-138q0 -172 -215 -172h-348q-215 0 -215 172zM369 770q0 -33 41 -33h122q41 0 41 33v88q0 33 -41 33h-163v-121z" />
    <glyph glyph-name="seven.numr" horiz-adv-x="942" 
d="M82 1188v164h778v-164l-336 -615h-325l336 615h-453z" />
    <glyph glyph-name="eight.numr" horiz-adv-x="942" 
d="M82 745v72q0 120 102 156q-102 36 -102 155v52q0 172 215 172h348q215 0 215 -172v-52q0 -119 -102 -155q102 -36 102 -156v-72q0 -172 -215 -172h-348q-215 0 -215 172zM369 770q0 -33 41 -33h122q41 0 41 33v88q0 33 -41 33h-122q-41 0 -41 -33v-88zM369 1087
q0 -32 41 -32h122q41 0 41 32v68q0 33 -41 33h-122q-41 0 -41 -33v-68z" />
    <glyph glyph-name="nine.numr" horiz-adv-x="942" 
d="M82 1063v117q0 172 215 172h348q215 0 215 -172v-402q0 -205 -256 -205h-481v164h389q61 0 61 49v105h-276q-215 0 -215 172zM369 1087q0 -32 41 -32h163v100q0 33 -41 33h-122q-41 0 -41 -33v-68z" />
    <glyph glyph-name="slash.frac" horiz-adv-x="389" 
d="M-338 0l741 1352h324l-741 -1352h-324z" />
    <glyph glyph-name="zero.dnom" horiz-adv-x="942" 
d="M82 172v434q0 172 215 172h348q215 0 215 -172v-434q0 -172 -215 -172h-348q-215 0 -215 172zM369 197q0 -33 41 -33h122q41 0 41 33v385q0 32 -41 32h-122q-41 0 -41 -32v-385z" />
    <glyph glyph-name="one.dnom" horiz-adv-x="942" 
d="M174 614v164h512v-778h-287v614h-225z" />
    <glyph glyph-name="two.dnom" horiz-adv-x="942" 
d="M82 0v309q0 172 215 172h235q41 0 41 33v68q0 32 -41 32h-399v164h512q215 0 215 -172v-117q0 -172 -215 -172h-235q-41 0 -41 -32v-121h491v-164h-778z" />
    <glyph glyph-name="three.dnom" horiz-adv-x="942" 
d="M102 0v164h430q41 0 41 33v88q0 32 -41 32h-327v164h327q41 0 41 33v68q0 32 -41 32h-430v164h543q215 0 215 -172v-51q0 -120 -102 -156q102 -36 102 -155v-72q0 -172 -215 -172h-543z" />
    <glyph glyph-name="four.dnom" horiz-adv-x="942" 
d="M82 133v164l420 481h358v-778h-287v133h-491zM385 297h188v215z" />
    <glyph glyph-name="five.dnom" horiz-adv-x="942" 
d="M82 0v164h450q41 0 41 33v88q0 32 -41 32h-450v461h737v-164h-450v-133h276q215 0 215 -172v-137q0 -172 -215 -172h-563z" />
    <glyph glyph-name="six.dnom" horiz-adv-x="942" 
d="M82 172v401q0 205 256 205h461v-164h-369q-61 0 -61 -49v-84h276q215 0 215 -172v-137q0 -172 -215 -172h-348q-215 0 -215 172zM369 197q0 -33 41 -33h122q41 0 41 33v88q0 32 -41 32h-163v-120z" />
    <glyph glyph-name="seven.dnom" horiz-adv-x="942" 
d="M82 614v164h778v-164l-336 -614h-325l336 614h-453z" />
    <glyph glyph-name="eight.dnom" horiz-adv-x="942" 
d="M82 172v72q0 119 102 155q-102 36 -102 156v51q0 172 215 172h348q215 0 215 -172v-51q0 -120 -102 -156q102 -36 102 -155v-72q0 -172 -215 -172h-348q-215 0 -215 172zM369 197q0 -33 41 -33h122q41 0 41 33v88q0 32 -41 32h-122q-41 0 -41 -32v-88zM369 514
q0 -33 41 -33h122q41 0 41 33v68q0 32 -41 32h-122q-41 0 -41 -32v-68z" />
    <glyph glyph-name="nine.dnom" horiz-adv-x="942" 
d="M82 489v117q0 172 215 172h348q215 0 215 -172v-401q0 -205 -256 -205h-481v164h389q61 0 61 49v104h-276q-215 0 -215 172zM369 514q0 -33 41 -33h163v101q0 32 -41 32h-122q-41 0 -41 -32v-68z" />
    <glyph glyph-name="zero.zero" horiz-adv-x="1515" 
d="M123 279v794q0 279 348 279h573q349 0 349 -279v-794q0 -279 -349 -279h-573q-348 0 -348 279zM532 303q0 -57 72 -57h307q72 0 72 57v404l-451 -328v-76zM532 645l451 328v76q0 57 -72 57h-307q-72 0 -72 -57v-404z" />
    <glyph glyph-name="one.pnum" horiz-adv-x="1290" 
d="M184 1106v246h779v-1352h-410v1106h-369z" />
    <glyph glyph-name="three.pnum" horiz-adv-x="1474" 
d="M123 0v246h747q72 0 72 57v223q0 58 -72 58h-563v245h563q72 0 72 58v162q0 57 -72 57h-747v246h881q348 0 348 -279v-112q0 -179 -146 -244q146 -65 146 -244v-194q0 -279 -348 -279h-881z" />
    <glyph glyph-name="four.pnum" horiz-adv-x="1495" 
d="M102 246v246l768 860h502v-1352h-409v246h-861zM559 492h404v454z" />
    <glyph glyph-name="seven.pnum" horiz-adv-x="1495" 
d="M102 1106v246h1270v-246l-604 -1106h-449l605 1106h-822z" />
    <glyph glyph-name="Jacute" horiz-adv-x="1536" 
d="M82 328v276h410v-244q0 -114 143 -114h276q72 0 72 57v1049h410v-1073q0 -279 -349 -279h-552q-410 0 -410 328zM963 1475l225 327h328l-287 -327h-266z" />
    <glyph glyph-name="jacute" horiz-adv-x="614" 
d="M-102 -215h143q82 0 82 65v1154h369v-1188q0 -246 -308 -246h-286v215zM102 1126l226 328h327l-286 -328h-267z" />
    </font>
</defs>
</svg>
